<svg xmlns="http://www.w3.org/2000/svg" width="166" height="161" fill="none" viewBox="0 0 166 161"><path fill="#FFEBC3" d="M165.645 86.1671C165.645 131.909 128.138 161 82.397 161C36.6553 161 0 131.909 0 86.1671C0 40.4254 37.0808 3.34464 82.8225 3.34464C128.564 3.34464 165.645 40.4254 165.645 86.1671Z"/><mask id="mask0_902_5090" width="166" height="158" x="0" y="3" maskUnits="userSpaceOnUse" style="mask-type:alpha"><path fill="#F7E3E2" d="M165.645 86.1671C165.645 131.909 128.138 161 82.397 161C36.6553 161 0 131.909 0 86.1671C0 40.4254 37.0808 3.34464 82.8225 3.34464C128.564 3.34464 165.645 40.4254 165.645 86.1671Z"/></mask><g mask="url(#mask0_902_5090)"><path fill="#FFB27D" d="M22.24 78.547C22.781 80.936 23.8417 85.5522 27.8714 91.1226C30.7769 95.1395 36.3029 101.08 41.7126 108.843C45.6143 114.441 47.8766 117.744 49.1215 119.579C50.0053 120.884 50.6175 122.336 50.9226 123.858L41.5638 151.977L63.8123 153.923C63.8123 153.923 72.1945 124.633 72.2021 112.349L72.2032 112.338C72.2021 110.914 72.2161 109.396 72.2517 107.773C72.4101 100.257 74.5948 94.3331 52.868 94.1272C52.7775 94.1261 52.6934 94.0625 52.5964 94.028C51.7493 93.6992 50.4559 93.1084 48.5492 91.5721C48.228 91.3134 47.8907 91.031 47.5371 90.7183C45.416 88.8446 43.4037 87.3666 41.511 86.1991C31.6327 80.0897 21.7484 76.3758 22.24 78.547Z"/><path fill="#FFB27D" d="M20.6943 64.2885C21.0199 60.7557 23.6494 49.643 23.6494 49.643C23.6494 49.643 26.2228 50.2338 27.1661 51.8833C29.9248 56.7076 29.0231 66.2183 28.8774 66.2743C28.8727 66.2754 33.3648 74.9107 34.1279 80.4659C34.1279 80.4659 46.0411 86.9322 48.5503 91.5721C48.7022 91.8546 48.824 92.1327 48.9124 92.4001C49.253 93.4426 49.3985 94.8699 49.378 96.4558C49.294 102.077 47.0736 109.679 43.755 109.094C42.9359 108.947 23.7691 87.5143 22.9753 83.74C22.7902 82.8485 20.5205 66.173 20.6943 64.2885Z"/><path fill="#FFB27D" d="M51.6513 88.3358C51.6513 88.3358 52.2183 93.7897 46.5737 89.0064L46.1167 95.2742L53.9794 99.4614L56.6481 94.8624L51.6513 88.3358Z"/><path fill="#FFC69F" d="M24.2046 55.1325C24.3121 54.9266 24.3855 54.6991 24.4209 54.4587C24.4209 54.4587 24.7212 52.3058 24.9366 50.7265C25.0785 49.6861 24.3808 48.842 23.9838 48.6846C23.7324 48.5854 22.191 52.6228 22.1311 56.424C23.0357 56.4391 23.8155 55.8796 24.2046 55.1325Z"/><path fill="#F6A56E" d="M34.1279 80.466C36.6996 81.309 52.3658 91.9646 53.213 92.2923C55.1725 94.7675 55.5023 98.4319 54.5452 98.8405C53.2539 99.3946 50.3761 98.2831 48.4565 96.5194C45.8827 94.1584 45.1358 91.0472 44.3684 89.3158C44.0213 88.5364 41.7417 87.4022 40.8783 86.2638C38.6074 83.27 34.4222 80.6967 34.1279 80.466Z"/><path fill="#FFB27D" d="M64.1043 90.645C64.1043 90.645 43.7097 74.2186 41.4549 70.0486C41.4549 70.0486 37.8668 71.3466 39.2982 76.7951C40.7306 82.2448 50.7598 92.0282 51.359 95.8876C53.6095 110.388 61.8441 114.851 61.8441 114.851C61.8441 114.851 84.1971 106.867 64.1043 90.645Z"/><path fill="#FFC69F" d="M42.7667 76.1181C42.5791 75.9715 42.4131 75.7914 42.2773 75.5855C42.2773 75.5855 41.0702 73.7356 40.1885 72.3761C39.6075 71.4803 39.7919 70.317 40.6293 69.6303C40.8352 69.4621 40.9591 69.3791 40.9591 69.3791C41.9486 70.234 44.5063 71.8285 46.2092 75.2772C45.2705 75.9499 43.4457 76.6517 42.7667 76.1181Z"/><path fill="#077F7F" d="M71.5587 130.89C71.5587 130.89 71.4606 133.602 71.2957 137.897C71.2914 138.009 71.2881 138.123 71.2827 138.238C71.0575 144.112 70.7147 152.781 70.3267 161.52C57.4014 161.513 44.6174 161.502 32.4541 161.487C36.0433 154.314 42.1481 142.662 45.8504 135.633C47.6072 132.295 48.823 129.999 48.9696 129.723C48.9793 129.704 48.9847 129.695 48.9847 129.695C49.1906 129.397 49.4191 129.126 49.6691 128.884C50.0119 128.546 50.3934 128.259 50.8084 128.017C54.2305 126.007 59.9138 126.962 64.4676 128.29C66.5662 128.901 68.4233 129.591 69.7113 130.106C70.5854 130.457 71.1976 130.726 71.4401 130.836C71.5188 130.872 71.5587 130.89 71.5587 130.89Z"/><path fill="#004949" d="M71.2892 138.237C71.2892 138.237 62.2883 140.669 57.0878 140.748L55.1682 137.172L53.49 140.196C53.49 140.196 46.9185 138.199 45.5798 136.248L50.1584 128.004L71.4897 128.431L71.2892 138.237Z"/><path fill="#F3F8FF" d="M70.9151 123.87C70.9151 123.87 73.6883 130.313 74.2757 137.95C74.2757 137.95 63.4328 139.154 58.2689 138.517L56.0088 129.557L52.7181 137.342C52.7181 137.342 46.7448 136.567 44.6689 134.956C44.6689 134.956 48.5351 128.332 50.9699 123.944C50.9699 123.944 61.0196 126.974 70.9151 123.87Z"/><path fill="#004949" d="M64.3565 136.218C64.6249 135.723 64.419 135.115 63.8952 134.86C63.3714 134.604 62.7301 134.798 62.4617 135.293C62.1933 135.788 62.3992 136.396 62.923 136.651C63.4458 136.907 64.0882 136.713 64.3565 136.218Z"/><path fill="#FFB27D" d="M135.986 78.5472C135.446 80.9361 134.384 85.5524 130.356 91.1228C127.45 95.1395 121.924 101.08 116.514 108.843C112.612 114.441 110.35 117.744 109.105 119.579C108.221 120.884 107.609 122.336 107.304 123.858L116.663 151.977L94.4149 153.923C94.4149 153.923 86.0337 124.633 86.0245 112.349L86.0232 112.338C86.0245 110.914 86.0113 109.396 85.9745 107.773C85.8169 100.257 83.6319 94.3332 105.358 94.1274C105.449 94.1262 105.533 94.0626 105.63 94.0281C106.478 93.6993 107.771 93.1085 109.678 91.5724C109.999 91.3136 110.337 91.0312 110.69 90.7185C112.811 88.8448 114.823 87.3668 116.715 86.1992C126.594 80.0898 136.479 76.376 135.986 78.5472Z"/><path fill="#FFB27D" d="M137.534 64.2883C137.207 60.7553 134.578 49.643 134.578 49.643C134.578 49.643 132.004 50.2343 131.062 51.8837C128.302 56.7075 129.204 66.2186 129.349 66.2747C129.354 66.275 124.863 74.9107 124.099 80.4659C124.099 80.4659 112.186 86.9322 109.677 91.5721C109.525 91.8545 109.404 92.1327 109.315 92.4001C108.974 93.4426 108.829 94.8699 108.85 96.4558C108.933 102.077 111.153 109.679 114.473 109.094C115.292 108.947 134.459 87.5143 135.252 83.7401C135.437 82.8484 137.707 66.1734 137.534 64.2883Z"/><path fill="#FFB27D" d="M106.577 88.3355C106.577 88.3355 106.01 93.7894 111.655 89.0061L112.111 95.274L104.248 99.4612L101.579 94.8622L106.577 88.3355Z"/><path fill="#FFC69F" d="M134.024 55.1327C133.915 54.9262 133.843 54.699 133.806 54.4589C133.806 54.4589 133.505 52.3061 133.292 50.7268C133.149 49.6855 133.846 48.8418 134.244 48.6846C134.496 48.585 136.037 52.6221 136.096 56.4244C135.192 56.4391 134.412 55.88 134.024 55.1327Z"/><path fill="#F6A56E" d="M124.1 80.4656C121.529 81.3087 105.861 91.9642 105.015 92.2919C103.055 94.7673 102.726 98.4316 103.683 98.8402C104.974 99.3943 107.852 98.2828 109.771 96.5191C112.345 94.1581 113.092 91.0468 113.86 89.3154C114.206 88.536 116.487 87.4019 117.35 86.2634C119.62 83.2696 123.805 80.6963 124.1 80.4656Z"/><path fill="#FFB27D" d="M94.1221 90.6453C94.1221 90.6453 114.517 74.2189 116.772 70.049C116.772 70.049 120.36 71.3469 118.929 76.7955C117.496 82.2451 107.466 92.0284 106.867 95.8879C104.617 110.388 96.3832 114.851 96.3832 114.851C96.3832 114.851 74.0298 106.867 94.1221 90.6453Z"/><path fill="#FFC69F" d="M115.462 76.1178C115.649 75.9711 115.814 75.7911 115.951 75.5853C115.951 75.5853 117.158 73.7353 118.04 72.3758C118.621 71.4799 118.436 70.3167 117.599 69.6299C117.393 69.4618 117.269 69.3788 117.269 69.3788C116.279 70.2337 113.57 71.9715 111.867 75.4202C112.686 75.7814 114.782 76.6515 115.462 76.1178Z"/><path fill="#077F7F" d="M125.804 161.547C113.742 161.546 100.943 161.542 87.9006 161.536C87.5148 152.792 87.1703 144.115 86.9456 138.238C86.9393 138.123 86.9368 138.008 86.9318 137.896C86.7671 133.601 86.6697 130.89 86.6697 130.89C86.6697 130.89 86.7109 130.872 86.7883 130.836C87.0305 130.726 87.6422 130.457 88.5173 130.106C89.8044 129.591 91.662 128.901 93.7605 128.29C98.3147 126.961 103.997 126.006 107.419 128.017C107.836 128.258 108.216 128.546 108.559 128.884C108.809 129.126 109.037 129.397 109.243 129.694C109.243 129.694 109.249 129.704 109.258 129.722C109.405 129.998 110.621 132.295 112.378 135.632C116.089 142.681 122.219 154.38 125.804 161.547Z"/><path fill="#004949" d="M86.9372 138.237C86.9372 138.237 95.9388 140.669 101.14 140.748L103.059 137.172L104.737 140.196C104.737 140.196 111.309 138.2 112.647 136.248L108.069 128.004L86.7375 128.431L86.9372 138.237Z"/><path fill="#F3F8FF" d="M87.3131 123.87C87.3131 123.87 84.5395 130.313 83.9517 137.95C83.9517 137.95 94.7962 139.153 99.9585 138.517L102.219 129.556L105.509 137.342C105.509 137.342 111.484 136.567 113.559 134.955C113.559 134.955 109.693 128.332 107.259 123.944C107.259 123.944 97.2084 126.973 87.3131 123.87Z"/><path fill="#004949" d="M93.8707 136.218C93.6023 135.723 93.8081 135.115 94.332 134.86C94.8558 134.604 95.4971 134.798 95.7655 135.293C96.0338 135.788 95.828 136.396 95.3042 136.651C94.7814 136.907 94.139 136.713 93.8707 136.218Z"/><path fill="#A8D29F" d="M119.292 151.12C120.016 151.413 122.609 151.176 122.694 150.969C122.777 150.761 121.081 148.786 120.357 148.492C119.63 148.197 118.805 148.548 118.51 149.273C118.216 149.999 118.566 150.826 119.292 151.12Z"/><path fill="#A8D29F" d="M125.83 152.358C125.424 153.026 125.239 155.623 125.43 155.74C125.621 155.856 127.844 154.502 128.252 153.834C128.659 153.164 128.447 152.292 127.778 151.885C127.111 151.477 126.238 151.688 125.83 152.358Z"/><path fill="#A8D29F" d="M122.337 157.441C123.082 157.679 125.649 157.245 125.718 157.031C125.785 156.819 123.944 154.977 123.199 154.739C122.452 154.501 121.654 154.913 121.417 155.659C121.179 156.405 121.591 157.202 122.337 157.441Z"/><path fill="#A8D29F" d="M126.113 159.955C126.11 159.895 125.823 154.017 122.605 150.981L122.673 150.909C125.92 153.973 126.209 159.891 126.212 159.95L126.113 159.955Z"/><path fill="#A8D29F" d="M136.854 151.246C136.403 151.547 134.609 151.744 134.523 151.615C134.438 151.486 135.315 149.91 135.768 149.61C136.219 149.309 136.829 149.433 137.129 149.885C137.429 150.336 137.307 150.947 136.854 151.246Z"/><path fill="#A8D29F" d="M132.587 152.991C132.955 153.389 133.439 155.127 133.327 155.233C133.213 155.338 131.516 154.726 131.147 154.329C130.778 153.931 130.801 153.31 131.199 152.941C131.595 152.571 132.217 152.595 132.587 152.991Z"/><path fill="#A8D29F" d="M135.661 155.959C135.187 156.225 133.385 156.285 133.309 156.149C133.234 156.015 134.229 154.509 134.702 154.244C135.175 153.98 135.774 154.149 136.039 154.623C136.303 155.096 136.134 155.694 135.661 155.959Z"/><path fill="#A8D29F" d="M133.444 158.189C133.438 158.149 132.819 154.117 134.585 151.612L134.528 151.572C132.747 154.101 133.37 158.159 133.376 158.2L133.444 158.189Z"/><path fill="#A8D29F" d="M130.26 159.612L130.054 159.578C129.248 149.143 126.062 141.654 126.018 141.552L126.204 141.471C126.249 141.575 129.457 149.113 130.26 159.612Z"/><path fill="#CCDBFD" d="M123.855 140.502C124.248 140.948 126.088 141.663 126.214 141.551C126.342 141.439 125.86 139.524 125.467 139.079C125.074 138.634 124.396 138.592 123.95 138.984C123.506 139.378 123.462 140.057 123.855 140.502Z"/><path fill="#CCDBFD" d="M126.676 138.95C126.321 139.426 125.999 141.374 126.135 141.476C126.27 141.577 128.045 140.711 128.399 140.235C128.754 139.759 128.656 139.086 128.18 138.731C127.704 138.375 127.03 138.474 126.676 138.95Z"/><path fill="#CCDBFD" d="M128.792 141.022C128.219 140.865 126.289 141.277 126.243 141.441C126.2 141.605 127.654 142.94 128.227 143.096C128.799 143.252 129.39 142.915 129.546 142.341C129.703 141.769 129.366 141.178 128.792 141.022Z"/><path fill="#CCDBFD" d="M127.487 143.604C127.429 143.013 126.359 141.354 126.191 141.37C126.021 141.386 125.29 143.22 125.346 143.811C125.404 144.403 125.929 144.835 126.52 144.778C127.112 144.721 127.543 144.196 127.487 143.604Z"/><path fill="#CCDBFD" d="M124.56 143.477C125.085 143.2 126.217 141.583 126.138 141.433C126.059 141.284 124.087 141.296 123.56 141.573C123.035 141.849 122.832 142.499 123.107 143.025C123.384 143.551 124.033 143.754 124.56 143.477Z"/><path fill="#163560" d="M125.788 141.378C125.818 141.185 126 141.053 126.193 141.084C126.386 141.115 126.517 141.296 126.487 141.49C126.456 141.683 126.274 141.814 126.081 141.783C125.889 141.753 125.757 141.571 125.788 141.378Z"/><path fill="#A8D29F" d="M130.201 148.941C129.617 149.66 128.987 152.675 129.191 152.842C129.397 153.008 132.219 151.776 132.803 151.057C133.387 150.339 133.279 149.283 132.561 148.699C131.841 148.114 130.787 148.223 130.201 148.941Z"/><path fill="#A8D29F" d="M118.638 160.679L118.5 160.676C117.048 153.822 114.277 149.132 114.238 149.069L114.355 148.998C114.394 149.063 117.186 153.783 118.638 160.679Z"/><path fill="#CCDBFD" d="M112.713 148.561C113.012 148.822 114.296 149.135 114.37 149.05C114.444 148.965 113.958 147.736 113.657 147.475C113.356 147.214 112.903 147.245 112.642 147.545C112.382 147.846 112.412 148.3 112.713 148.561Z"/><path fill="#CCDBFD" d="M114.446 147.283C114.254 147.63 114.211 148.952 114.31 149.007C114.409 149.062 115.51 148.332 115.704 147.985C115.897 147.638 115.774 147.199 115.426 147.006C115.079 146.812 114.641 146.936 114.446 147.283Z"/><path fill="#CCDBFD" d="M116.033 148.472C115.639 148.419 114.393 148.863 114.378 148.975C114.363 149.087 115.445 149.846 115.84 149.899C116.233 149.952 116.596 149.677 116.649 149.282C116.702 148.888 116.426 148.526 116.033 148.472Z"/><path fill="#CCDBFD" d="M115.394 150.301C115.304 149.914 114.448 148.907 114.337 148.932C114.227 148.957 113.902 150.238 113.992 150.626C114.082 151.013 114.467 151.254 114.856 151.164C115.242 151.075 115.483 150.688 115.394 150.301Z"/><path fill="#CCDBFD" d="M113.439 150.473C113.763 150.245 114.372 149.072 114.308 148.979C114.242 148.886 112.934 149.069 112.608 149.298C112.283 149.527 112.207 149.976 112.435 150.301C112.665 150.625 113.114 150.703 113.439 150.473Z"/><path fill="#163560" d="M114.07 148.973C114.074 148.842 114.182 148.739 114.315 148.742C114.444 148.745 114.548 148.854 114.544 148.985C114.541 149.116 114.431 149.219 114.302 149.215C114.171 149.212 114.067 149.103 114.07 148.973Z"/><path fill="#A8D29F" d="M117.663 153.604C117.338 154.132 117.184 156.188 117.336 156.281C117.486 156.373 119.251 155.308 119.575 154.78C119.899 154.252 119.735 153.561 119.207 153.236C118.679 152.912 117.988 153.076 117.663 153.604Z"/><path fill="#A8D29F" d="M140.774 159.772L140.956 159.745C141.674 150.449 144.512 143.781 144.552 143.69L144.385 143.618C144.346 143.709 141.487 150.424 140.774 159.772Z"/><path fill="#CCDBFD" d="M146.475 142.754C146.125 143.151 144.487 143.788 144.375 143.689C144.26 143.589 144.69 141.883 145.04 141.487C145.39 141.091 145.994 141.053 146.391 141.402C146.788 141.753 146.825 142.358 146.475 142.754Z"/><path fill="#CCDBFD" d="M143.965 141.372C144.281 141.796 144.569 143.531 144.448 143.621C144.326 143.711 142.746 142.941 142.431 142.516C142.115 142.092 142.202 141.493 142.626 141.176C143.049 140.86 143.65 140.947 143.965 141.372Z"/><path fill="#CCDBFD" d="M142.081 143.217C142.592 143.078 144.31 143.445 144.35 143.591C144.39 143.736 143.094 144.925 142.585 145.064C142.074 145.204 141.548 144.903 141.409 144.393C141.27 143.882 141.57 143.356 142.081 143.217Z"/><path fill="#CCDBFD" d="M143.242 145.517C143.292 144.99 144.245 143.513 144.396 143.527C144.545 143.542 145.198 145.175 145.148 145.702C145.096 146.228 144.628 146.614 144.102 146.562C143.577 146.511 143.191 146.044 143.242 145.517Z"/><path fill="#CCDBFD" d="M145.849 145.404C145.381 145.158 144.373 143.717 144.442 143.583C144.512 143.45 146.27 143.463 146.74 143.708C147.208 143.954 147.387 144.533 147.141 145.001C146.896 145.469 146.317 145.65 145.849 145.404Z"/><path fill="#163560" d="M144.754 143.534C144.729 143.362 144.566 143.245 144.394 143.273C144.222 143.3 144.105 143.461 144.132 143.633C144.159 143.805 144.322 143.923 144.492 143.895C144.666 143.868 144.782 143.706 144.754 143.534Z"/><path fill="#A8D29F" d="M140.349 152.76C140.87 153.399 141.432 156.083 141.249 156.232C141.066 156.381 138.552 155.283 138.032 154.643C137.513 154.004 137.608 153.063 138.248 152.543C138.89 152.022 139.829 152.119 140.349 152.76Z"/><path fill="#A8D29F" d="M111.295 161.397C111.295 161.397 112.326 158.687 116.069 158.517C119.811 158.346 122.387 160.558 125.479 159.538C128.571 158.517 133.689 156.212 138.531 157.747C143.373 159.282 144.188 161.397 144.188 161.397H111.295Z"/><path fill="#A8D29F" d="M40.1055 161.193H46.5692C46.9152 160.899 46.3299 160.232 45.7177 160.187C45.4515 160.167 45.1152 160.222 44.7304 160.304C44.642 159.122 44.1333 153.81 42.2191 154.023C40.0667 154.263 42.2191 156.363 42.828 157.607C43.2786 158.527 43.7539 159.848 43.9716 160.471C43.797 160.51 43.6159 160.547 43.4306 160.581C43.146 159.705 42.0843 156.757 40.7338 156.929C39.1494 157.13 39.7864 158.312 40.9095 159.013C41.7341 159.529 42.7461 160.262 43.2268 160.617C42.8194 160.682 42.3937 160.728 41.9626 160.718C40.8556 160.691 40.3146 161.018 40.1055 161.193Z"/><path fill="#A8D29F" d="M45.7598 160.513L45.9236 160.487C46.5681 152.147 49.115 146.162 49.1506 146.081L49.0008 146.016C48.9652 146.098 46.4011 152.123 45.7598 160.513Z"/><path fill="#CCDBFD" d="M50.8772 145.241C50.5636 145.597 49.0934 146.17 48.9921 146.08C48.8908 145.991 49.2756 144.46 49.5892 144.104C49.904 143.748 50.4461 143.715 50.8018 144.029C51.1575 144.342 51.192 144.886 50.8772 145.241Z"/><path fill="#CCDBFD" d="M48.6247 144.002C48.9082 144.382 49.1658 145.939 49.0569 146.02C48.9481 146.101 47.5307 145.408 47.2473 145.028C46.9638 144.647 47.0414 144.109 47.4219 143.826C47.8023 143.542 48.3413 143.621 48.6247 144.002Z"/><path fill="#CCDBFD" d="M46.9335 145.656C47.3905 145.531 48.934 145.861 48.9695 145.992C49.0051 146.123 47.8432 147.189 47.3851 147.314C46.9271 147.44 46.455 147.17 46.3299 146.712C46.206 146.254 46.4755 145.781 46.9335 145.656Z"/><path fill="#CCDBFD" d="M47.9759 147.721C48.0212 147.249 48.877 145.923 49.0117 145.936C49.1464 145.949 49.7317 147.414 49.6864 147.886C49.6401 148.358 49.2208 148.704 48.7487 148.659C48.2756 148.614 47.9306 148.193 47.9759 147.721Z"/><path fill="#CCDBFD" d="M50.3158 147.62C49.8954 147.399 48.9911 146.106 49.0536 145.986C49.1172 145.866 50.6941 145.877 51.1144 146.097C51.5348 146.318 51.6965 146.838 51.4755 147.257C51.2556 147.678 50.7361 147.839 50.3158 147.62Z"/><path fill="#233862" d="M49.334 145.941C49.3092 145.787 49.1637 145.682 49.0096 145.706C48.8554 145.731 48.7498 145.876 48.7746 146.03C48.7994 146.185 48.9438 146.29 49.099 146.265C49.2531 146.241 49.3577 146.095 49.334 145.941Z"/><path fill="#A8D29F" d="M46.4118 149.865C46.8192 150.366 47.26 152.473 47.1167 152.589C46.9733 152.706 45.002 151.846 44.5935 151.343C44.1861 150.841 44.2615 150.103 44.7638 149.695C45.265 149.286 46.0033 149.363 46.4118 149.865Z"/><path fill="#A8D29F" d="M48.5287 153.986C47.8044 154.338 46.2038 156.486 46.3041 156.693C46.4054 156.9 49.0827 156.96 49.807 156.607C50.5302 156.254 50.8309 155.382 50.4785 154.657C50.125 153.933 49.2519 153.632 48.5287 153.986Z"/></g><path fill="#FF5A5F" d="M128.016 12.5006C108.497 -14.2929 80.8016 17.0462 80.8016 17.0462C80.8016 17.0462 54.979 -15.8529 33.9337 9.75865C12.8897 35.3687 78.7429 87.7634 78.7429 87.7634C78.7429 87.7634 147.532 39.2937 128.016 12.5006Z"/><path fill="#fff" d="M120.39 22.2433C118.328 22.9056 116.072 22.0982 114.911 20.2686C113.668 18.3086 111.653 16.0585 108.724 15.3935C106.754 14.9448 105.519 12.9848 105.967 11.0155C106.415 9.04474 108.373 7.81018 110.345 8.25752C116.692 9.7003 120.325 14.7326 122.097 18.1017C122.943 19.7111 122.122 21.6939 120.39 22.2433Z" opacity=".1"/><path fill="#fff" d="M73.6538 77.4748C70.0053 73.9539 60.1248 62.9985 60.1248 62.9985C58.5274 61.4525 56.2155 57.7586 57.7612 56.1622C59.3069 54.5645 63.783 58.6247 65.3791 60.1708C65.3791 60.1708 72.5393 68.9074 76.5554 71.8145C80.9678 75.0086 82.7621 77.4976 81.2164 79.094C80.4274 79.9097 76.8605 80.568 73.6538 77.4748Z" opacity=".1"/></svg>