<svg xmlns="http://www.w3.org/2000/svg" width="181" height="170" fill="none" viewBox="0 0 181 170"><path fill="#FFDDDB" d="M177.93 83.0751C177.93 128.817 140.424 157.908 94.6823 157.908C48.9406 157.908 12.2853 128.817 12.2853 83.0751C12.2853 37.3334 49.3661 0.252594 95.1078 0.252594C140.85 0.252594 177.93 37.3334 177.93 83.0751Z"/><path fill="#F9C0BD" d="M161.921 153.232C161.921 158.012 129.165 161.886 88.7586 161.886C48.3518 161.886 15.596 158.012 15.596 153.232C15.596 148.453 48.3518 144.578 88.7586 144.578C129.165 144.578 161.921 148.453 161.921 153.232Z"/><path fill="#F9C0BD" d="M180.281 161.887C180.281 165.897 167.716 169.148 152.217 169.148C136.718 169.148 124.153 165.897 124.153 161.887C124.153 157.875 136.718 154.623 152.217 154.623C167.716 154.623 180.281 157.875 180.281 161.887Z"/><g opacity=".1"><g opacity=".1"><path fill="#384853" d="M130.897 32.3277L42.4551 155.294L135.061 158.061L130.897 32.3277Z" opacity=".1"/></g></g><path fill="#077F7F" d="M130.897 155.294H42.4545V32.3279H130.897V155.294Z"/><g opacity=".25"><g opacity=".25"><path fill="#384853" d="M45.3294 121.724C44.3421 121.683 43.3857 121.655 42.4548 121.64V155.294H130.897V52.0948C130.897 52.0948 90.5959 123.618 45.3294 121.724Z" opacity=".25"/></g></g><path fill="#D1D3D4" d="M128.82 150.947L49.8365 149.588L51.5219 47.6352L125.815 42.9047L128.82 150.947Z"/><path fill="#E3E6EA" d="M127.609 148.589L48.3373 148.089L49.8367 45.2958L125.815 42.9049L127.609 148.589Z"/><path fill="#fff" d="M125.815 146.359H47.5374V42.0661H125.815V146.359Z"/><path fill="#077F7F" d="M58.5605 47.0898C58.5605 48.7873 57.1844 50.1629 55.4874 50.1629C53.7903 50.1629 52.4138 48.7873 52.4138 47.0898C52.4138 45.3923 53.7903 44.0167 55.4874 44.0167C57.1844 44.0167 58.5605 45.3923 58.5605 47.0898Z"/><path fill="#E3E6EA" d="M57.5688 46.9504C57.5688 48.0999 56.6367 49.032 55.4872 49.032C54.3373 49.032 53.4051 48.0999 53.4051 46.9504V37.1822C53.4051 36.0318 54.3373 35.1001 55.4872 35.1001C56.6367 35.1001 57.5688 36.0318 57.5688 37.1822V46.9504Z"/><path fill="#077F7F" d="M70.9529 47.0898C70.9529 48.7873 69.5769 50.1629 67.8794 50.1629C66.1827 50.1629 64.8062 48.7873 64.8062 47.0898C64.8062 45.3923 66.1827 44.0167 67.8794 44.0167C69.5769 44.0167 70.9529 45.3923 70.9529 47.0898Z"/><path fill="#E3E6EA" d="M69.9615 46.9504C69.9615 48.0999 69.0294 49.032 67.8795 49.032C66.73 49.032 65.7978 48.0999 65.7978 46.9504V37.1822C65.7978 36.0318 66.73 35.1001 67.8795 35.1001C69.0294 35.1001 69.9615 36.0318 69.9615 37.1822V46.9504Z"/><path fill="#077F7F" d="M83.3446 47.0898C83.3446 48.7873 81.9686 50.1629 80.2711 50.1629C78.5744 50.1629 77.198 48.7873 77.198 47.0898C77.198 45.3923 78.5744 44.0167 80.2711 44.0167C81.9686 44.0167 83.3446 45.3923 83.3446 47.0898Z"/><path fill="#E3E6EA" d="M82.3532 46.9504C82.3532 48.0999 81.4215 49.032 80.2716 49.032C79.1217 49.032 78.1895 48.0999 78.1895 46.9504V37.1822C78.1895 36.0318 79.1217 35.1001 80.2716 35.1001C81.4215 35.1001 82.3532 36.0318 82.3532 37.1822V46.9504Z"/><path fill="#077F7F" d="M95.7368 47.0898C95.7368 48.7873 94.3603 50.1629 92.6632 50.1629C90.9665 50.1629 89.59 48.7873 89.59 47.0898C89.59 45.3923 90.9665 44.0167 92.6632 44.0167C94.3603 44.0167 95.7368 45.3923 95.7368 47.0898Z"/><path fill="#E3E6EA" d="M94.7453 46.9504C94.7453 48.0999 93.8132 49.032 92.6637 49.032C91.5138 49.032 90.5816 48.0999 90.5816 46.9504V37.1822C90.5816 36.0318 91.5138 35.1001 92.6637 35.1001C93.8132 35.1001 94.7453 36.0318 94.7453 37.1822V46.9504Z"/><path fill="#077F7F" d="M108.128 47.0898C108.128 48.7873 106.752 50.1629 105.055 50.1629C103.358 50.1629 101.982 48.7873 101.982 47.0898C101.982 45.3923 103.358 44.0167 105.055 44.0167C106.752 44.0167 108.128 45.3923 108.128 47.0898Z"/><path fill="#E3E6EA" d="M107.137 46.9504C107.137 48.0999 106.205 49.032 105.055 49.032C103.905 49.032 102.973 48.0999 102.973 46.9504V37.1822C102.973 36.0318 103.905 35.1001 105.055 35.1001C106.205 35.1001 107.137 36.0318 107.137 37.1822V46.9504Z"/><path fill="#F15A29" d="M120.52 47.0898C120.52 48.7873 119.144 50.1629 117.447 50.1629C115.75 50.1629 114.374 48.7873 114.374 47.0898C114.374 45.3923 115.75 44.0167 117.447 44.0167C119.144 44.0167 120.52 45.3923 120.52 47.0898Z"/><path fill="#622568" d="M119.53 46.9504C119.53 48.0999 118.597 49.032 117.448 49.032C116.298 49.032 115.366 48.0999 115.366 46.9504V37.1822C115.366 36.0318 116.298 35.1001 117.448 35.1001C118.597 35.1001 119.53 36.0318 119.53 37.1822V46.9504Z"/><path fill="#E3E6EA" d="M67.879 73.7547H52.4138V58.2896H67.879V73.7547Z"/><path fill="#fff" d="M64.0131 69.8882H56.2806V62.1556H64.0131V69.8882Z"/><path fill="#FF5A5F" d="M66.7557 51.4863L59.9519 63.6443L56.2806 59.1186L51.5221 63.6443L59.9808 69.0294L73.167 55.1192L66.7557 51.4863Z"/><path fill="#fff" d="M67.2847 53.0712L61.5639 62.5222L68.7385 53.7651L67.2847 53.0712Z"/><path fill="#FF5A5F" d="M103.733 60.6382H70.9526V59.1844H103.733V60.6382Z"/><path fill="#E3E6EA" d="M121.71 63.976H70.9526V62.5222H121.71V63.976Z"/><path fill="#E3E6EA" d="M121.71 67.4763H70.9526V66.0221H121.71V67.4763Z"/><path fill="#E3E6EA" d="M114.077 70.9767H70.9526V69.5229H114.077V70.9767Z"/><path fill="#E3E6EA" d="M67.879 98.7022H52.4138V83.2366H67.879V98.7022Z"/><path fill="#fff" d="M64.0131 94.8352H56.2806V87.1026H64.0131V94.8352Z"/><path fill="#FF5A5F" d="M66.7557 76.4328L59.9519 88.5912L56.2806 84.0655L51.5221 88.5912L59.9808 93.9759L73.167 80.0661L66.7557 76.4328Z"/><path fill="#fff" d="M67.2847 78.0183L61.5639 87.4689L68.7385 78.7122L67.2847 78.0183Z"/><path fill="#FF5A5F" d="M91.672 85.5858H70.9526V84.1315H91.672V85.5858Z"/><path fill="#E3E6EA" d="M121.71 88.9222H70.9526V87.4684H121.71V88.9222Z"/><path fill="#E3E6EA" d="M121.71 92.423H70.9526V90.9688H121.71V92.423Z"/><path fill="#E3E6EA" d="M96.3315 95.9237H70.9526V94.4695H96.3315V95.9237Z"/><path fill="#E3E6EA" d="M67.879 123.649H52.4138V108.184H67.879V123.649Z"/><path fill="#fff" d="M64.0131 119.783H56.2806V112.05H64.0131V119.783Z"/><path fill="#FF5A5F" d="M66.7557 101.38L59.9519 113.538L56.2806 109.012L51.5221 113.538L59.9808 118.923L73.167 105.012L66.7557 101.38Z"/><path fill="#fff" d="M67.2847 102.965L61.5639 112.416L68.7385 103.659L67.2847 102.965Z"/><path fill="#FF5A5F" d="M103.733 110.533H70.9526V109.079H103.733V110.533Z"/><path fill="#E3E6EA" d="M121.71 113.87H70.9526V112.416H121.71V113.87Z"/><path fill="#E3E6EA" d="M113.184 117.37H70.9526V115.916H113.184V117.37Z"/><path fill="#FF5A5F" d="M163.403 144.087C162.594 144.214 161.789 144.451 161.01 144.811C160.23 145.172 159.528 145.633 158.909 146.167L153.003 148.901L156.63 156.739C158.714 161.24 164.054 163.202 168.557 161.118C173.059 159.033 175.02 153.694 172.936 149.192L169.309 141.354L163.403 144.087Z"/><path fill="#077F7F" d="M169.333 141.405L153.027 148.953L101.895 38.4776L118.202 30.9306L169.333 141.405Z"/><g opacity=".25"><g opacity=".25"><path fill="#384853" d="M169.333 141.405L153.027 148.953L101.895 38.4776L118.202 30.9306L169.333 141.405Z" opacity=".25"/></g></g><path fill="#077F7F" d="M161.18 145.179L164.501 143.642L113.371 33.1671L106.727 36.2419L157.858 146.716L161.18 145.179Z"/><path fill="#EDF9FB" d="M102.929 19.3205L101.882 38.4838L103.985 43.0266L104.514 38.819L108.064 41.1389L108.594 36.93L112.143 39.25L112.673 35.0419L116.225 37.3614L116.754 33.1538L120.304 35.4737L118.202 30.9305L118.215 30.9246L102.929 19.3205Z"/><path fill="#131313" d="M102.93 19.3205L102.58 25.7327L108.044 23.2033L102.93 19.3205Z"/><path fill="#EDF9FB" d="M172.791 148.875L156.484 156.423L152.857 148.586L169.164 141.038L172.791 148.875Z"/><path fill="#CFE4EE" d="M152.858 148.585L156.484 156.422L168.486 150.867C168.486 150.867 161.227 153.473 165.291 148.318C165.291 148.318 151.313 152.829 158.106 146.156L152.858 148.585Z"/><path fill="#CFE4EE" d="M111.094 32.5768C110.528 36.3442 107.396 31.174 107.396 31.174C107.396 31.174 107.148 33.3697 106.008 34.857C105.12 36.0156 103.328 28.8984 102.581 25.6994L101.883 38.4839L103.985 43.0268L104.515 38.8192L108.065 41.1391L108.594 36.9302L112.144 39.2497L112.674 35.0421L116.225 37.3612L116.755 33.1536C115.556 36.6552 111.094 32.5768 111.094 32.5768Z"/><path fill="#FF5A5F" d="M54.2355 150.411C54.0909 148.863 53.2837 147.414 51.921 146.251C46.5226 141.643 41.1287 137.031 35.7332 132.421C33.583 130.583 31.4324 128.747 29.283 126.909C28.8817 126.566 28.8826 126.559 29.2278 126.153C29.5647 125.756 29.9092 125.366 30.2402 124.965C30.4208 124.746 30.5972 124.704 30.8087 124.912C30.8655 124.968 30.9308 125.016 30.9918 125.068C38.5271 131.507 46.0615 137.947 53.5989 144.384C55.2981 145.835 56.3506 147.634 56.7222 149.855C57.4211 154.032 54.5962 158.24 50.4376 159.137C47.7076 159.727 45.3104 158.971 43.1936 157.244C41.7051 156.03 40.2647 154.757 38.8042 153.509C32.4853 148.111 26.1693 142.709 19.8462 137.315C18.7586 136.387 18.0359 135.263 17.8148 133.838C17.686 133.006 17.742 132.181 17.9857 131.382C18.7527 128.865 20.3416 127.098 22.8713 126.291C24.726 125.699 26.4276 126.117 27.9508 127.305C28.0348 127.371 28.1151 127.441 28.1966 127.51C35.2253 133.516 42.2548 139.52 49.2814 145.528C50.6265 146.678 51.243 148.147 51.024 149.905C50.6741 152.712 47.665 154.43 44.8752 153.453C44.3017 153.252 43.7838 152.957 43.3224 152.563C38.93 148.811 34.5398 145.057 30.1428 141.311C29.8711 141.079 29.8205 140.908 30.0801 140.632C30.4551 140.235 30.8058 139.813 31.1481 139.387C31.3458 139.141 31.5226 139.126 31.7383 139.347C31.8215 139.433 31.9197 139.504 32.0113 139.583C36.2812 143.231 40.5535 146.877 44.8184 150.53C45.3773 151.009 45.9959 151.241 46.7291 151.175C48.1064 151.052 48.8889 149.823 48.4123 148.521C48.2581 148.099 48.0094 147.741 47.6666 147.448C40.597 141.409 33.5286 135.368 26.4573 129.329C25.5477 128.552 24.509 128.373 23.3854 128.756C21.6303 129.354 20.1965 131.386 20.273 133.11C20.309 133.929 20.6325 134.603 21.2123 135.166C21.346 135.296 21.4898 135.416 21.6319 135.537C29.1977 142.002 36.7673 148.463 44.3268 154.936C45.5457 155.98 46.8841 156.708 48.5123 156.836C49.0557 156.878 49.5702 156.789 50.0869 156.64C52.8047 155.86 54.4742 153.468 54.2355 150.411Z"/><path fill="#077F7F" d="M41.4492 152.036C40.5095 150.797 39.0603 149.991 37.2888 149.722C30.2727 148.653 23.2574 147.579 16.2417 146.507C13.4461 146.079 10.6505 145.653 7.85492 145.224C7.33284 145.144 7.32991 145.138 7.40892 144.61C7.48625 144.096 7.57361 143.583 7.64341 143.067C7.68103 142.786 7.80894 142.658 8.09861 142.723C8.17636 142.741 8.25662 142.747 8.33604 142.759C18.134 144.257 27.9319 145.756 37.7306 147.251C39.9389 147.588 41.7819 148.562 43.2687 150.252C46.0651 153.433 45.8837 158.498 42.8235 161.453C40.8146 163.394 38.3789 164.015 35.6699 163.664C33.7655 163.418 31.8703 163.096 29.9717 162.806C21.7555 161.55 13.5406 160.291 5.32393 159.042C3.91067 158.827 2.70349 158.253 1.76383 157.158C1.21583 156.52 0.82876 155.789 0.614326 154.982C-0.0611622 152.438 0.356839 150.1 2.08109 148.08C3.3447 146.599 5.01085 146.056 6.93198 146.263C7.03815 146.275 7.14348 146.292 7.24882 146.308C16.3876 147.705 25.5267 149.1 34.6654 150.499C36.4148 150.768 37.7131 151.691 38.4538 153.3C39.6367 155.869 37.9856 158.916 35.1002 159.557C34.507 159.689 33.9109 159.711 33.3107 159.619C27.6008 158.747 21.8909 157.872 16.1794 157.008C15.827 156.955 15.6933 156.835 15.7685 156.465C15.8772 155.929 15.9528 155.386 16.0193 154.843C16.0573 154.53 16.1999 154.424 16.5 154.498C16.6162 154.527 16.737 154.536 16.8557 154.554C22.4076 155.402 27.9599 156.247 33.5105 157.103C34.2378 157.216 34.8857 157.087 35.4743 156.644C36.5795 155.813 36.5966 154.356 35.5044 153.5C35.1516 153.224 34.7515 153.051 34.3055 152.983C25.1137 151.579 15.9227 150.173 6.7305 148.771C5.54756 148.59 4.5707 148.985 3.81788 149.903C2.64163 151.337 2.49533 153.819 3.46885 155.244C3.93157 155.92 4.56192 156.323 5.35152 156.496C5.53377 156.536 5.71894 156.562 5.90328 156.59C15.7413 158.094 25.5798 159.592 35.4157 161.106C37.0021 161.35 38.5232 161.263 39.974 160.513C40.4577 160.263 40.8481 159.916 41.2088 159.517C43.1065 157.421 43.2637 154.507 41.4492 152.036Z"/><path fill="#fff" d="M44.594 142.998L32.7458 132.951C32.5702 132.802 32.5485 132.537 32.6973 132.362C32.8457 132.186 33.1111 132.164 33.2863 132.313L45.1345 142.36C45.31 142.508 45.3318 142.773 45.1834 142.949C45.0346 143.125 44.7691 143.146 44.594 142.998Z"/><path fill="#fff" d="M29.1727 150.912L13.8437 148.39C13.6172 148.353 13.4621 148.137 13.4993 147.91C13.5365 147.683 13.7526 147.528 13.9796 147.565L29.3085 150.087C29.5351 150.124 29.6901 150.34 29.6529 150.567C29.6157 150.794 29.3992 150.949 29.1727 150.912Z"/></svg>