<svg xmlns="http://www.w3.org/2000/svg" width="59" height="18" fill="none" viewBox="0 0 59 18"><path fill="#fff" fill-rule="evenodd" d="M36.5051 13.8684C33.0855 16.389 28.129 17.7338 23.8614 17.7338C17.8777 17.7338 12.4908 15.5206 8.41533 11.8397C8.09521 11.5502 8.38208 11.1558 8.76629 11.3812C13.1645 13.9402 18.6026 15.4797 24.2201 15.4797C28.0086 15.4797 32.1762 14.6958 36.0082 13.0693C36.5871 12.8233 37.0712 13.4483 36.5051 13.8684Z" clip-rule="evenodd"/><path fill="#fff" fill-rule="evenodd" d="M34.0146 1.93651V0.599407C34.0146 0.397035 34.1683 0.261277 34.3527 0.261277H40.339C40.5312 0.261277 40.6849 0.399565 40.6849 0.599407V1.74438C40.6823 1.93651 40.5209 2.18755 40.2341 2.58458L37.132 7.01346C38.2847 6.98533 39.5014 7.15693 40.5465 7.7461C40.7822 7.87927 40.8462 8.07399 40.8642 8.26606V9.69285C40.8642 9.88751 40.649 10.1155 40.4236 9.99767C38.5818 9.032 36.1356 8.92696 34.0992 10.0079C33.8917 10.1207 33.674 9.89522 33.674 9.70055V8.3455C33.674 8.12777 33.6765 7.75634 33.8942 7.42591L37.4881 2.27211H34.3604C34.1683 2.27211 34.0146 2.13635 34.0146 1.93651ZM12.1776 10.2794H10.3563C10.1821 10.2667 10.0438 10.136 10.031 9.96948V0.622475C10.031 0.435462 10.1872 0.286875 10.3819 0.286875H12.0802C12.2569 0.294525 12.3978 0.430342 12.4107 0.599348V1.82129H12.444C12.8871 0.640423 13.7196 0.0897404 14.8415 0.0897404C15.9814 0.0897404 16.6935 0.640423 17.2059 1.82129C17.6464 0.640423 18.648 0.0897404 19.7213 0.0897404C20.4846 0.0897404 21.3197 0.404803 21.8294 1.11178C22.4057 1.89814 22.2879 3.04058 22.2879 4.04214L22.2853 9.94135C22.2853 10.1284 22.1291 10.2795 21.9344 10.2795H20.1157C19.9339 10.2667 19.7878 10.1207 19.7878 9.94135V4.98733C19.7878 4.59282 19.8237 3.60915 19.7367 3.23524C19.6009 2.60765 19.1936 2.43088 18.6659 2.43088C18.2253 2.43088 17.7642 2.72546 17.5772 3.19682C17.3903 3.66818 17.4082 4.45707 17.4082 4.98733V9.94129C17.4082 10.1283 17.2519 10.2794 17.0573 10.2794H15.2386C15.0541 10.2667 14.9107 10.1207 14.9107 9.94129L14.9081 4.98733C14.9081 3.94475 15.0797 2.41046 13.7862 2.41046C12.4773 2.41046 12.5285 3.90633 12.5285 4.98733V9.94129C12.5285 10.1283 12.3722 10.2794 12.1776 10.2794ZM45.8387 0.0896816C48.5411 0.0896816 50.0038 2.4104 50.0038 5.3613C50.0038 8.21228 48.3874 10.4741 45.8386 10.4741C43.1849 10.4741 41.7402 8.15337 41.7402 5.26138C41.7402 2.35149 43.2029 0.0896816 45.8387 0.0896816ZM45.854 1.998C44.5118 1.998 44.4273 3.82694 44.4273 4.96679C44.4273 6.10929 44.4094 8.54782 45.8387 8.54782C47.2501 8.54782 47.3167 6.58059 47.3167 5.38178C47.3167 4.59283 47.2834 3.65017 47.0452 2.90223C46.8403 2.25157 46.433 1.998 45.8541 1.998H45.854ZM53.5079 10.2794H51.6944C51.5125 10.2667 51.3665 10.1207 51.3665 9.94129L51.3639 0.591698C51.3792 0.420103 51.5305 0.286875 51.7148 0.286875H53.4029C53.5617 0.294525 53.6924 0.402213 53.7282 0.548152V1.97753H53.7615C54.2713 0.699328 54.9859 0.0896816 56.2436 0.0896816C57.0608 0.0896816 57.8574 0.384207 58.3697 1.19111C58.8462 1.93904 58.8462 3.19682 58.8462 4.10105V9.98484C58.8257 10.1488 58.6746 10.2794 58.4953 10.2794H56.6689C56.5023 10.2667 56.364 10.1437 56.3461 9.98484V4.90789C56.3461 3.88585 56.464 2.38986 55.2062 2.38986C54.7631 2.38986 54.3558 2.68703 54.1535 3.13785C53.8973 3.70913 53.864 4.27776 53.864 4.90795V9.94129C53.8614 10.1283 53.7026 10.2794 53.5079 10.2794ZM29.2425 5.81471C29.2425 6.52421 29.2604 7.11597 28.9018 7.74604C28.6124 8.25841 28.1513 8.57341 27.6415 8.57341C26.9422 8.57341 26.5324 8.04068 26.5324 7.25426C26.5324 5.70196 27.9233 5.4202 29.2425 5.4202V5.81471ZM31.0791 10.2538C30.9587 10.3614 30.7845 10.3691 30.6488 10.2974C30.0443 9.7953 29.9341 9.56221 29.6037 9.0832C28.6046 10.1027 27.8951 10.4075 26.6015 10.4075C25.0672 10.4075 23.8761 9.46229 23.8761 7.56938C23.8761 6.09134 24.6753 5.08466 25.8177 4.59282C26.8065 4.15736 28.1871 4.08051 29.2425 3.96011V3.72449C29.2425 3.29156 29.2758 2.77925 29.0196 2.40528C28.7994 2.06974 28.3741 1.93139 27.9976 1.93139C27.3034 1.93139 26.6861 2.28741 26.535 3.02516C26.5042 3.18911 26.3838 3.35047 26.2173 3.35817L24.4524 3.16863C24.3039 3.13532 24.1373 3.01492 24.1809 2.78695C24.5856 0.645542 26.5221 0 28.2538 0C29.1401 0 30.2979 0.235679 30.9972 0.906819C31.8834 1.7342 31.7989 2.83815 31.7989 4.03955V6.8777C31.7989 7.73074 32.1525 8.10465 32.4854 8.56576C32.6008 8.72971 32.6263 8.92696 32.4778 9.04989C32.1063 9.35983 31.4454 9.93617 31.0817 10.2589L31.0792 10.2538H31.0791ZM5.36642 5.81471C5.36642 6.52421 5.38436 7.11597 5.0257 7.74604C4.73629 8.25841 4.27776 8.57341 3.76545 8.57341C3.06618 8.57341 2.65885 8.04068 2.65885 7.25426C2.65885 5.70196 4.04979 5.4202 5.36642 5.4202V5.81471ZM7.20301 10.2538C7.08266 10.3614 6.90848 10.3691 6.77272 10.2974C6.1682 9.7953 6.06057 9.56221 5.72761 9.0832C4.72858 10.1027 4.02166 10.4075 2.72546 10.4075C1.19369 10.4075 0 9.46229 0 7.56938C0 6.09134 0.801779 5.08466 1.94163 4.59282C2.93042 4.15736 4.31107 4.08051 5.36642 3.96011V3.72449C5.36642 3.29156 5.39972 2.77925 5.1461 2.40528C4.92325 2.06974 4.49808 1.93139 4.12406 1.93139C3.42991 1.93139 2.81002 2.28741 2.65885 3.02516C2.62813 3.18911 2.50773 3.35047 2.34378 3.35817L0.576339 3.16863C0.427753 3.13532 0.263866 3.01492 0.304823 2.78695C0.712097 0.645542 2.64608 0 4.37768 0C5.26391 0 6.42176 0.235679 7.12109 0.906819C8.00731 1.7342 7.92281 2.83815 7.92281 4.03955V6.8777C7.92281 7.73074 8.2763 8.10465 8.60931 8.56576C8.72718 8.72971 8.75278 8.92696 8.60419 9.04989C8.23275 9.35983 7.57191 9.93617 7.20818 10.2589L7.20306 10.2538" clip-rule="evenodd"/></svg>