<svg xmlns="http://www.w3.org/2000/svg" width="68" height="19" fill="none" viewBox="0 0 68 19"><path fill="#fff" d="M18.9753 0.0632801C19.542 -0.0222334 20.1941 -0.0756841 20.6751 0.277083C20.9744 0.501522 21.0813 0.907739 21.0599 1.2713C21.0813 1.86993 20.8034 2.51138 20.269 2.82145C19.7985 3.07803 19.232 3.0993 18.7081 3.04589C18.3553 3.00319 18.0025 2.81081 17.8208 2.49007C17.4145 1.55998 17.9169 0.245021 18.9753 0.0632801ZM2.02004 0.736791C2.05206 0.416048 2.34074 0.127405 2.67212 0.138158C5.14173 0.138158 7.60055 0.148793 10.0594 0.138158C10.3267 0.11677 10.6153 0.234307 10.7435 0.469498C10.9252 0.790242 10.7649 1.14301 10.7435 1.47447C10.6688 1.92338 10.6901 2.52213 10.1663 2.69312C8.37029 2.74657 6.57423 2.69312 4.77817 2.71451C4.60715 3.84765 4.4468 4.97016 4.27569 6.09266C4.27569 6.13544 4.28644 6.23174 4.28644 6.27436C5.60136 6.26373 6.91628 6.27436 8.2312 6.26373C8.59472 6.24234 8.97952 6.55249 8.94745 6.93724C8.91543 7.33282 8.82987 7.71765 8.77646 8.11323C8.73361 8.38045 8.51984 8.62635 8.24188 8.6798C6.77724 8.71187 5.29121 8.64774 3.82673 8.71187C3.59146 10.3261 3.31349 11.9403 3.06759 13.5547C3.0356 13.8754 2.77895 14.1534 2.45824 14.164C1.84894 14.1747 1.2395 14.1747 0.630204 14.164C0.234661 14.1747 -0.0860854 13.7363 0.0207771 13.3622C0.673096 9.15026 1.34657 4.94892 2.02004 0.736791ZM12.8816 0.159429C13.4376 0.116731 14.0041 0.148793 14.5601 0.138158C14.9022 0.11677 15.2443 0.383985 15.2763 0.736791C15.2763 1.01468 15.2015 1.29269 15.1694 1.57062C14.7204 4.43573 14.2607 7.30084 13.8117 10.1659C13.7475 10.6256 13.63 11.1173 13.769 11.5877C13.9293 12.0581 14.6455 11.8549 14.8166 12.3467C14.9235 12.7423 14.8058 13.1592 14.7738 13.5654C14.7418 14.1 14.1324 14.2175 13.7155 14.3353C12.8069 14.5063 11.7056 14.378 11.0535 13.6295C10.5831 13.0844 10.551 12.3146 10.6473 11.6305C11.2139 7.99574 11.7805 4.36097 12.3578 0.715403C12.3899 0.44811 12.6037 0.202244 12.8816 0.159429ZM34.1024 0.736791C34.1344 0.416048 34.4231 0.138158 34.7439 0.138158H36.3688C36.7751 0.127405 37.1066 0.565764 37.0103 0.950555C36.6361 3.32389 36.2513 5.69724 35.8771 8.07042C36.4437 7.98494 37.0852 7.87804 37.4807 7.41837C38.1435 6.66994 38.6888 5.80418 39.095 4.89547C39.2339 4.54263 39.3088 4.02951 39.7685 3.96534C40.3779 3.94396 40.9979 3.95463 41.6073 3.96534C42.0242 3.95463 42.3342 4.42501 42.1952 4.80984C42.0349 5.37657 41.7676 5.90032 41.4897 6.40281C40.8696 7.40774 40.1855 8.40191 39.2874 9.193C39.6829 10.3796 40.1855 11.5342 40.6237 12.6996C40.752 13.0844 41.0621 13.5333 40.7734 13.9076C40.4419 14.3566 39.8219 14.132 39.3622 14.1854C38.8811 14.132 38.1863 14.3779 37.919 13.8327C37.4165 12.6674 36.9997 11.4702 36.4864 10.3048C36.1871 10.3154 35.8771 10.3262 35.5777 10.2942C35.5564 10.3369 35.5136 10.4224 35.4922 10.4652C35.3318 11.5342 35.1608 12.6033 34.9897 13.6723C34.9255 13.9289 34.7224 14.1534 34.4445 14.1748C33.878 14.1962 33.3006 14.1854 32.7234 14.1854C32.4774 14.1854 32.253 14.0251 32.146 13.8113C32.0391 13.5974 32.1032 13.3516 32.1354 13.1165C32.7982 8.98987 33.4503 4.86329 34.1024 0.736791ZM63.8115 1.90207C63.8864 1.60264 64.175 1.39959 64.4744 1.41022C64.9021 1.42098 65.3403 1.39959 65.7786 1.42098C66.1314 1.43161 66.4094 1.78442 66.3665 2.12651C66.3024 2.7359 66.1527 3.34528 66.11 3.95455C66.5269 3.95455 66.9545 3.94392 67.3715 3.95455C67.7457 3.95455 68.0557 4.33946 67.9915 4.70286C67.938 5.0344 67.8632 5.35514 67.8097 5.6864C67.7563 5.96445 67.5212 6.18893 67.2539 6.23167C66.7407 6.26373 66.2383 6.21028 65.7358 6.26373C65.522 7.69618 65.2868 9.12868 65.0623 10.5614C65.0302 10.8928 65.0089 11.2669 65.2013 11.5556C65.49 11.9084 65.9923 11.78 66.3987 11.8228C66.7194 11.919 66.9225 12.2719 66.869 12.5927C66.8155 12.956 66.8049 13.3195 66.7194 13.6723C66.5911 14.0678 66.1314 14.1427 65.7785 14.2388C64.8057 14.4955 63.6832 14.4955 62.8174 13.9289C62.0156 13.3836 61.8872 12.3252 61.9727 11.4272C62.1972 9.69533 62.5501 7.97419 62.7425 6.23163C62.4432 6.24226 62.0796 6.28508 61.8552 6.01778C61.5986 5.75057 61.7269 5.35499 61.7697 5.02349C61.8339 4.67072 61.8231 4.21105 62.208 4.0186C62.518 3.90095 62.8708 3.98658 63.2022 3.94376C63.4053 3.25969 63.5977 2.57555 63.8115 1.90207ZM57.7714 5.36574C58.4449 4.69223 59.2573 4.13633 60.1874 3.85844C60.5936 3.67666 61.1175 4.01879 61.1069 4.46779C61.032 5.05579 60.893 5.63299 60.7968 6.21028C60.7539 6.49896 60.5081 6.74486 60.2194 6.77692C59.1718 6.95859 58.2631 7.58924 57.5361 8.33767C57.3544 8.56227 57.0871 8.77603 57.0551 9.08602C56.8306 10.5827 56.5954 12.0794 56.3602 13.576C56.3282 13.8967 56.0501 14.2069 55.7188 14.1855H54.0937C53.7196 14.2069 53.3882 13.8327 53.431 13.4585C53.9014 10.4972 54.3718 7.54666 54.8315 4.58529C54.8528 4.28601 55.0667 3.99737 55.3766 3.96527C55.7722 3.94388 56.1677 3.95455 56.574 3.95455C56.8947 3.95455 57.194 4.24319 57.194 4.57465C57.194 5.03432 57.1513 5.50466 57.1406 5.97505C57.3972 5.81481 57.5576 5.55819 57.7714 5.36574ZM17.81 4.00804C18.3873 3.8905 18.986 3.98673 19.5632 3.95459C19.8947 3.91189 20.2475 4.12566 20.3009 4.45711C20.3437 4.75639 20.2581 5.04507 20.226 5.33375C19.7878 8.08129 19.3494 10.8287 18.9217 13.5762C18.8897 13.8863 18.6332 14.1963 18.3017 14.1855C17.7245 14.1855 17.1472 14.1963 16.5592 14.1749C16.1957 14.1321 15.9284 13.7152 16.0247 13.3624C16.4844 10.5081 16.9228 7.66432 17.3824 4.80988C17.4038 4.49985 17.4893 4.13633 17.81 4.00804ZM52.4047 4.14712C50.8117 3.84769 49.1869 3.63389 47.5725 3.79424C46.1293 3.97602 44.6754 4.62818 43.7881 5.81481C42.5587 7.3756 42.1417 9.47101 42.4196 11.4167C42.5694 12.3468 42.9755 13.2876 43.7346 13.8648C44.4402 14.4101 45.3917 14.4848 46.2469 14.3459C47.4442 14.1106 48.4598 13.3411 49.2937 12.4858C49.3364 12.8492 49.2509 13.2127 49.2723 13.5655C49.2937 13.8968 49.593 14.2069 49.9244 14.1855H51.0149C51.3356 14.1855 51.6029 13.8863 51.6243 13.5761C52.084 10.679 52.5437 7.79249 52.9927 4.90611C53.0567 4.54259 52.7682 4.18982 52.4047 4.14712ZM49.4007 9.18233C48.973 9.98413 48.3743 10.7111 47.7008 11.331C47.316 11.6518 46.8242 11.9832 46.3004 11.8764C45.7872 11.7695 45.5413 11.235 45.4238 10.7752C45.1565 9.57791 45.4024 8.27359 46.0758 7.23667C46.3752 6.7555 46.8563 6.3921 47.4122 6.24238C48.1926 6.04992 49.0158 6.14615 49.7749 6.35995L49.8176 6.40281C49.7214 7.33282 49.5396 8.25224 49.4007 9.18233ZM31.4191 7.57877C31.4084 6.50967 31.1198 5.38721 30.3715 4.58537C29.8584 4.0188 29.0886 3.73015 28.3403 3.74075C27.1001 3.69809 25.9349 4.30748 25.0262 5.11987C24.823 5.2803 24.6841 5.51549 24.4596 5.64374C24.4596 5.29086 24.4917 4.93813 24.4809 4.57469C24.4917 4.24319 24.1816 3.95459 23.8609 3.95459H22.7704C22.4284 3.95459 22.1504 4.25399 22.129 4.58533C21.4555 8.86158 20.7714 13.1378 20.0978 17.4141C20.0017 17.8096 20.3438 18.2159 20.75 18.2051C21.3487 18.1945 21.958 18.2479 22.546 18.1623C23.0164 18.034 23.0057 17.4888 23.0806 17.0933C23.2515 16.1525 23.3692 15.2117 23.4761 14.2602C25.5821 14.6664 28.0303 14.3886 29.6018 12.7956C30.8846 11.3953 31.4832 9.46026 31.4191 7.57877ZM28.4258 8.65846C28.3617 9.642 28.0089 10.6363 27.3247 11.3524C26.4374 12.1971 25.0903 12.0794 23.9999 11.7909C23.9786 11.7587 23.9464 11.6946 23.9358 11.6626C24.1068 10.7325 24.1923 9.79167 24.4062 8.8723C25.0049 7.88883 25.7317 6.8945 26.7687 6.34936C27.1536 6.16766 27.6774 6.21039 27.9554 6.5632C28.4258 7.15116 28.4686 7.94225 28.4258 8.65846Z"/></svg>