<svg xmlns="http://www.w3.org/2000/svg" width="61" height="20" fill="none" viewBox="0 0 61 20"><path fill="#fff" d="M26.0056 10.3137C26.0056 13.133 23.7541 15.2104 20.9911 15.2104C18.228 15.2104 15.9766 13.133 15.9766 10.3137C15.9766 7.47459 18.228 5.41699 20.9911 5.41699C23.7541 5.41699 26.0056 7.47459 26.0056 10.3137ZM23.8105 10.3137C23.8105 8.55196 22.5056 7.34654 20.9911 7.34654C19.4766 7.34654 18.1717 8.55196 18.1717 10.3137C18.1717 12.0578 19.4766 13.2809 20.9911 13.2809C22.5056 13.2809 23.8105 12.0556 23.8105 10.3137Z"/><path fill="#fff" d="M36.822 10.3137C36.822 13.133 34.5705 15.2104 31.8075 15.2104C29.0444 15.2104 26.793 13.133 26.793 10.3137C26.793 7.4768 29.0444 5.41699 31.8075 5.41699C34.5705 5.41699 36.822 7.47459 36.822 10.3137ZM34.6269 10.3137C34.6269 8.55196 33.322 7.34654 31.8075 7.34654C30.293 7.34654 28.9881 8.55196 28.9881 10.3137C28.9881 12.0578 30.293 13.2809 31.8075 13.2809C33.322 13.2809 34.6269 12.0556 34.6269 10.3137Z"/><path fill="#fff" d="M47.1883 5.71283V14.504C47.1883 18.1202 45.0112 19.5972 42.4374 19.5972C40.0147 19.5972 38.5565 18.0098 38.0066 16.7117L39.9178 15.9324C40.2581 16.7294 41.092 17.6699 42.4352 17.6699C44.0827 17.6699 45.1036 16.6742 45.1036 14.7998V14.0955H45.027C44.5356 14.6894 43.5891 15.2082 42.3946 15.2082C39.8952 15.2082 37.6055 13.0756 37.6055 10.3314C37.6055 7.56731 39.8952 5.41699 42.3946 5.41699C43.5868 5.41699 44.5334 5.93581 45.027 6.51202H45.1036V5.71503H47.1883V5.71283ZM45.2591 10.3314C45.2591 8.60715 44.0849 7.34654 42.5907 7.34654C41.0762 7.34654 39.8074 8.60715 39.8074 10.3314C39.8074 12.038 41.0762 13.2809 42.5907 13.2809C44.0849 13.2809 45.2591 12.038 45.2591 10.3314Z"/><path fill="#fff" d="M50.6254 0.556641V14.9068H48.4844V0.556641H50.6254Z"/><path fill="#fff" d="M58.9684 11.9246L60.6722 13.0373C60.1223 13.8343 58.7971 15.2075 56.5073 15.2075C53.6676 15.2075 51.5469 13.0572 51.5469 10.3108C51.5469 7.39881 53.6857 5.41406 56.2617 5.41406C58.8557 5.41406 60.1245 7.43634 60.5392 8.52916L60.7668 9.08551L54.0846 11.7966C54.5962 12.779 55.3917 13.2802 56.5073 13.2802C57.6252 13.2802 58.4004 12.7415 58.9684 11.9246ZM53.724 10.1629L58.1908 8.34592C57.9452 7.73438 57.206 7.30829 56.336 7.30829C55.2204 7.30829 53.6676 8.27306 53.724 10.1629Z"/><path fill="#fff" d="M7.87223 9.03842V6.96095H15.0188C15.0886 7.32302 15.1247 7.75132 15.1247 8.21494C15.1247 9.77359 14.6897 11.7009 13.2879 13.0741C11.9244 14.465 10.1823 15.2068 7.87449 15.2068C3.59693 15.2068 0 11.7937 0 7.6034C0 3.41314 3.59693 0 7.87449 0C10.2409 0 11.9267 0.909582 13.1933 2.09513L11.6968 3.56106C10.7885 2.72654 9.55801 2.07747 7.87223 2.07747C4.74858 2.07747 2.30555 4.54349 2.30555 7.6034C2.30555 10.6633 4.74858 13.1293 7.87223 13.1293C9.89833 13.1293 11.0522 12.3323 11.7914 11.6082C12.3909 11.021 12.7853 10.182 12.9408 9.03621L7.87223 9.03842Z"/></svg>