<svg xmlns="http://www.w3.org/2000/svg" width="63" height="19" fill="none" viewBox="0 0 63 19"><path fill="#fff" d="M42.3054 18.0828H40.6413C40.3033 18.0828 40.0442 17.901 40.0188 17.5636L39.9923 16.913C38.7957 17.8761 37.366 18.3952 35.8581 18.3952C32.9469 18.3952 31.7517 16.5508 31.7517 13.7419V6.05296C31.7517 5.61077 32.0115 5.45466 32.4261 5.45466H34.2467C34.6631 5.45466 34.8973 5.58399 34.8973 6.05296V13.1956C34.8973 14.6259 35.261 15.6132 36.8214 15.6132C37.8077 15.6132 39.0564 15.068 39.8364 14.366V6.05296C39.8364 5.61077 40.0708 5.45466 40.4854 5.45466H42.3312C42.7477 5.45466 42.9821 5.58399 42.9821 6.05296V17.3555C42.9818 17.901 42.8247 18.0828 42.3054 18.0828ZM0 5.97325C0 5.66213 0.15627 5.45403 0.467709 5.45403H2.66684C2.97859 5.45403 3.16054 5.63613 3.16054 5.97325V17.433C3.16054 17.901 2.95165 18.0828 2.51072 18.0828H0.676122C0.209673 18.0828 0 17.901 0 17.433V5.97325ZM46.2343 5.97325C46.2343 5.66213 46.3914 5.45403 46.7025 5.45403H48.9015C49.2139 5.45403 49.3958 5.63613 49.3958 5.97325V17.433C49.3958 17.901 49.1876 18.0828 48.745 18.0828H46.9104C46.4438 18.0828 46.2343 17.901 46.2343 17.433V5.97325ZM17.0952 18.0828H15.2238C14.7561 18.0828 14.6003 17.8492 14.6003 17.4067V10.3356C14.6003 8.90663 14.211 7.89245 12.6244 7.89245C11.6102 7.89245 10.363 8.43939 9.55723 9.14025V17.4328C9.55723 17.876 9.37513 18.0826 8.93404 18.0826H7.03564C6.64559 18.0826 6.41134 17.876 6.41134 17.459V6.10699C6.41134 5.6908 6.59455 5.45718 7.06179 5.45718H8.75067C9.11441 5.45718 9.34976 5.56068 9.37497 5.95057L9.40065 6.64449C10.5974 5.68339 12.1051 5.13787 13.613 5.13787C16.5245 5.13787 17.72 6.95719 17.72 9.79069V17.4067C17.7198 17.8492 17.5644 18.0828 17.0952 18.0828ZM26.3601 1.90691C26.3601 0.853817 25.5071 0 24.4538 0C23.4012 0 22.5469 0.853817 22.5469 1.90691C22.5469 2.96 23.4013 3.81287 24.4538 3.81287C25.5071 3.81287 26.3601 2.96 26.3601 1.90691ZM29.0732 5.45403C29.385 5.45403 29.5671 5.55753 29.5671 5.8959V7.72657C29.5671 8.03832 29.3595 8.22043 29.0469 8.22043H26.0342V17.4328C26.0342 17.9008 25.8264 18.0826 25.358 18.0826H23.5491C23.0811 18.0826 22.8736 17.9008 22.8736 17.4328V8.22043H19.8601C19.5483 8.22043 19.3404 8.03832 19.3404 7.72657V5.8959C19.3404 5.55753 19.5222 5.45403 19.8344 5.45403H29.0732ZM58.6194 1.90691C58.6194 0.853817 57.7656 0 56.7125 0C55.6599 0 54.806 0.853817 54.806 1.90691C54.806 2.96 55.6599 3.81287 56.7125 3.81287C57.7656 3.81287 58.6194 2.96 58.6194 1.90691ZM61.3324 5.45403C61.6435 5.45403 61.8253 5.55753 61.8253 5.8959V7.72657C61.8253 8.03832 61.6181 8.22043 61.3053 8.22043H58.2925V17.4328C58.2925 17.9008 58.0854 18.0826 57.617 18.0826H55.8076C55.3394 18.0826 55.1321 17.9008 55.1321 17.4328L55.1315 8.22043H52.1195C51.807 8.22043 51.5989 8.03832 51.5989 7.72657V5.8959C51.5989 5.55753 51.7815 5.45403 52.0924 5.45403H61.3324ZM62.1561 16.4806C62.6156 16.4806 63 16.8427 63 17.3178C63 17.8013 62.6156 18.1644 62.1561 18.1644C61.6945 18.1644 61.3075 17.8013 61.3075 17.3178C61.3077 16.8427 61.6947 16.4806 62.1561 16.4806ZM62.1561 18.0409C62.546 18.0409 62.8474 17.7304 62.8474 17.3178C62.8474 16.9152 62.546 16.6041 62.1561 16.6041C61.762 16.6041 61.4601 16.9153 61.4601 17.3178C61.4601 17.7306 61.762 18.0409 62.1561 18.0409ZM61.8275 16.8293H62.2075C62.4419 16.8293 62.5525 16.9216 62.5525 17.1111C62.5525 17.2881 62.4405 17.3635 62.2933 17.3788L62.5751 17.8136H62.4104L62.1427 17.3897H61.9803V17.8136H61.8273V16.8293H61.8275ZM61.9803 17.266H62.1405C62.2757 17.266 62.3992 17.2597 62.3992 17.1044C62.3992 16.9735 62.2872 16.9536 62.1834 16.9536H61.9805V17.266H61.9803Z"/></svg>