<svg xmlns="http://www.w3.org/2000/svg" width="81" height="17" fill="none" viewBox="0 0 81 17"><path fill="#fff" d="M28.5129 9.70375L28.0314 11.0359H27.9913C27.911 10.7355 27.7639 10.2784 27.5232 9.72988L24.9419 3.39557H22.4141V13.4913H24.0859V7.26145C24.0859 6.86964 24.0859 6.42559 24.0725 5.87705C24.0591 5.60278 24.0324 5.39381 24.019 5.23709H24.0591C24.1394 5.6289 24.233 5.91623 24.2999 6.09908L27.4028 13.4652H28.5798L31.6559 6.03377C31.7228 5.86399 31.7897 5.52442 31.8565 5.23709H31.8967C31.8565 5.98153 31.8298 6.64761 31.8164 7.05249V13.4521H33.5952V3.36944H31.1611L28.5129 9.70375ZM35.2804 6.21662H37.0191V13.4521H35.2804V6.21662ZM36.1632 3.16048C35.8689 3.16048 35.6282 3.26496 35.4275 3.44781C35.2269 3.63065 35.1199 3.86574 35.1199 4.15307C35.1199 4.42734 35.2269 4.66243 35.4275 4.84527C35.6282 5.02812 35.8689 5.11954 36.1632 5.11954C36.4574 5.11954 36.7115 5.01506 36.8988 4.84527C37.0994 4.66243 37.2064 4.42734 37.2064 4.15307C37.2064 3.8788 37.0994 3.64371 36.8988 3.44781C36.7249 3.26496 36.4708 3.16048 36.1632 3.16048ZM43.1848 6.15132C42.8638 6.08601 42.5295 6.04683 42.2085 6.04683C41.4194 6.04683 40.6971 6.21662 40.0953 6.55619C39.4934 6.89576 39.0119 7.36594 38.7043 7.95366C38.3833 8.55444 38.2228 9.24664 38.2228 10.0433C38.2228 10.7355 38.3833 11.3494 38.691 11.911C38.9986 12.4595 39.4266 12.9036 40.0017 13.204C40.55 13.5043 41.192 13.6611 41.9142 13.6611C42.7435 13.6611 43.4523 13.4913 44.014 13.1778L44.0274 13.1648V11.5975L43.9605 11.6498C43.7064 11.8326 43.4122 11.9893 43.1179 12.0808C42.8103 12.1852 42.5295 12.2375 42.2887 12.2375C41.5932 12.2375 41.0449 12.0416 40.657 11.6106C40.2558 11.1926 40.0552 10.618 40.0552 9.89966C40.0552 9.15522 40.2558 8.5675 40.6704 8.1365C41.085 7.70551 41.6334 7.48348 42.3021 7.48348C42.8638 7.48348 43.4389 7.66633 43.9605 8.03202L44.0274 8.08426V6.42559L44.014 6.41253C43.7867 6.3211 43.5326 6.21662 43.1848 6.15132ZM48.9225 6.09908C48.4945 6.09908 48.0933 6.22968 47.7456 6.50395C47.4513 6.73904 47.2507 7.07861 47.0768 7.48348H47.0635V6.21662H45.3248V13.4521H47.0635V9.756C47.0635 9.1291 47.1972 8.60668 47.4914 8.22793C47.7857 7.83611 48.1602 7.64021 48.6149 7.64021C48.7754 7.64021 48.9359 7.67939 49.1365 7.70551C49.3238 7.75775 49.4575 7.80999 49.5511 7.87529L49.618 7.92754V6.22968L49.5779 6.21662C49.4575 6.13826 49.2168 6.09908 48.9225 6.09908ZM53.6571 6.05989C52.44 6.05989 51.4637 6.41253 50.7816 7.10473C50.0861 7.79693 49.7517 8.75034 49.7517 9.9519C49.7517 11.0751 50.0995 11.9893 50.7682 12.6554C51.437 13.3084 52.3464 13.648 53.4833 13.648C54.6736 13.648 55.6232 13.2954 56.3053 12.5901C57.0008 11.8848 57.3352 10.9445 57.3352 9.78212C57.3352 8.6328 57.0142 7.71857 56.3588 7.05249C55.7302 6.3864 54.8074 6.05989 53.6571 6.05989ZM55.0481 11.6236C54.7271 12.0285 54.2189 12.2244 53.5903 12.2244C52.9617 12.2244 52.4534 12.0285 52.0923 11.5975C51.7312 11.1926 51.5573 10.6049 51.5573 9.86048C51.5573 9.08991 51.7446 8.50219 52.0923 8.08426C52.4534 7.66633 52.9483 7.45736 53.5769 7.45736C54.1921 7.45736 54.6736 7.65327 55.0213 8.05814C55.3691 8.46301 55.5563 9.05073 55.5563 9.8213C55.5296 10.6049 55.3825 11.2188 55.0481 11.6236ZM61.2138 9.22052C60.6654 8.99849 60.3177 8.82871 60.1572 8.68504C60.0234 8.55444 59.9566 8.37159 59.9566 8.1365C59.9566 7.9406 60.0368 7.74469 60.2374 7.61408C60.4381 7.48348 60.6654 7.41818 60.9998 7.41818C61.294 7.41818 61.6016 7.47042 61.8959 7.54878C62.1901 7.62715 62.4576 7.74469 62.6716 7.90141L62.7385 7.95366V6.36028L62.6984 6.34722C62.4977 6.26886 62.2303 6.1905 61.9093 6.1252C61.5883 6.07295 61.294 6.04683 61.0533 6.04683C60.2241 6.04683 59.542 6.24274 59.007 6.67373C58.472 7.07861 58.2179 7.62715 58.2179 8.26711C58.2179 8.60668 58.2714 8.90707 58.3917 9.15522C58.5121 9.40336 58.686 9.63845 58.9267 9.83436C59.1675 10.0172 59.5152 10.2262 59.9967 10.4221C60.3979 10.5919 60.7055 10.7225 60.8928 10.827C61.08 10.9314 61.2004 11.049 61.294 11.1404C61.3609 11.2449 61.401 11.3755 61.401 11.5453C61.401 12.0285 61.0265 12.2636 60.2642 12.2636C59.9699 12.2636 59.6623 12.2114 59.3012 12.0938C58.9401 11.9763 58.6057 11.8065 58.3249 11.6106L58.258 11.5583V13.217L58.2981 13.2301C58.5522 13.3476 58.8599 13.426 59.2343 13.5174C59.6088 13.5827 59.9432 13.6349 60.2374 13.6349C61.1335 13.6349 61.8691 13.439 62.3908 13.008C62.9257 12.5901 63.2066 12.0546 63.2066 11.3624C63.2066 10.8792 63.0729 10.4482 62.7786 10.1217C62.3907 9.80824 61.9093 9.48173 61.2138 9.22052ZM67.7941 6.05989C66.577 6.05989 65.6007 6.41253 64.9185 7.10473C64.2364 7.79693 63.8887 8.75034 63.8887 9.9519C63.8887 11.0751 64.2364 11.9893 64.9052 12.6554C65.5739 13.3084 66.4834 13.648 67.6202 13.648C68.8106 13.648 69.7602 13.2954 70.4423 12.5901C71.1377 11.8848 71.4721 10.9445 71.4721 9.78212C71.4721 8.6328 71.1511 7.71857 70.4958 7.05249C69.8671 6.3864 68.9443 6.05989 67.7941 6.05989ZM69.1717 11.6236C68.8507 12.0285 68.3424 12.2244 67.7138 12.2244C67.0719 12.2244 66.577 12.0285 66.2159 11.5975C65.8548 11.1926 65.6809 10.6049 65.6809 9.86048C65.6809 9.08991 65.8681 8.50219 66.2159 8.08426C66.577 7.66633 67.0719 7.45736 67.7005 7.45736C68.3023 7.45736 68.7972 7.65327 69.1449 8.05814C69.4927 8.46301 69.6799 9.05073 69.6799 9.8213C69.6799 10.6049 69.506 11.2188 69.1717 11.6236ZM80.7675 7.61408V6.21662H79.0154V4.07471L78.9619 4.08777L77.3034 4.571L77.2633 4.58406V6.21662H74.6419V5.30239C74.6419 4.88445 74.7489 4.55794 74.9361 4.34898C75.1234 4.14001 75.4042 4.03553 75.752 4.03553C75.9927 4.03553 76.2468 4.08777 76.5277 4.20531L76.5946 4.24449V2.76866L76.5545 2.7556C76.3137 2.67724 75.9927 2.625 75.5781 2.625C75.0565 2.625 74.6018 2.74254 74.1871 2.93845C73.7725 3.16048 73.4649 3.46087 73.2375 3.86574C73.0102 4.25755 72.8898 4.70161 72.8898 5.21097V6.21662H71.6727V7.60102H72.8898V13.4521H74.6419V7.61408H77.2633V11.3363C77.2633 12.8644 77.9989 13.6349 79.4701 13.6349C79.7109 13.6349 79.965 13.5958 80.2057 13.5566C80.4598 13.5043 80.6471 13.439 80.7541 13.3868L80.7675 13.3737V11.9763L80.7006 12.0285C80.5936 12.0938 80.5 12.1461 80.3395 12.1852C80.2057 12.2244 80.0853 12.2375 79.9917 12.2375C79.644 12.2375 79.4032 12.1591 79.2294 11.9632C79.0689 11.7804 78.9886 11.48 78.9886 11.0359V7.61408H80.7675Z"/><path fill="#fff" d="M0 0H8.19863V8.00605H0V0Z"/><path fill="#fff" d="M9.05469 0H17.2533V8.00605H9.05469V0Z"/><path fill="#fff" d="M0 8.8418H8.19863V16.8478H0V8.8418Z"/><path fill="#fff" d="M9.05469 8.8418H17.2533V16.8478H9.05469V8.8418Z"/></svg>