<svg width="320" height="261" viewBox="0 0 320 261" fill="none" xmlns="http://www.w3.org/2000/svg">
<path opacity="0.24" d="M104.193 4.25908C82.2701 13.0282 69.5483 35.5603 52.9546 52.4863C43.4385 62.2158 32.4058 70.2467 22.622 79.694C12.8383 89.1414 4.1846 100.461 1.21082 113.786C-4.44531 139.043 11.3217 163.712 15.4493 189.269C16.7637 197.432 16.9005 205.853 19.5233 213.68C21.599 219.874 25.1676 225.474 29.2952 230.486C46.0138 250.929 72.7718 262.579 98.9827 260.827C116.272 259.668 132.884 253.096 150.221 252.37C176.349 251.271 202.72 263.516 228.063 257.027C239.75 254.026 250.098 247.274 260.043 240.395C279.777 226.741 300.319 209.995 304.905 186.292C308.271 168.886 302.276 150.537 306.457 133.317C308.884 123.324 314.588 114.446 317.597 104.615C323.991 83.7695 317.163 60.055 302.597 43.9273C288.032 27.7995 266.656 18.8923 245.114 17.0016C230.989 15.7592 216.774 17.3258 202.595 17.0497C167.992 16.4134 140.098 -10.1041 104.193 4.25908Z" fill="#D1EAF6" fill-opacity="0.7"/>
<circle cx="165" cy="134" r="50" fill="#4CAF50"/>
<circle cx="74.4951" cy="72.4951" r="3.49515" fill="#FCD933"/>
<circle cx="76.1172" cy="140.99" r="4.66019" fill="#F0633B"/>
<circle cx="53.0777" cy="194.078" r="4.07767" fill="#FCD933"/>
<circle cx="147.078" cy="229.078" r="4.07767" fill="#04B2E3"/>
<circle cx="197.408" cy="198.408" r="6.40777" fill="#F0633B"/>
<circle cx="260.194" cy="178.272" r="5.82524" fill="#04B2E3"/>
<circle cx="232.816" cy="106.621" r="4.07767" fill="#4CAF50"/>
<circle cx="227.243" cy="55.2427" r="5.24272" fill="#FCD933"/>
<circle cx="118.243" cy="65.2427" r="5.24272" fill="#4CAF50"/>
<circle cx="132.66" cy="27.6602" r="4.66019" fill="#04B2E3"/>
<rect x="158" y="57.7256" width="28.328" height="3.49515" rx="1.74757" transform="rotate(-44.1332 158 57.7256)" fill="#FF2323"/>
<rect x="42.3301" y="118.774" width="25.4951" height="3.49515" rx="1.74757" transform="rotate(-44.1332 42.3301 118.774)" fill="#FF2323"/>
<rect x="93.5918" y="222.821" width="18.9977" height="3.49515" rx="1.74757" transform="rotate(-44.1332 93.5918 222.821)" fill="#4CAF50"/>
<rect x="222" y="226.127" width="28.9047" height="3.49515" rx="1.74757" transform="rotate(-44.1332 222 226.127)" fill="#FF2323"/>
<rect x="269" y="118.563" width="22.3498" height="3.49515" rx="1.74757" transform="rotate(-44.1332 269 118.563)" fill="#F0633B"/>
<path d="M144 132.5L159 147L185.5 121" stroke="white" stroke-width="6" stroke-linecap="round" stroke-linejoin="round"/>
</svg>
