<svg xmlns="http://www.w3.org/2000/svg" width="128" height="136" fill="none" style="">
  <rect id="backgroundrect" width="100%" height="100%" x="0" y="0" fill="none" stroke="none" />


  <mask id="mask0_528_1101" style="mask-type:alpha" maskUnits="userSpaceOnUse" x="0" y="88" width="15" height="20">
    <path d="M0.100098 88.3544H14.834V107.632H0.100098V88.3544Z" fill="white" id="svg_1" />
  </mask>


  <mask id="mask1_528_1101" style="mask-type:alpha" maskUnits="userSpaceOnUse" x="67" y="121" width="33" height="15">
    <path d="M67.6108 121.22H99.5945V135.702H67.6108V121.22Z" fill="white" id="svg_2" />
  </mask>

  <mask id="mask2_528_1101" style="mask-type:alpha" maskUnits="userSpaceOnUse" x="116" y="95" width="12" height="13">
    <path d="M116.558 95.8324H127.464V107.63H116.558V95.8324Z" fill="white" id="svg_3" />
  </mask>


  <mask id="mask3_528_1101" style="mask-type:alpha" maskUnits="userSpaceOnUse" x="52" y="0" width="9" height="15">
    <path d="M52.9248 0.202881H60.6525V14.5361H52.9248V0.202881Z" fill="white" id="svg_4" />
  </mask>


  <g class="currentLayer" style="">
    <title>Layer 1</title>
    <path fill-rule="evenodd" clip-rule="evenodd" d="M81.9487 125.808C81.7236 125.639 81.6833 125.709 81.5243 125.857C81.6792 126.063 81.7383 125.933 81.9487 125.808ZM81.329 126.406C81.176 125.572 79.9479 127.495 80.8889 127.452C81.2674 127.322 81.2298 126.786 81.329 126.406ZM69.6724 87.4306C70.59 87.5024 72.6213 87.5171 73.4762 86.797C73.5641 85.8535 75.1819 83.0605 74.229 83.1158C72.6576 83.7683 64.6768 87.9457 69.6724 87.4306ZM103.42 102.441C103.445 101.058 103.907 99.2341 105.501 99.077C103.796 97.4889 101.914 101.031 102.356 102.603C104.953 110.199 113.899 99.6973 104.935 100.015C101.935 101.153 107.971 104.593 106.349 101.807C105.596 101.797 106.437 101.274 106.797 101.134C109.59 102.25 102.805 106.934 103.42 102.441ZM52.8992 106.758C55.8488 105.617 61.704 105.242 63.2179 103.697C55.9626 100.422 56.4336 98.5641 52.8992 106.758ZM48.9355 109.835C43.018 111.049 42.8575 110.333 43.3893 116.623C43.8301 119.937 42.4663 121.779 46.5925 119.611C47.6985 116.823 48.0666 112.959 48.9355 109.835ZM74.0497 126.617C82.2839 126.859 84.1511 113.397 75.7232 112.364C69.2528 112.383 66.0686 117.917 71.5619 122.404C74.1653 125.123 78.3027 121.844 77.3546 118.887C76.7158 116.072 71.5611 114.529 72.1875 118.692C72.3473 120.505 76.3594 120.672 74.994 118.687C71.9797 119.099 74.4458 116.579 75.5068 117.372C76.8093 118.704 75.2398 120.762 73.9419 121.461C71.2349 123.417 68.9778 118.227 70.8138 116.349C82.0314 105.94 83.2166 127.426 71.4542 125.399C69.7297 125.231 68.2692 123.794 68.7093 122.063C66.8609 124.263 71.8459 126.794 74.0497 126.617ZM70.4251 95.8695C72.5934 87.3948 74.755 89.8983 66.2577 89.1262C64.6384 88.9322 56.8269 98.0402 57.9127 99.0565C60.6444 100.358 63.3621 101.686 66.0823 103.009C67.5563 103.659 67.5763 101.42 68.257 102.132C74.2007 106.36 76.7088 97.6937 70.4251 95.8695ZM65.7714 109.403C67.4162 108.845 69.0747 108.323 70.7019 107.718C72.3629 105.896 78.8057 111.412 76.8923 108.627C71.2381 105.438 71.6683 104.938 65.4688 108.164C65.6946 107.521 67.2703 105.095 65.7559 105.377C61.2271 106.603 56.6962 107.821 52.1727 109.066C50.6688 110.45 50.7546 113.186 49.9599 115.075C49.9503 115.889 48.5772 118.734 50.024 118.361C52.8083 117.42 55.6492 116.697 58.5677 116.325C60.4792 115.792 63.6543 116.937 63.6013 114.155C64.1953 112.516 64.6181 110.889 65.082 109.183C65.4082 109.804 65.3337 109.301 65.7179 109.144C65.7701 109.23 65.7308 109.519 65.7714 109.403ZM18.2915 117.259C18.3219 116.34 18.3522 115.421 18.3825 114.503C22.0614 113.959 25.9804 111.917 29.3817 114.302C26.7456 115.037 24.0437 115.518 21.3803 116.147C37.2145 128.166 27.0303 130.364 40.983 122.196C42.0914 119.362 40.7214 115.438 40.9715 112.252C40.8589 111.189 39.3705 112.206 38.7069 112.159C39.2376 109.558 40.8714 110.106 40.9838 108.959C40.7899 107.376 42.5259 106.496 43.2463 105.189C42.2649 111.607 45.2883 107.906 49.6245 107.546C51.6246 105.643 52.4322 102.473 53.9938 100.132C53.8844 98.8242 50.3658 98.6981 49.1438 97.9299C49.32 97.2663 49.8138 96.678 49.6219 95.926C58.5463 100.016 55.1944 95.4887 62.8896 88.8283C58.5807 86.1556 52.353 83.16 49.9674 77.2167C53.2772 76.7624 57.1992 86.1833 64.6754 86.7796C67.4048 85.3963 69.7139 82.8471 72.7507 81.7402C75.1414 83.5403 74.8322 81.7934 75.7134 79.8033C81.8494 92.5528 94.0923 79.2857 86.1268 71.4396C84.306 70.5944 84.9087 69.574 86.2437 68.5344C86.5753 68.2531 86.7526 67.5547 87.4413 67.9685C88.0708 67.6698 87.0835 67.3626 87.9256 67.0377C89.2696 66.5138 89.7773 65.0611 90.8659 64.3322C90.8126 63.8391 91.0404 63.8165 91.4292 63.8999C92.6736 63.5972 91.1759 65.8853 91.178 66.6449C90.3975 73.5469 94.8128 80.6258 90.372 87.0262C87.1571 87.4231 83.214 88.3122 80.4098 90.7841C75.8737 93.8715 79.1021 100.067 80.3235 104.071C79.8033 110.916 86.4899 114.904 90.9849 113.68C106.606 110.396 94.8098 100.108 100.707 96.9689C102.761 96.6618 106.841 93.372 107.772 96.4016C108.272 96.8517 108.94 97.0202 109.098 97.8323C111.627 103.087 113.12 106.087 109.054 110.916C110.314 113.96 113.854 116.005 116.27 118.24C117.376 118.967 115.174 119.51 115.355 120.312C115.887 120.711 116.656 119.716 116.94 119.224C117.21 118.858 117.681 119.232 117.896 119.502C120.684 121.36 118.914 122.519 116.504 123.44C116.063 123.629 115.643 124.207 115.089 123.623C113.912 124.284 112.618 124.811 111.399 125.412C110.92 121.207 108.092 114.338 102.527 115.543C89.0679 120.592 105.01 129.696 95.5661 131.004C91.7989 132.921 93.5706 129.358 93.1462 126.805C92.8955 123.973 89.1238 119.254 86.5661 122.354C84.3597 125.012 82.3967 126.879 80.8917 129.905C79.9332 131.091 79.605 135.102 77.5422 133.367C76.2314 133.062 76.9579 132.722 76.3133 131.853C74.6863 132.527 72.4071 128.88 70.7155 129.562C69.4144 129.589 71.3895 129.182 70.4515 128.658C69.4799 127.454 67.6809 126.421 67.083 125.165C66.8469 124.558 66.0248 124.785 65.6929 124.038C63.3933 122.929 61.8508 121.196 62.4013 118.445C59.1141 117.149 53.4898 119.73 49.7225 120.698C48.4904 124.761 52.3479 129.719 56.1477 131.435C50.5481 132.686 47.8235 126.99 47.2317 122.214C46.8663 121.116 45.0315 122.845 44.2274 122.981C42.7505 125.54 47.1965 132.067 42.4529 131.463C41.6151 120.337 41.5939 125.184 33.9466 129.291C33.6575 129.936 34.4176 130.687 34.6263 131.3C32.8087 130.924 30.9579 131.341 29.1082 130.839C34.6092 128.03 21.4255 118.668 18.2915 117.259Z" fill="#4141e8" id="svg_5" class="" fill-opacity="1" />
    <path fill-rule="evenodd" clip-rule="evenodd" d="M93.6594 89.671C94.0123 89.2564 94.0381 88.8857 93.616 88.7256C92.864 89.0154 92.9808 89.1901 93.6594 89.671ZM97.5482 69.5717C96.8571 68.9546 96.738 69.1534 96.4196 69.7806C96.7371 70.3199 97.0151 69.9617 97.5482 69.5717ZM88.4212 106.602C96.7253 106.655 96.5906 95.664 89.077 94.9963C80.2543 94.7851 87.805 106.955 90.4452 100.267C90.6247 98.943 87.3272 96.5258 88.283 98.9499C89.6395 100.523 84.3492 101.586 86.9379 98.0898C95.5948 92.2551 94.9598 106.354 86.1738 104.722C82.908 104.524 83.5964 99.9128 83.8048 97.6066C84.1604 94.2451 87.3094 92.7672 89.7799 91.0538C81.2613 90.6198 79.0309 106.131 88.4212 106.602ZM101.485 78.2223C106.932 74.9909 106.085 81.5148 101.602 82.1684C98.0825 82.7817 98.1057 77.5307 100.231 75.8898C100.962 75.0012 102.327 74.3999 102.765 73.3658C100.249 73.1304 96.5306 76.6245 97.7113 79.368C98.7967 81.8764 100.856 85.4386 104.026 83.6794C111.266 81.2909 102.409 70.8096 100.039 77.6392C99.8186 79.9197 104.789 82.1541 102.997 78.7435C102.79 78.4507 102.627 78.158 102.243 78.6194C101.848 78.8702 101.288 78.8769 101.485 78.2223ZM123.649 91.3319C124.168 91.4403 124.409 91.9662 124.176 92.4211C126.867 95.5887 123.352 94.35 121.038 94.6435C110.482 96.3558 116.777 109.511 123.178 110.673C125.107 109.458 119.839 118.965 119.819 120.091C117.752 116.571 112.886 114.889 111.096 111.575C115.678 106.076 110.587 98.5464 106.93 93.9552C105.243 92.1885 96.7763 95.794 97.5944 98.892C97.7983 99.7007 97.7418 100.609 97.812 101.316C100.526 106.146 95.2337 110.847 90.607 111.447C83.1848 113.32 82.0319 109.441 80.8795 103.134C80.3269 99.9176 77.9786 96.2477 80.3463 93.2739C81.6377 91.4462 87.462 87.8016 89.2725 88.4754C89.5739 87.4611 91.6225 88.9097 91.1929 87.629C91.9689 87.3666 92.4419 86.1817 93.0417 85.7822C93.718 85.8314 93.5907 85.5908 93.3464 85.2037C93.9585 82.5167 94.1128 79.7982 93.6189 77.0622C93.1615 73.977 91.8122 70.8881 93.0565 67.8068C93.5352 66.7751 93.7724 64.1657 95.0766 64.2594C94.7206 65.1216 95.0645 64.9671 95.5666 64.6034C97.3728 65.3313 99.0039 66.6063 100.534 67.4409C103.305 67.6628 103.458 69.0834 103.832 68.2681C108.043 69.4898 112.369 70.8955 116.335 72.6738C120.562 76.2598 110.726 73.3411 110.417 78.3795C109.415 82.6713 109.084 87.0845 110.918 91.1908C113.548 94.3831 118.587 91.6859 122.133 91.6737C122.714 91.3271 122.406 92.3537 122.682 92.727C125.333 91.8626 122.313 91.6445 123.649 91.3319Z" fill="#077F7F" id="svg_6" />
    <path fill-rule="evenodd" clip-rule="evenodd" d="M27.5102 93.8837C27.4836 93.8655 27.4724 93.8519 27.4709 93.8946L27.5102 93.8837ZM14.0695 94.5302C14.047 94.5604 14.0446 94.5658 14.0851 94.5661C14.0851 94.5662 14.0695 94.5302 14.0695 94.5302ZM30.9156 72.126C30.8935 72.1535 30.889 72.1594 30.9282 72.1616L30.9156 72.126ZM27.4182 102.895C27.3784 102.808 27.302 102.952 27.3746 102.981C27.3893 102.953 27.4038 102.924 27.4182 102.895ZM30.2643 102.366C30.246 102.326 30.2296 102.255 30.1942 102.315C30.2095 102.36 30.2166 102.424 30.2643 102.366ZM14.0506 98.4191C14.081 98.4835 14.1246 98.4426 14.174 98.429C14.1446 98.3698 14.0992 98.4069 14.0506 98.4191ZM29.2396 89.4438C28.7217 89.1763 28.5507 88.85 28.1474 89.2985C28.5903 89.7923 28.6651 90.1284 29.2396 89.4438ZM27.8926 87.219C28.1406 87.6057 27.7696 86.582 27.5514 87.1047C28.1677 83.8065 25.1712 85.2448 23.2586 85.7608C22.0955 86.0418 20.5989 86.3245 19.0258 86.9703C17.3586 87.9842 17.8037 94.5827 17.3899 96.7714C16.8896 98.5794 17.38 100.398 16.8783 102.185C16.7464 103.265 15.9119 106.75 17.759 104.705C18.124 104.441 18.261 103.782 18.9277 104.015C19.4652 103.052 20.1616 102.218 21.064 101.513C21.5081 101.064 21.799 100.391 22.6273 100.597C23.8677 99.2858 25.1357 97.9203 26.7145 96.9389C28.3393 94.4131 26.4226 89.0986 27.8926 87.219ZM29.3821 114.302C27.9692 114.034 26.6828 111.875 28.0076 110.881C27.349 109.312 27.3417 105.754 27.239 103.24C28.1558 98.6328 25.3714 103.216 23.4089 104.012C22.5411 105.014 21.2163 106.178 19.9994 107.079C19.3753 107.536 19.0955 108.515 18.0619 108.361C17.3957 109.598 16.7767 109.511 15.4943 108.978C14.3372 108.591 12.7683 108.575 13.3911 106.969C13.7597 104.989 13.4258 102.981 13.8393 101.031C14.1268 100.119 13.4526 91.3495 14.6499 92.0962C15.2255 91.9395 14.274 91.4622 14.3077 91.1913C14.3175 90.6391 14.4271 90.0886 14.4989 89.5375C14.5056 89.4865 14.5175 89.4363 14.5269 89.3857C15.0233 89.5468 14.6924 89.232 14.6767 89.1154C15.0968 87.0025 9.54208 90.337 8.14176 90.2758C5.04196 90.2942 2.13759 94.2205 3.85095 89.3668C4.37855 85.4388 9.77812 86.0988 12.4296 84.035C13.3396 83.2268 14.8567 83.6731 15.1416 82.607C15.6583 79.8187 15.5573 76.9428 16.4489 74.3017C15.7335 72.238 17.8852 70.879 19.6849 70.4166C18.6852 73.8388 19.5669 77.8827 18.4308 80.9768C18.9384 81.1059 18.6942 81.536 18.7882 81.8308C20.0463 81.8799 21.7799 81.0695 23.0664 80.6857C23.5944 80.478 24.0933 80.6821 24.4857 80.2468C24.9464 80.1525 25.5084 80.4123 25.8398 79.8417C26.4945 79.5286 27.683 80.071 27.8659 78.9977C27.9061 78.0817 27.816 77.0987 28.1923 76.3032C28.1584 75.3191 27.8344 73.081 28.5806 72.6782C29.4027 72.2874 27.8716 71.941 28.5767 71.4293C27.9684 68.5756 28.0608 67.6052 30.9753 67.2933C31.4965 71.0519 30.2645 75.1859 31.2005 78.7491C31.8996 77.9139 33.4811 78.1709 34.58 77.5031C35.9217 77.0792 37.4703 77.0355 38.8011 76.6666C38.9541 77.1262 38.933 77.0954 39.3433 76.8136C41.1249 75.8613 42.665 75.9152 41.8835 78.4004C41.7829 77.3501 41.172 78.9593 41.9973 78.7729C43.6166 79.3745 43.6946 81.8771 41.5946 81.1578C40.8662 81.5952 40.2648 81.7824 39.5291 81.4621C38.2577 81.8553 37.0058 83.0242 35.6504 82.6347C35.4555 83.2508 34.856 82.861 34.5696 83.2445C34.0179 82.8882 33.5459 83.9749 32.9756 83.3349C32.5333 83.934 31.8224 84.1015 31.2181 84.0348C30.1165 84.1999 30.5293 89.3589 30.7715 90.4473C30.9424 91.1764 29.8398 94.0802 31.308 93.2469L31.3003 93.2543C35.0583 89.6974 40.2197 86.4319 44.17 83.9274C45.4172 84.7715 46.6109 87.4117 44.5271 87.9032C44.2555 88.0794 43.7777 88.0977 43.8965 88.6232C43.5438 88.5019 42.5738 89.6109 42.9904 88.8184C40.4709 91.0931 30.4527 96.6707 30.6007 99.5023C30.5206 101.865 30.8162 104.346 30.5905 106.642C30.9287 108.018 30.8495 109.747 30.9429 111.797C30.9523 113.399 31.402 114.83 29.3821 114.302Z" fill="#FDB43D" id="svg_7" />
    <path fill-rule="evenodd" clip-rule="evenodd" d="M41.4019 42.4472C41.3785 42.4078 41.3438 42.4029 41.3302 42.4472C41.3438 42.4912 41.3785 42.4865 41.4019 42.4472ZM40.3932 56.3942C41.7571 56.5206 41.6116 53.7674 40.8488 55.1204C40.8266 55.3867 40.9829 55.7098 40.5287 55.8202C40.4313 55.8551 40.083 56.3819 40.3932 56.3942ZM43.6026 52.6541C45.356 55.2425 44.1351 49.3642 42.4916 52.3385C41.9964 52.6104 42.3763 53.2601 42.7678 53.4107C42.7811 52.6774 43.0961 51.7606 43.6026 52.6541ZM37.9357 39.7962C38.6164 40.9551 39.4381 45.5471 40.4827 42.553C40.8461 42.1912 41.7034 42.3845 41.7172 41.8035C41.1765 40.5786 38.4787 38.3403 40.1673 40.9941C39.7773 41.5152 38.6453 41.2837 38.971 40.6338C38.5971 40.0774 38.3151 40.055 39.0203 39.6709C38.1156 39.2358 37.7011 37.8252 37.9357 39.7962ZM43.0429 43.4452C44.4725 43.4533 44.431 42.1082 42.8797 42.4696C41.9455 42.2864 42.3926 43.17 43.0351 43.2685C42.686 43.6133 43.0301 44.1212 43.0429 43.4452ZM30.975 67.2927C27.3987 69.0638 40.9944 52.7453 41.8447 50.8613C40.9469 48.1737 31.9616 36.43 39.0714 36.4594C40.4934 36.4111 42.711 41.0795 42.9554 39.2504C41.3798 34.9492 41.8904 16.4507 48.0337 27.9547C49.0616 28.3431 48.8138 22.0502 51.518 24.1319C53.0661 25.321 53.2837 27.2312 54.0704 28.8714C55.257 28.1983 56.5802 25.7007 57.9419 28.0523C59.2446 29.2875 57.6322 34.3532 59.7831 33.4552C60.2295 33.3119 61.2284 33.8213 61.4191 34.3881C62.646 40.2757 59.7134 46.6186 56.2912 51.2886C55.2018 53.4552 52.287 53.5236 51.4428 55.6197C47.8206 61.778 44.457 68.1132 40.6558 74.151C39.2523 72.2125 42.0386 69.2963 43.2838 67.5738C43.6395 65.4261 45.7466 63.2801 46.6051 61.0423C48.6722 58.4086 49.6329 54.3046 52.2532 52.3723C57.254 49.8551 58.4414 42.5714 60.3508 37.6027C60.5469 35.8889 59.6463 33.4286 58.4221 35.9591C58.5946 37.1418 56.849 40.3857 56.5459 37.6754C56.8495 34.8588 57.9131 30.6934 56.2027 28.4432C53.5851 30.8086 55.311 34.8536 54.4708 37.9691C51.3061 41.3326 53.8289 32.4997 52.365 32.5268C51.5602 30.9794 52.9017 32.5247 52.8122 31.6024C52.377 29.8503 52.3651 27.7468 50.9857 26.4648C50.4128 23.4792 49.088 29.458 49.4569 30.7497C49.6396 31.8545 49.8326 32.86 49.8144 34.0544C49.6731 35.0531 50.4107 36.2647 50.0362 37.4896C48.8383 39.4029 48.54 36.3821 47.7829 36.1045C48.1513 35.2288 48.0061 34.4521 47.6888 33.5837C47.5041 32.9028 46.7876 33.4912 46.852 33.9717C46.1325 33.8777 45.8881 31.5888 46.8376 31.3676C46.9122 29.6442 46.2199 27.2802 44.7494 26.2414C43.7217 27.8305 42.3112 34.535 44.9392 35.0812C45.0544 35.2646 45.1532 35.9661 44.7677 35.9197C43.9927 36.1198 44.7315 36.5522 44.3808 36.9344C42.759 36.6452 44.9827 40.1575 44.3135 40.7148C44.6229 41.2779 45.3687 40.8313 45.8141 40.9934C46.6909 41.1083 47.5998 41.1724 47.9742 40.277C47.5058 42.2397 50.4099 42.4375 50.8814 44.4109C50.8916 46.9159 48.855 44.3078 47.9677 43.6513C47.5364 43.5405 47.3608 42.7356 46.984 43.1149C46.3693 43.5719 46.9954 43.9807 46.9439 44.4831C46.5417 44.6087 46.2883 44.2848 45.9098 44.2559C47.9848 42.9349 44.024 41.4519 44.7401 43.494C45.0485 43.6919 46.1599 44.1138 45.2622 44.3447C45.4236 45.0988 47.4232 44.7957 45.1539 46.1517C45.9071 45.7945 44.9212 45.5385 44.6685 45.98C43.9574 46.321 43.878 45.6689 43.8882 45.1271C45.0514 45.4256 45.013 43.379 43.4013 44.2858C43.4263 45.0569 42.4723 44.5562 42.3487 45.1552C42.4468 45.4819 42.4726 45.4741 42.2163 45.7614C41.5506 45.3671 42.5989 44.5602 42.4188 43.9792C42.1236 44.165 41.6975 43.9907 41.5801 43.6647C40.553 43.8618 41.7465 46.2934 41.0312 45.3469C40.2784 44.6648 41.1144 44.4629 40.7751 44.0203C38.9834 44.7704 42.1164 48.8498 42.8731 50.054C43.125 50.3378 43.7944 49.9612 44.2391 50.0841C44.1458 49.8021 43.7358 49.7658 43.9173 49.3625C43.869 48.1948 45.0846 48.214 45.4745 49.1462C45.9452 50.2687 44.7264 51.0391 45.0356 52.1469C45.5848 52.3196 45.2789 52.5041 45.9332 52.1786C45.9736 52.4933 46.7533 52.5762 46.2185 53.0803C46.2583 53.5032 46.3357 54.1206 45.8149 53.9689C44.9416 53.4128 45.2755 54.8474 44.373 54.6698C45.0594 54.0069 44.3448 53.5334 44.0097 54.3622C43.8888 54.6771 44.2869 55.7558 43.6754 55.5008C43.6724 55.0309 44.2792 54.8629 43.6059 54.5175C43.1717 53.7497 43.2658 54.1451 42.707 54.4069C42.2452 54.3479 42.3314 54.6886 42.3559 54.8562C42.5139 55.3539 41.5016 55.4076 42.0518 55.986C41.1289 55.6314 41.6198 56.0078 41.9217 56.4509C41.113 58.7903 40.4081 53.6234 36.8388 60.6184C36.2903 61.2766 30.1537 68.6835 33.9384 65.5175C34.519 64.1639 34.5974 65.9756 35.2944 65.6093C35.462 64.8668 35.6905 65.2314 36.2623 65.1396C37.4521 64.8732 37.1222 64.5652 37.302 63.9987C38.2328 63.8475 38.2279 64.7608 38.7823 65.2808C38.383 65.3809 37.5042 65.892 37.491 66.1083C37.6765 66.89 36.6608 67.2466 36.23 66.9104C35.7252 65.9512 34.5338 65.7802 33.6187 66.1575C32.7031 66.3955 31.9676 67.6372 30.975 67.2927Z" fill="#ffffff" id="svg_8" class="" fill-opacity="1" />
    <path fill-rule="evenodd" clip-rule="evenodd" d="M70.7957 43.4624C70.8184 43.508 70.8419 43.5657 70.8707 43.5014C70.855 43.4525 70.84 43.4037 70.7957 43.4624ZM78.3422 19.3092C78.283 19.3407 78.3191 19.3752 78.3409 19.419C78.3997 19.3877 78.3651 19.3524 78.3422 19.3092ZM84.1541 66.3148C83.7669 66.144 83.6286 65.8899 83.2969 66.1268C83.6397 66.2718 83.7537 66.6493 84.1541 66.3148ZM71.8119 41.8125C71.3285 42.0668 72.4017 42.6516 72.7912 42.7955C72.3532 43.0086 72.31 43.4698 72.7177 43.6016C73.352 43.3319 73.2155 44.0266 73.6893 44.1539C73.676 42.8732 72.9552 42.2463 71.8119 41.8125ZM71.9711 43.441C70.8493 43.7982 71.9153 45.0542 72.5986 45.1027C74.1528 43.8698 72.7465 44.2532 71.9711 43.441ZM69.6463 43.5329C68.9349 42.2317 70.5478 45.1157 70.9841 45.6948C71.2301 45.4768 71.2409 44.946 71.7699 45.103C71.2386 44.498 71.2549 43.1067 70.4311 44.3271C70.6005 43.6787 70.6133 43.2223 69.8261 42.8682C69.8066 43.1219 70.0102 43.4711 69.6463 43.5329ZM75.6852 28.4963C75.6689 28.7367 75.4109 29.0453 75.7196 29.1784C75.7117 28.9507 75.7248 28.7215 75.6852 28.4963ZM83.8701 70.285C80.4396 64.0757 78.6887 56.5796 74.7846 50.8331C69.797 47.8371 66.7012 43.0298 65.3247 37.7044C64.2578 33.3284 67.6575 37.2142 65.3731 31.2159C64.9929 29.4857 65.5085 27.2144 67.54 26.8686C67.8405 26.7533 68.1795 26.7815 68.127 26.2111C66.7901 21.9357 73.0137 17.3319 74.1483 23.2575C74.6237 24.9832 74.8263 26.8905 75.5882 28.4944C75.9652 25.5418 74.754 21.8318 77.4325 19.6714C84.033 18.163 81.0558 30.9767 83.0128 34.767C84.374 32.7734 85.088 29.1326 88.1501 29.5663C89.4 29.6657 90.7083 30.8756 90.2445 32.3358C87.8474 41.8884 82.4162 45.6728 89.3559 55.212C90.5673 57.7601 92.04 60.1751 93.2725 62.7091C92.7645 62.7679 92.1886 62.5666 91.8026 63.0929C90.5252 62.038 89.8988 59.6058 89.1843 57.9465C87.57 55.4755 86.1076 52.5623 85.2311 49.7337C82.9369 46.6306 85.4941 42.4145 86.4558 39.198C86.4999 37.5238 90.4834 31.3034 87.7888 31.3226C85.6196 31.6644 85.4599 34.437 84.1924 35.9262C83.4925 36.6472 84.0107 37.4 83.9284 38.1847C83.0271 39.8672 82.6777 38.88 81.4805 39.8552C80.3048 40.1882 78.8154 43.9833 77.9598 42.6387C78.3419 40.0344 80.8023 38.9003 82.2856 37.1903C80.8152 33.0532 80.6136 28.6384 80.4829 24.2442C76.0773 14.0839 76.5885 31.3004 77.5758 34.2729C76.4099 35.793 74.7802 29.7997 74.2118 28.605C73.5174 26.4225 72.328 18.2445 69.5812 23.6427C68.6708 25.6628 70.746 26.7534 69.6496 26.9245C69.5093 28.1776 70.5176 29.2919 70.0905 30.369C70.9186 32.1228 71.5907 33.824 72.1329 35.6087C72.3328 36.4074 71.621 36.5919 71.204 36.1441C71.058 35.324 69.5941 35.1891 70.1324 34.0524C69.6692 32.9751 69.2736 31.8281 68.9051 30.7068C68.6996 27.0393 66.8108 28.5817 67.1997 31.1974C67.03 33.8916 70.9686 38.3132 70.0758 39.5616C68.533 39.8089 68.2688 37.9399 67.4876 36.9788C66.2593 35.5795 67.5133 38.9439 67.6109 39.7044C67.8374 40.0879 68.3928 40.01 68.7403 39.7538C68.8921 41.1822 67.827 41.078 68.9541 42.518C69.052 42.124 69.4501 41.6617 69.1241 41.2854C68.5127 40.8392 69.7975 40.2793 69.9661 40.9073C70.3517 41.523 70.4838 40.7895 70.7477 40.5926C70.9674 41.1753 71.5953 40.6544 71.3947 41.399C71.5441 42.0547 72.3752 40.8767 71.4822 40.0786C70.5519 39.5826 71.4666 38.9299 71.9437 38.6241C71.9689 39.2885 72.6184 40.2253 73.3232 39.6756C72.1047 39.5245 73.1858 37.8093 74.0766 38.1154C73.5855 38.9809 73.9354 39.4986 73.9513 40.3972C74.0738 40.862 74.7312 41.0366 74.1855 41.5363C74.2085 42.0279 77.0623 40.7073 75.6958 41.6897C74.8826 41.5492 75.5934 42.7644 74.4602 42.3213C74.8554 43.0125 74.9137 43.4986 74.3215 43.8251C73.6372 44.3037 74.0782 44.4769 74.073 45.1687C73.1351 45.1406 73.5328 46.6988 73.5471 47.0944C74.1916 47.4387 73.3029 47.8029 73.7152 48.2062C77.2897 51.7909 76.8256 48.9492 78.4291 50.1193C79.205 50.9689 77.487 50.3519 78.2676 51.1598C78.7405 52.0079 78.2523 51.8321 77.8519 51.2898C76.7551 51.5492 76.8997 52.875 77.5682 53.5252C77.8294 53.8814 78.2056 53.3943 78.3003 53.1795C78.613 52.3803 79.3709 54.2467 80.2832 53.305C81.0247 53.4009 80.1501 54.1148 80.2786 54.4767C81.3481 55.657 79.1469 56.0329 78.8359 56.3161C78.6499 57.0455 79.6501 57.0774 79.7575 58.1062C79.822 58.5979 80.1294 58.5105 80.5426 58.3812C80.1828 58.1873 79.5687 58.2463 79.9037 57.8198C81.2051 57.9604 81.7695 59.4169 80.23 58.797C79.9924 59.2421 81.3823 61.6283 81.041 60.9144C81.818 62.4061 82.2794 64.4444 83.2648 65.9352C83.0254 65.6167 83.6374 65.562 83.6561 65.4092C83.6193 63.9873 84.8522 66.4931 83.632 66.5999C83.606 67.76 85.8565 69.9411 83.8701 70.285Z" fill="#ffffff" id="svg_9" class="" fill-opacity="1" />
    <path fill-rule="evenodd" clip-rule="evenodd" d="M91.8025 63.0928C94.454 61.5631 99.0436 67.2534 102.429 67.4089C105.709 67.9658 108.863 69.7839 112.221 70.4503C115.478 71.4634 118.339 72.9822 118.521 76.7566C117.973 76.1651 117.938 75.7902 117.155 76.4393C116.271 76.334 115.536 76.6428 114.722 76.9818C110.021 78.5476 110.975 85.6071 111.658 89.5114C114.676 90.0819 118.082 89.2012 121.191 89.0063C121.665 89.1419 122.276 88.4958 122.758 88.7053C123.074 89.5621 124.494 91.1969 123.062 91.5639C124.472 91.756 123.534 92.5568 122.681 92.7268C122.412 92.3549 122.711 91.3262 122.133 91.673C118.594 91.6867 113.542 94.3822 110.918 91.1915C109.083 87.0847 109.415 82.671 110.417 78.3792C110.511 73.1474 122.807 76.4235 114.65 71.8398C111.062 70.5998 107.464 69.2821 103.832 68.2673C103.462 68.9744 103.32 68.2725 103.08 68.1576C102.451 67.5874 101.042 67.7111 100.534 67.4411C99.0038 66.6035 97.3712 65.3302 95.5664 64.6032C95.0642 64.967 94.7204 65.1215 95.0769 64.2599C95.0803 64.2516 94.9685 64.1634 94.9241 64.1733C90.3687 68.6742 94.1047 75.6848 93.9417 81.2838C93.9232 82.5864 93.4986 83.917 93.3462 85.2036C93.5904 85.5909 93.7177 85.8314 93.0417 85.7822C92.4472 86.1834 91.9659 87.3655 91.1927 87.6288C91.6131 88.9102 89.5762 87.4603 89.2726 88.4758C88.6408 88.1805 88.1161 88.3016 87.5394 88.6293C75.4833 92.9662 79.9598 98.4848 82.2488 108.614C84.9191 116.422 102.555 109.126 97.8119 101.316C97.5472 99.1888 97.3113 96.1591 99.998 95.26C102.145 94.8326 104.962 92.2985 106.929 93.9546C119.704 109.979 107.103 110.13 113.163 113.953C115.764 115.034 124.032 124.61 117.373 119.079C116.691 119.231 116.375 120.19 115.654 120.473C114.754 120.208 116.021 119.418 116.317 119.098C117.044 117.576 109.009 113.36 109.055 110.916C113.119 106.083 111.629 103.076 109.098 97.8318C108.937 97.0128 108.274 96.8567 107.772 96.4025C106.849 93.3573 102.751 96.6844 100.708 96.9683C94.8003 100.138 106.619 110.378 90.9849 113.68C86.4528 114.919 79.595 110.787 80.3738 103.872C76.2164 95.2744 77.5581 89.9434 87.27 87.4226C88.9437 86.8722 90.251 88.2439 90.6591 86.0818C95.4907 79.1614 88.7526 70.9755 91.9734 63.6398C91.8004 64.2465 90.703 63.4307 90.866 64.3321C89.7774 65.0606 89.2693 66.5145 87.9255 67.0375C87.117 67.3257 88.0396 67.7153 87.4415 67.9685C86.3387 67.6608 85.3012 69.555 84.7425 70.3786C83.6743 69.4422 87.0909 68.0873 87.6888 66.8989C88.991 65.8486 90.9765 62.9074 91.8025 63.0928Z" fill="#FDB43D" id="svg_10" />
    <g mask="url(#mask0_528_1101)" id="svg_11">
      <path fill-rule="evenodd" clip-rule="evenodd" d="M3.1554 91.7745C5.29034 91.0638 7.97665 90.4181 10.2365 89.5807C11.0986 89.5383 14.588 87.7054 14.5799 88.6001C14.4635 88.8738 15.1418 89.589 14.5274 89.3857C14.4344 89.9843 14.3255 90.589 14.3079 91.1912C14.2809 91.454 15.2196 91.947 14.6505 92.0964C13.437 92.1844 14.1958 96.5747 13.8358 97.7878C14.4635 97.8485 14.0026 98.0446 13.9673 98.304C13.7097 101.198 13.6968 104.074 13.391 106.969C13.1303 109.62 3.14153 103.52 0.805469 102.694C-1.50909 99.7661 2.56309 95.0586 3.1554 91.7745Z" fill="#F3292A" id="svg_12" />
    </g>
    <path fill-rule="evenodd" clip-rule="evenodd" d="M45.8702 87.1055C44.6914 84.0974 45.2273 77.4748 49.2236 77.3669C53.0983 80.8006 56.2907 86.9231 62.7277 88.2616C63.0955 88.3852 63.253 88.469 62.8893 88.8281C60.2004 91.4851 57.8417 94.4198 55.6974 97.5266C47.4669 97.6958 49.2402 92.0102 45.8702 87.1055Z" fill="#CA0357" id="svg_13" />
    <path fill-rule="evenodd" clip-rule="evenodd" d="M56.1478 131.435C52.3496 129.722 48.4863 124.758 49.7221 120.699C53.4874 119.726 59.1106 117.151 62.401 118.445C61.6901 122.702 64.7108 123.03 67.0842 125.165C67.6793 126.421 69.4831 127.453 70.4513 128.658C69.3274 132.319 59.775 131.39 56.1478 131.435Z" fill="#CA0357" id="svg_14" />
    <path fill-rule="evenodd" clip-rule="evenodd" d="M72.7509 81.7397C69.7149 82.847 67.4045 85.3963 64.6753 86.7817C59.8887 85.4463 52.2443 81.1114 52.1909 76.5699C57.7513 75.98 64.8156 71.7502 69.1493 76.9775C70.1046 78.3324 72.8687 80.0215 72.7509 81.7397Z" fill="#CA0357" id="svg_15" />
    <path fill-rule="evenodd" clip-rule="evenodd" d="M28.3623 67.9934C28.4095 69.5429 28.1697 71.3123 28.8328 72.4526C28.6204 72.8785 28.0574 72.467 28.2784 73.1221C28.1265 74.1665 27.9975 75.2324 28.1927 76.3032C27.8141 77.0982 27.9083 78.0822 27.8668 78.9978C27.6826 80.0701 26.4956 79.5292 25.8401 79.8416C25.5089 80.4122 24.9469 80.1524 24.4865 80.2469C22.8775 80.7834 20.5391 81.716 18.7889 81.8314C18.8084 81.3112 18.7279 81.2027 18.3887 80.8297C19.6308 79.2721 18.4934 76.8825 19.1612 74.9901C18.0462 68.9715 24.0785 69.333 28.3623 67.9934Z" fill="#F3292A" id="svg_16" />
    <path fill-rule="evenodd" clip-rule="evenodd" d="M17.6636 71.4974C16.2708 71.7642 16.2307 73.302 16.4482 74.3017C16.3221 75.646 15.459 76.8802 15.6672 78.347C15.1402 79.8133 16.1535 83.1843 14.0618 83.3111C11.0282 84.7117 7.93417 86.0403 4.73779 87.1112C4.97759 84.5935 6.36948 82.3413 7.18157 80.0269C8.47189 78.1965 8.10992 75.6514 9.82625 74.0968C10.4213 74.4823 9.86913 73.0971 10.9012 73.1847C13.2414 72.9651 15.2345 71.3187 17.6636 71.4974Z" fill="#F3292A" id="svg_17" />
    <path fill-rule="evenodd" clip-rule="evenodd" d="M30.975 67.2926C31.9655 67.635 32.7049 66.397 33.6187 66.1577C36.23 65.3089 37.6978 68.2607 38.5537 70.3143C39.011 72.2329 42.3643 75.182 40.7499 76.2563C40.1604 75.356 39.3397 76.1764 38.8012 76.6664C37.9807 77.1073 37.0807 76.6844 36.2272 77.1704C27.7557 79.4056 31.8564 79.67 30.975 67.2926Z" fill="#F3292A" id="svg_18" />
    <path fill-rule="evenodd" clip-rule="evenodd" d="M18.2919 117.259C23.0369 119.84 29.3676 124.344 30.6538 129.345C27.8838 132.702 21.5295 128.78 19.6359 125.744C18.0394 123.245 18.1647 120.144 18.2919 117.259Z" fill="#CA0357" id="svg_19" />
    <g mask="url(#mask1_528_1101)" id="svg_20">
      <path fill-rule="evenodd" clip-rule="evenodd" d="M76.211 132.258C76.1922 132.222 76.1707 132.22 76.1462 132.253C76.173 132.282 76.2013 132.319 76.211 132.258ZM90.5749 124.888C89.4124 121.755 81.6742 132.505 81.0514 134.345C80.1972 137.779 87.8371 133.65 89.0594 133.337C90.8827 131.258 89.63 127.488 90.5749 124.888ZM67.6108 130.869C73.0374 127.378 72.245 131.662 76.313 131.854C76.4288 132.014 76.6763 132.219 76.6396 132.33C76.1158 133.011 78.5337 134.116 78.9245 133.729C81.0795 129.435 83.1921 125.793 86.5666 122.354C87.2366 121.514 88.9194 120.635 89.6412 121.734C93.3227 123.61 93.4801 127.666 93.072 131.285C94.1629 132.443 97.7561 129.376 99.5945 129.941C95.8122 131.341 91.7299 132.477 88.0451 134.193C83.8953 136.658 79.9476 135.976 76.2749 133.009C73.7879 131.315 71.1146 128.368 68.2164 131.026C67.96 131.206 67.6649 131.492 67.6108 130.869Z" fill="#FDB43D" id="svg_21" />
    </g>
    <g mask="url(#mask2_528_1101)" id="svg_22">
      <path fill-rule="evenodd" clip-rule="evenodd" d="M125.98 96.0666C126.952 97.3074 127.313 98.7643 127.464 100.293C125.526 99.5713 120.227 97.2324 119.68 101.145C119.431 107.68 127.266 105.532 123.267 102.708C122.655 103.152 120.878 104.049 120.697 102.808C120.969 99.9501 125.377 101.078 127.149 101.953C126.38 103.667 126.348 105.886 124.973 107.2C113.01 110.494 114.212 93.6729 125.98 96.0666Z" fill="#FD7115" id="svg_23" />
    </g>
    <path fill-rule="evenodd" clip-rule="evenodd" d="M76.2969 77.4285C76.9173 74.7797 78.4916 80.5607 80.3956 80.8029C83.8769 82.7023 86.7535 75.9456 82.7672 74.6725C79.726 73.4479 81.1193 78.4692 82.5052 76.6062C82.6546 76.2958 82.8735 75.9801 83.255 75.9548C83.7158 77.8192 80.818 81.0213 79.2726 79.1297C75.4943 74.5662 86.2934 67.2395 86.9614 74.3602C88.2227 83.2129 77.7489 88.5131 76.2969 77.4285Z" fill="#FD7115" id="svg_24" />
    <path fill-rule="evenodd" clip-rule="evenodd" d="M107.458 126.522C98.1687 131.042 102.558 119.232 105.353 124.143C107.182 124.668 104.839 121.845 104.189 121.509C101.315 119.342 98.5843 124.068 100.436 126.375C101.804 128.119 103.053 128.401 101.11 129.025C99.3162 130.666 99.3066 125.326 98.6983 124.098C97.7986 120.431 101.958 117.793 105.175 117.516C109.225 117.026 110.381 124.252 107.458 126.522Z" fill="#FD7115" id="svg_25" />
    <path fill-rule="evenodd" clip-rule="evenodd" d="M28.0076 110.881C26.9372 111.323 27.8361 112.655 27.7991 113.497C24.5847 112.593 21.4845 111.275 18.3091 110.094C15.7148 109.022 19.3961 108.256 19.9993 107.079C21.3055 106.187 22.3189 105.053 23.4589 104.053L23.4518 104.06C25.4571 102.948 28.1539 98.7953 27.2385 103.24C27.2953 105.719 27.4352 109.426 27.9751 110.857C27.986 110.865 27.9967 110.873 28.0076 110.881Z" fill="#F3292A" id="svg_26" />
    <g mask="url(#mask3_528_1101)" id="svg_27" class="" fill="#ffffff" fill-opacity="1">
      <path fill-rule="evenodd" clip-rule="evenodd" d="M53.7798 0.202759C60.5642 1.56565 63.913 1.97198 56.2842 5.68514C61.181 6.9659 62.5224 9.29934 56.94 11.0886C57.6901 11.7085 58.6044 12.0916 59.4046 12.641C60.6392 13.3535 59.2833 15.1283 58.1932 14.3367C55.9868 13.2596 52.34 10.8198 56.2485 9.20379C56.63 8.8185 58.7188 8.58656 57.7556 8.05487C56.2883 7.07272 53.4919 7.63466 52.9248 5.68002C53.0469 4.40325 57.0839 3.49014 58.2383 2.75495C57.2061 2.07424 51.7683 1.84685 53.7798 0.202759Z" fill="#ffffff" id="svg_28" fill-opacity="1" />
    </g>
    <path fill-rule="evenodd" clip-rule="evenodd" d="M122.502 88.6409C119.053 89.4089 115.104 89.9365 111.659 89.5122C110.973 85.6085 110.02 78.549 114.721 76.9814C115.533 76.6475 116.275 76.3282 117.155 76.4396C117.834 75.9237 118.014 75.9601 118.419 76.7177C118.63 77.2464 118.215 78.0476 118.86 78.5826C117.606 79.0594 116.245 79.3335 115.08 79.9736C111.435 81.9302 114.333 86.4894 116.978 87.9615C119.665 90.7585 122.933 85.4715 122.502 88.6409Z" fill="#FD7115" id="svg_29" />
    <path fill-rule="evenodd" clip-rule="evenodd" d="M107.458 126.522C110.383 124.253 109.223 117.025 105.175 117.516C101.959 117.791 97.7973 120.432 98.6983 124.097C101.271 132.74 98.3096 129.24 97.0677 123.295C95.9227 119.533 99.1736 116.498 102.527 115.544C108.188 113.489 115.625 126.878 107.458 126.522Z" fill="#CA0357" id="svg_30" />
    <path fill-rule="evenodd" clip-rule="evenodd" d="M97.6919 46.2429C97.5538 46.1854 97.45 46.138 97.4088 46.2871C97.4787 46.4645 97.5049 46.394 97.6919 46.2429ZM97.3982 44.1143C101.2 46.385 100.25 46.1983 100.345 41.9999C100.197 38.2358 108.026 42.6337 107.241 44.5963C105.589 45.6736 103.883 43.3019 102.295 42.8708C101.833 44.4718 103.393 48.0907 101.029 48.3247C94.568 44.9871 99.3566 47.5824 96.4672 50.4053C96.0639 49.1273 94.84 43.5705 97.2723 44.1049C97.339 44.1707 97.3768 44.2288 97.4033 44.1041L97.3982 44.1143Z" fill="#ffffff" id="svg_31" class="" fill-opacity="1" />
    <path fill-rule="evenodd" clip-rule="evenodd" d="M44.7338 131.281C44.7325 128.599 43.5169 125.467 44.2271 122.982C45.0352 122.832 46.859 121.13 47.2321 122.213C47.2411 129.758 57.6127 132.685 44.7338 131.281Z" fill="#CA0357" id="svg_32" />
    <path fill-rule="evenodd" clip-rule="evenodd" d="M34.6265 131.3C31.9786 128.513 39.4476 126.354 41.2429 124.462C43.6583 133.202 42.9605 131.703 34.6265 131.3Z" fill="#CA0357" id="svg_33" />
    <path fill-rule="evenodd" clip-rule="evenodd" d="M93.8587 18.5931C93.6641 20.3604 96.2998 17.9629 96.9331 17.7672C94.201 15.1332 93.5375 13.8377 93.8587 18.5931ZM92.858 21.8556C91.3296 21.1466 92.1991 18.8011 92.1371 17.4495C91.858 14.6391 92.8951 10.6881 95.9675 14.029C103.706 18.5653 97.4417 19.0954 92.858 21.8556Z" fill="#ffffff" id="svg_34" class="" fill-opacity="1" />
    <path fill-rule="evenodd" clip-rule="evenodd" d="M23.7866 16.8182C22.7519 17.4438 20.444 17.4075 20.1789 18.5802C20.9367 19.3928 21.3283 21.2126 22.5333 21.2879C26.7692 19.9007 24.1694 19.8682 23.7866 16.8182ZM22.3194 23.5916C20.8328 23.6354 17.3922 17.9185 19.0196 17.103C20.9617 16.8109 24.1994 13.6616 25.4662 16.1509C29.3717 21.9202 26.8962 20.7885 22.3194 23.5916Z" fill="#ffffff" id="svg_35" class="" fill-opacity="1" />
    <path fill-rule="evenodd" clip-rule="evenodd" d="M19.9703 51.7712C25.7309 50.4099 23.3396 52.6706 21.9847 55.9654C22.9445 56.3181 24.8542 55.4778 24.9979 57.1912C24.4437 58.7176 21.2871 57.2221 20.5861 57.6697C16.9892 56.7431 24.7763 51.388 18.9905 53.9449C13.7282 54.0801 23.2815 48.8128 16.2228 50.0748C14.2937 48.8587 17.6239 48.7787 18.4808 48.5273C23.0198 47.5188 20.6032 50.138 19.9703 51.7712Z" fill="#ffffff" id="svg_36" class="" fill-opacity="1" />
    <path fill-rule="evenodd" clip-rule="evenodd" d="M125.98 96.0666C114.203 93.6783 113.018 110.494 124.973 107.201C125.696 107.669 124.692 108.367 124.634 108.983C124.548 109.356 124.148 110.478 123.781 109.585C123.519 109.078 122.324 108.595 122.527 109.645C118.177 109.988 115.753 104.454 115.379 100.759C114.647 95.5233 123.599 92.1031 125.98 96.0666Z" fill="#CA0357" id="svg_37" />
    <path fill-rule="evenodd" clip-rule="evenodd" d="M76.2969 77.4285C77.7511 88.5168 88.2247 83.2072 86.9607 74.3599C87.0263 72.3627 86.0321 71.8739 84.177 71.2925C82.0476 70.4702 85.3407 69.8735 86.1266 71.4411C92.0475 75.8165 86.7738 89.2572 79.0036 83.9051C77.1204 82.341 74.617 79.9564 76.2969 77.4285Z" fill="#CA0357" id="svg_38" />
    <path fill-rule="evenodd" clip-rule="evenodd" d="M62.6852 66.3099C63.6702 69.6975 69.2927 66.9054 66.8193 64.3554C65.3728 62.2115 62.1475 63.893 62.6852 66.3099ZM61.3484 66.2696C61.0108 61.3464 68.2294 60.3878 68.9301 65.3871C69.0259 70.0978 61.9945 71.357 61.3484 66.2696Z" fill="#ffffff" id="svg_39" class="" fill-opacity="1" />
    <path fill-rule="evenodd" clip-rule="evenodd" d="M122.073 87.2973C116.98 92.7378 107.471 79.9819 118.822 78.6071C120.369 80.7537 117.075 80.1311 115.905 81.5031C111.218 84.7221 120.233 89.0958 120.905 84.4515C121.294 85.4001 121.684 86.3487 122.073 87.2973Z" fill="#CA0357" id="svg_40" />
    <path fill-rule="evenodd" clip-rule="evenodd" d="M127.149 101.953C125.607 100.585 118.828 100.598 121.274 103.398C122.049 103.471 122.658 103.114 123.267 102.709C124.772 102.82 124.75 105.588 122.783 105.52C119.84 105.781 118.099 99.4102 121.609 99.0766C123.442 98.8871 128.304 99.1697 127.149 101.953Z" fill="#CA0357" id="svg_41" />
    <path fill-rule="evenodd" clip-rule="evenodd" d="M120.905 84.4515C118.693 90.3696 108.959 82.1358 119.418 80.0162C121.411 84.2917 117.955 80.5325 117.679 83.5367C118.725 86.5388 118.215 82.8205 120.554 83.9193L120.54 83.915C120.726 84.0493 120.813 84.2485 120.905 84.4515Z" fill="#FD7115" id="svg_42" />
    <path fill-rule="evenodd" clip-rule="evenodd" d="M78.7608 75.0003C77.1172 80.484 83.0069 81.3227 83.2554 75.9546C82.3854 75.9523 82.5344 77.7225 81.6011 76.8452C78.5121 72.4737 87.3753 74.9987 84.1054 79.4176C82.021 84.2638 74.1693 77.0731 78.7608 75.0003Z" fill="#CA0357" id="svg_43" />
    <path fill-rule="evenodd" clip-rule="evenodd" d="M102.515 128.613C96.3399 124.674 102.749 116.587 106.032 124.019C105.946 124.503 105.357 124.373 105.258 123.941C103.931 120.441 99.9674 126.304 102.625 127.253C108.403 127.227 107.777 126.949 102.515 128.613Z" fill="#CA0357" id="svg_44" />
    <path fill-rule="evenodd" clip-rule="evenodd" d="M18.3093 110.094C20.6829 111.277 23.4668 111.631 25.6979 112.988C21.326 113.491 17.1593 116.737 18.3093 110.094Z" fill="#CA0357" id="svg_45" />
    <path fill-rule="evenodd" clip-rule="evenodd" d="M46.5532 78.1145C46.1714 79.7173 44.8568 87.3722 44.5475 83.3804C42.7134 81.5697 43.6073 77.7962 46.5532 78.1145Z" fill="#FD7115" id="svg_46" />
    <path fill-rule="evenodd" clip-rule="evenodd" d="M120.554 83.9192C119.502 83.627 118.679 83.6364 118.46 84.9054C115.611 82.4694 120.993 80.7316 120.554 83.9192Z" fill="#CA0357" id="svg_47" />
    <path fill-rule="evenodd" clip-rule="evenodd" d="M44.0704 78.8385C43.7994 79.419 43.8906 80.5622 43.3942 80.8426C42.8996 79.6691 42.5175 79.0019 44.0704 78.8385Z" fill="#CA0357" id="svg_48" />
    <path fill-rule="evenodd" clip-rule="evenodd" d="M118.86 78.5826C118.52 78.0985 118.228 77.6048 118.546 76.991C118.651 77.5216 118.756 78.0521 118.86 78.5826Z" fill="#FDB43D" id="svg_49" />
    <path fill-rule="evenodd" clip-rule="evenodd" d="M123.177 110.673C122.824 110.867 122.502 110.934 122.304 110.468C122.888 109.926 123.005 109.886 123.177 110.673Z" fill="#FDB43D" id="svg_50" />
    <path fill-rule="evenodd" clip-rule="evenodd" d="M122.063 109.835C122.587 109.383 122.857 110.207 122.193 110.309C121.561 110.313 122.222 109.961 122.063 109.835Z" fill="#FDB43D" id="svg_51" />
    <path fill-rule="evenodd" clip-rule="evenodd" d="M101.503 129.091C101.605 128.47 101.701 128.368 102.212 128.784C101.975 128.886 101.739 128.988 101.503 129.091Z" fill="#FDB43D" id="svg_52" />
    <path fill-rule="evenodd" clip-rule="evenodd" d="M40.9561 76.269C40.7974 75.7865 41.1181 75.8344 41.414 75.8552C41.5754 76.1627 41.1576 76.1477 40.9561 76.269Z" fill="#FD7115" id="svg_53" />
    <path fill-rule="evenodd" clip-rule="evenodd" d="M100.371 129.541C100.54 129.451 100.708 129.361 100.877 129.272C100.708 129.362 100.54 129.451 100.371 129.541Z" fill="#FDB43D" id="svg_54" />
    <path fill-rule="evenodd" clip-rule="evenodd" d="M123.732 110.826C123.717 110.689 123.702 110.552 123.687 110.415C123.999 110.504 124.002 110.535 123.732 110.826Z" fill="#FDB43D" id="svg_55" />
    <path fill-rule="evenodd" clip-rule="evenodd" d="M101.059 129.223C101.087 129.049 101.113 128.993 101.265 129.121C101.196 129.155 101.127 129.189 101.059 129.223Z" fill="#FDB43D" id="svg_56" />
    <path fill-rule="evenodd" clip-rule="evenodd" d="M76.3591 76.9652C76.3473 77.0399 76.3356 77.1148 76.3242 77.1892C76.3362 77.1143 76.3475 77.0397 76.3591 76.9652Z" fill="#CA0357" id="svg_57" />
    <path fill-rule="evenodd" clip-rule="evenodd" d="M97.2779 44.1146C97.4072 44.0093 97.2698 44.0081 97.3983 44.1144C97.4009 44.0964 97.2759 44.0975 97.2779 44.1146Z" fill="#0E0E0E" id="svg_58" />
    <path fill-rule="evenodd" clip-rule="evenodd" d="M120.732 84.0945C120.668 84.0347 120.604 83.9749 120.54 83.9152C120.604 83.9749 120.668 84.0347 120.732 84.0945Z" fill="#CA0357" id="svg_59" />
    <path fill-rule="evenodd" clip-rule="evenodd" d="M98.6647 44.7967L98.6499 44.7764C98.6646 44.7826 98.6814 44.7781 98.6647 44.7967Z" fill="#0E0E0E" id="svg_60" />
    <path fill-rule="evenodd" clip-rule="evenodd" d="M119.939 120.271C119.895 120.209 119.851 120.148 119.807 120.086C119.851 120.148 119.895 120.209 119.939 120.271Z" fill="#FD7115" id="svg_61" />
    <path fill-rule="evenodd" clip-rule="evenodd" d="M100.32 129.69C100.298 129.668 100.309 129.68 100.32 129.69C100.308 129.754 100.223 129.686 100.32 129.69Z" fill="#FDB43D" id="svg_62" />
    <path fill-rule="evenodd" clip-rule="evenodd" d="M45.8701 87.1056C51.0715 97.8589 50.8355 95.7104 43.7859 104.369C43.0461 106.022 40.8788 107.108 40.9831 108.959C40.9742 109.378 40.8968 109.69 40.4392 109.711C38.2511 110.832 38.0385 115.457 34.8251 115.092C31.8795 114.679 30.3947 115.374 30.9437 111.797C30.8758 108.85 30.6309 106.163 30.6133 103.28C30.3352 99.8383 30.4905 97.2015 33.8393 95.6315C36.9561 93.4135 39.7991 90.8988 42.9904 88.8184C42.1656 89.9808 45.3399 87.142 45.8701 87.1056Z" fill="#F3292A" id="svg_63" />
    <path fill-rule="evenodd" clip-rule="evenodd" d="M30.7412 114.526C32.7014 114.663 35.6533 116.027 37.0114 114.165C42.6196 107.067 40.8109 117.716 41.4164 121.323C39.6223 123.855 35.3212 124.885 32.9843 127.371C32.6839 127.608 32.5415 127.603 32.3274 127.282C29.4139 122.776 25.4687 119.223 21.0293 116.292C24.1801 115.751 27.6291 114.091 30.7412 114.526Z" fill="#CA0357" id="svg_64" />
    <path fill-rule="evenodd" clip-rule="evenodd" d="M68.3941 101.429C70.2945 101.932 72.7763 99.5418 71.6363 97.7753C69.3735 96.9959 68.6086 99.0462 68.1014 100.817C67.9131 101.241 68.0354 101.349 68.3941 101.429ZM70.4255 95.8694C76.7392 97.8495 74.3024 106.295 68.2571 102.132C67.5699 101.413 67.5873 103.65 66.0825 103.009C63.3626 101.686 60.6448 100.358 57.914 99.057C56.7433 98.1192 64.6959 88.8972 66.2575 89.125C70.3239 90.4627 74.0821 86.8338 70.9488 92.4348C71.348 93.6087 69.7259 94.7993 70.4255 95.8694Z" fill="#CA0357" id="svg_65" />
    <path fill-rule="evenodd" clip-rule="evenodd" d="M65.0817 109.182C62.5823 120.446 62.4438 113.62 50.0245 118.361C48.2557 119.272 51.2902 109.332 52.1724 109.066C56.6964 107.821 61.2273 106.603 65.7561 105.377C67.5078 105.331 65.1258 108.238 65.0817 109.182Z" fill="#CA0357" id="svg_66" />
    <path fill-rule="evenodd" clip-rule="evenodd" d="M74.0501 126.617C71.8464 126.804 66.8612 124.256 68.7088 122.063C68.2728 123.791 69.7273 125.234 71.4551 125.399C83.2227 127.423 82.026 105.94 70.8139 116.349C68.9775 118.226 71.2358 123.417 73.9422 121.461C75.2402 120.763 76.81 118.703 75.5076 117.372C74.4299 116.58 71.9893 119.104 74.9939 118.687C76.3605 120.673 72.3462 120.503 72.1885 118.691C71.5607 114.53 76.7178 116.071 77.3548 118.888C78.3022 121.844 74.1662 125.123 71.5618 122.403C66.0686 117.92 69.2563 112.378 75.7245 112.365C84.1503 113.398 82.2854 126.86 74.0501 126.617Z" fill="#CA0357" id="svg_67" />
    <path fill-rule="evenodd" clip-rule="evenodd" d="M43.2468 105.189C44.8966 102.503 47.1816 100.385 49.144 97.9302C50.3422 98.7059 53.9182 98.8122 53.9944 100.131C52.4335 102.473 51.6244 105.644 49.625 107.546C45.2933 107.905 42.271 111.606 43.2468 105.189Z" fill="#CA0357" id="svg_68" />
    <path fill-rule="evenodd" clip-rule="evenodd" d="M48.9358 109.835C48.0674 112.958 47.6983 116.824 46.5939 119.612C42.472 121.773 43.8277 119.948 43.3889 116.622C42.855 110.334 43.0267 111.046 48.9358 109.835Z" fill="#CA0357" id="svg_69" />
    <path fill-rule="evenodd" clip-rule="evenodd" d="M52.8994 106.758C56.4361 98.5512 55.9741 100.432 63.2177 103.696C61.6918 105.245 55.8608 105.613 52.8994 106.758Z" fill="#CA0357" id="svg_70" />
    <path fill-rule="evenodd" clip-rule="evenodd" d="M103.42 102.441C102.809 106.933 109.589 102.25 106.798 101.133C106.436 101.274 105.597 101.797 106.349 101.807C107.972 104.594 101.935 101.152 104.937 100.015C113.902 99.6992 104.949 110.197 102.356 102.603C101.912 101.032 103.798 97.4882 105.502 99.0767C103.907 99.2347 103.447 101.058 103.42 102.441Z" fill="#CA0357" id="svg_71" />
    <path fill-rule="evenodd" clip-rule="evenodd" d="M65.0815 109.182C65.6753 107.168 68.6833 107.047 70.3356 105.976C72.9158 105.179 75.0599 108.23 77.2215 108.93C77.6318 110.407 75.3591 108.602 74.771 108.288C71.8184 105.625 67.3256 110.018 65.0815 109.182Z" fill="#FDB43D" id="svg_72" />
    <path fill-rule="evenodd" clip-rule="evenodd" d="M69.6724 87.4306C64.6804 87.9436 72.6507 83.7723 74.2283 83.1159C75.1919 83.0543 73.5551 85.857 73.4766 86.7963C72.6233 87.5177 70.5887 87.5019 69.6724 87.4306Z" fill="#CA0357" id="svg_73" />
    <path fill-rule="evenodd" clip-rule="evenodd" d="M70.4253 95.8694C69.9252 95.3467 70.475 94.4479 70.7251 93.9268C71.0243 92.2685 71.5073 90.899 72.3484 89.4011C73.0037 88.7959 70.6742 94.4824 70.4253 95.8694Z" fill="#F3292A" id="svg_74" />
    <path fill-rule="evenodd" clip-rule="evenodd" d="M81.3293 126.406C81.2305 126.785 81.2674 127.323 80.8893 127.452C79.9486 127.494 81.1757 125.573 81.3293 126.406Z" fill="#FDB43D" id="svg_75" />
    <path fill-rule="evenodd" clip-rule="evenodd" d="M81.9488 125.808C81.7384 125.933 81.6792 126.063 81.5244 125.857C81.6837 125.709 81.7236 125.639 81.9488 125.808Z" fill="#FDB43D" id="svg_76" />
    <path fill-rule="evenodd" clip-rule="evenodd" d="M65.7717 109.403C65.7572 109.42 65.7526 109.468 65.7275 109.428L65.7717 109.403Z" fill="#FDB43D" id="svg_77" />
    <path fill-rule="evenodd" clip-rule="evenodd" d="M88.4211 106.602C79.0304 106.13 81.2618 90.6189 89.78 91.0539C87.3099 92.767 84.1595 94.2454 83.8051 97.6066C83.5927 99.9126 82.9106 104.524 86.1739 104.723C94.9674 106.348 95.5888 92.2567 86.937 98.0889C84.3493 101.588 89.6394 100.522 88.2838 98.9498C87.3265 96.5252 90.6256 98.9437 90.4439 100.267C87.8013 106.957 80.2575 94.7808 89.0776 94.9972C96.5906 95.6629 96.7239 106.658 88.4211 106.602Z" fill="#CA0357" id="svg_78" />
    <path fill-rule="evenodd" clip-rule="evenodd" d="M101.486 78.2223C101.289 78.8761 101.848 78.8713 102.243 78.6194C102.627 78.158 102.79 78.4508 102.996 78.7438C104.791 82.1548 99.8165 79.9185 100.04 77.6392C102.411 70.8069 111.266 81.2967 104.026 83.6793C100.857 85.439 98.7962 81.8763 97.7113 79.3684C96.5288 76.6255 100.251 73.1294 102.765 73.3652C96.2787 77.9815 98.3821 86.1783 104.916 80.023C106.588 77.8744 104.051 76.638 102.208 77.7734C101.64 76.5486 100.253 77.8191 101.486 78.2223Z" fill="#CA0357" id="svg_79" />
    <path fill-rule="evenodd" clip-rule="evenodd" d="M101.485 78.2223C101.28 78.0649 100.789 78.1191 101.005 77.6504C101.447 76.5237 102.782 77.9037 101.485 78.2223Z" fill="#FDB43D" id="svg_80" />
    <path fill-rule="evenodd" clip-rule="evenodd" d="M93.6594 89.671C92.9807 89.19 92.8641 89.0152 93.6163 88.7256C94.038 88.8867 94.0125 89.2558 93.6594 89.671Z" fill="#FDB43D" id="svg_81" />
    <path fill-rule="evenodd" clip-rule="evenodd" d="M27.5486 87.1083C27.0383 90.2569 28.0143 94.064 26.7149 96.939C25.2621 97.9419 23.8988 99.0323 22.8405 100.465C21.2506 100.814 19.8884 102.373 19.1079 103.839C18.3315 104.177 18.4008 103.873 17.7593 104.705C15.9094 106.753 16.7482 103.255 16.8781 102.185C17.38 100.398 16.8896 98.5795 17.3906 96.7715C17.7998 94.5849 17.365 87.9742 19.0253 86.9706C20.3618 85.9176 21.9346 86.9843 23.1375 86.0655C23.5394 85.3536 24.8205 85.4475 25.6029 85.1278C27.291 84.3799 27.7555 85.5935 27.5486 87.1083Z" fill="#F3292A" id="svg_82" />
    <path fill-rule="evenodd" clip-rule="evenodd" d="M43.3941 80.8424C43.944 81.3665 43.626 82.7784 44.4999 83.3526C40.4081 86.7845 35.1164 89.5402 31.2579 93.1991C29.9882 94.3772 30.881 91.0708 30.7728 90.4476C30.5144 89.393 30.1368 84.1689 31.2176 84.0346C31.8242 84.1019 32.5321 83.9337 32.9757 83.3349C33.5461 83.9749 34.0181 82.8882 34.5699 83.2447C34.8569 82.8601 35.4547 83.251 35.6503 82.6342C36.4692 83.1754 37.0074 82.1554 37.7928 82.3169C38.1273 82.3137 38.2656 83.1015 38.734 82.5534C39.123 81.8659 39.9651 82.0799 40.3935 81.7589C41.3485 80.9839 42.3721 81.4686 43.3941 80.8424Z" fill="#F3292A" id="svg_83" />
    <path fill-rule="evenodd" clip-rule="evenodd" d="M40.3936 81.7586C38.3984 82.1041 38.9696 83.2749 37.793 82.3167C38.6657 81.9333 39.4401 81.064 40.3936 81.7586Z" fill="#FD7115" id="svg_84" />
    <path fill-rule="evenodd" clip-rule="evenodd" d="M38.8013 76.6663C39.2668 75.6609 41.6832 75.7801 40.1593 76.5304C39.6283 76.4798 38.9191 77.4664 38.8013 76.6663Z" fill="#FD7115" id="svg_85" />
    <path fill-rule="evenodd" clip-rule="evenodd" d="M23.2422 85.7759C23.201 86.7314 20.3704 86.6871 22.1039 86.0251C22.8724 86.2143 22.1145 85.5324 23.2422 85.7759Z" fill="#FD7115" id="svg_86" />
    <path fill-rule="evenodd" clip-rule="evenodd" d="M29.2398 89.4438C28.6654 90.1284 28.5902 89.7922 28.1475 89.2983C28.5512 88.85 28.7218 89.1763 29.2398 89.4438Z" fill="#FD7115" id="svg_87" />
    <path fill-rule="evenodd" clip-rule="evenodd" d="M23.7973 85.6035C23.6177 85.6557 23.4382 85.7079 23.2588 85.7603C23.4385 85.7082 23.6179 85.6558 23.7973 85.6035Z" fill="#FD7115" id="svg_88" />
    <path fill-rule="evenodd" clip-rule="evenodd" d="M43.8052 84.2374C43.9239 84.1352 44.0427 84.0332 44.1615 83.9312C44.2133 84.2318 44.2074 84.4652 43.8052 84.2374Z" fill="#FD7115" id="svg_89" />
    <path fill-rule="evenodd" clip-rule="evenodd" d="M38.0171 76.8878C38.2071 76.8501 38.397 76.8124 38.5869 76.7749C38.3969 76.8127 38.2071 76.8502 38.0171 76.8878Z" fill="#FD7115" id="svg_90" />
    <path fill-rule="evenodd" clip-rule="evenodd" d="M27.5518 87.1045C27.8136 86.7235 27.8128 87.0816 27.8886 87.2242C27.8032 87.1725 27.6437 87.1543 27.5518 87.1045Z" fill="#F3292A" id="svg_91" />
    <path fill-rule="evenodd" clip-rule="evenodd" d="M30.738 107.585C30.6849 107.64 30.6663 107.821 30.5806 107.76C30.6355 107.706 30.6816 107.623 30.738 107.585Z" fill="#F3292A" id="svg_92" />
    <path fill-rule="evenodd" clip-rule="evenodd" d="M14.0508 98.4191C14.0995 98.4069 14.1447 98.3698 14.1742 98.4288C14.1246 98.4426 14.0814 98.4834 14.0508 98.4191Z" fill="#F3292A" id="svg_93" />
    <path fill-rule="evenodd" clip-rule="evenodd" d="M27.8887 87.2242C27.9607 87.2415 28.0726 87.2262 27.999 87.3144C27.9591 87.2868 27.9275 87.2338 27.8887 87.2242Z" fill="#F3292A" id="svg_94" />
    <path fill-rule="evenodd" clip-rule="evenodd" d="M29.8621 114.227C29.7712 114.245 29.6802 114.263 29.5894 114.281C29.6801 114.263 29.7711 114.245 29.8621 114.227Z" fill="#FD7115" id="svg_95" />
    <path fill-rule="evenodd" clip-rule="evenodd" d="M30.2645 102.366C30.2167 102.424 30.2096 102.36 30.1943 102.315C30.2298 102.256 30.2462 102.326 30.2645 102.366Z" fill="#F3292A" id="svg_96" />
    <path fill-rule="evenodd" clip-rule="evenodd" d="M27.4185 102.895C27.3957 102.939 27.373 103.014 27.3384 102.945C27.3575 102.895 27.378 102.826 27.4185 102.895Z" fill="#F3292A" id="svg_97" />
    <path fill-rule="evenodd" clip-rule="evenodd" d="M23.459 104.053C23.4424 104.039 23.4258 104.026 23.4092 104.012C23.4512 104 23.4416 104.065 23.459 104.053Z" fill="#F3292A" id="svg_98" />
    <path fill-rule="evenodd" clip-rule="evenodd" d="M30.9156 72.126L30.9282 72.1616C30.8891 72.1595 30.8937 72.1534 30.9156 72.126Z" fill="#F3292A" id="svg_99" />
    <path fill-rule="evenodd" clip-rule="evenodd" d="M14.0696 94.5302C14.0864 94.564 14.0878 94.5696 14.0479 94.5627L14.0696 94.5302Z" fill="#F3292A" id="svg_100" />
    <path fill-rule="evenodd" clip-rule="evenodd" d="M27.5106 93.8837L27.4712 93.8946C27.4726 93.8519 27.4839 93.8656 27.5106 93.8837Z" fill="#F3292A" id="svg_101" />
    <path fill-rule="evenodd" clip-rule="evenodd" d="M35.0754 63.2637C34.8814 61.9069 37.9071 60.9897 37.7946 62.6073C38.1093 62.7106 38.5119 62.8973 38.6825 62.3663C39.116 62.3375 39.5152 62.8386 38.9045 63.0058C38.447 63.4138 38.0757 62.5708 37.905 63.4007C37.849 63.5949 36.8559 63.754 37.1254 63.287C37.1071 63.2406 36.8043 63.0295 36.8413 62.9231C37.3056 62.5942 36.7684 62.0917 36.2965 62.484C35.7716 62.6696 35.6688 63.2647 35.0754 63.2637Z" fill="#CA0357" id="svg_102" />
    <path fill-rule="evenodd" clip-rule="evenodd" d="M49.8523 32.0789C50.7826 30.8562 50.0873 32.3497 50.927 32.4052C50.9961 32.3976 51.1659 32.5962 51.1472 32.651C50.6358 33.1372 50.2846 33.6453 50.2579 34.3831C49.5296 36.2339 49.767 32.656 49.8523 32.0789Z" fill="#CA0357" id="svg_103" />
    <path fill-rule="evenodd" clip-rule="evenodd" d="M37.3936 61.8542C34.6686 62.519 37.4917 58.8454 38.1046 60.0089C38.3629 60.4222 37.7679 60.1109 37.6514 59.9076C37.6443 60.0608 37.5165 60.3853 37.5379 60.4246C37.8812 60.4076 37.1857 61.0843 37.1495 61.293C37.1439 61.4399 37.7919 61.6158 37.3936 61.8542Z" fill="#FDB43D" id="svg_104" />
    <path fill-rule="evenodd" clip-rule="evenodd" d="M46.0557 45.5149C46.7165 45.4688 47.3213 45.5415 47.6804 46.2145C47.8352 46.16 48.4792 46.4043 48.1002 46.5657C46.7343 46.6218 47.5559 46.6026 46.9427 47.4168C46.7985 46.6509 46.6919 45.8751 46.0557 45.5149Z" fill="#CA0357" id="svg_105" />
    <path fill-rule="evenodd" clip-rule="evenodd" d="M44.8945 48.465C44.9576 48.3386 45.0205 48.2122 45.0834 48.0857C45.0206 48.2825 45.5585 48.0618 45.3083 48.4092C45.3225 49.1205 46.6299 48.1011 46.0988 48.8114C45.3324 51.304 46.0731 49.5028 44.8945 48.465Z" fill="#CA0357" id="svg_106" />
    <path fill-rule="evenodd" clip-rule="evenodd" d="M41.1748 45.7941C41.2312 45.1286 42.2626 45.5013 42.3298 46.0303C42.3439 46.6715 41.8925 47.5776 41.6943 46.5955C41.8564 46.089 41.9001 45.8553 41.1748 45.7941Z" fill="#CA0357" id="svg_107" />
    <path fill-rule="evenodd" clip-rule="evenodd" d="M40.3932 56.3943C40.0824 56.3826 40.432 55.8546 40.5287 55.8203C40.983 55.7098 40.8267 55.3868 40.8489 55.1206C41.6119 53.7671 41.7565 56.5213 40.3932 56.3943Z" fill="#FDB43D" id="svg_108" />
    <path fill-rule="evenodd" clip-rule="evenodd" d="M40.1852 58.2017C39.6475 58.8141 40.3497 56.9222 39.3027 56.9803C41.1928 56.4196 40.2168 56.729 40.1852 58.2017Z" fill="#CA0357" id="svg_109" />
    <path fill-rule="evenodd" clip-rule="evenodd" d="M47.8216 34.1366C47.3982 34.024 46.5614 34.1341 46.9632 33.5123C47.5034 32.9367 47.7639 33.5798 47.8216 34.1366Z" fill="#CA0357" id="svg_110" />
    <path fill-rule="evenodd" clip-rule="evenodd" d="M38.4123 39.3899C37.8413 40.241 37.6496 39.009 38.0522 38.6392C38.1724 38.8895 38.2923 39.1397 38.4123 39.3899Z" fill="#FDB43D" id="svg_111" />
    <path fill-rule="evenodd" clip-rule="evenodd" d="M36.1352 61.3457C36.1189 61.3937 36.1028 61.4417 36.0872 61.4894C36.0566 61.4093 36.0275 61.3459 36.1352 61.3457Z" fill="#CA0357" id="svg_112" />
    <path fill-rule="evenodd" clip-rule="evenodd" d="M69.493 36.5511C69.3113 36.6752 69.3023 36.7158 69.4698 36.8199C69.6169 36.7862 69.5617 36.6817 69.493 36.5511ZM68.4434 35.0977C69.2489 33.4276 68.5499 34.3761 69.7279 34.6488C69.423 35.3927 69.8469 36.0099 70.0073 36.6761C69.5468 37.1064 70.2163 37.0683 70.3781 37.5438C69.4657 37.844 70.7323 38.0433 70.4944 38.6658C69.5833 37.3205 68.9876 36.9614 68.4434 35.0977Z" fill="#CA0357" id="svg_113" />
    <path fill-rule="evenodd" clip-rule="evenodd" d="M71.9436 38.6241C71.766 38.0328 71.6062 37.862 71.2173 38.3989C72.3356 37.1178 70.3452 36.7185 72.9879 36.8662C72.4293 36.9452 71.3475 37.3564 72.246 37.6544C72.6014 37.5963 73.3704 36.6244 73.409 37.3032C73.5664 38.1117 72.0026 39.4764 73.3231 39.6757C72.6179 40.2251 71.9692 39.2888 71.9436 38.6241Z" fill="#CA0357" id="svg_114" />
    <path fill-rule="evenodd" clip-rule="evenodd" d="M70.4312 44.3269C70.5739 44.5072 70.7168 44.6875 70.8977 44.9159C68.3749 43.6635 70.8811 41.7091 70.4312 44.3269Z" fill="#CA0357" id="svg_115" />
    <path fill-rule="evenodd" clip-rule="evenodd" d="M79.2632 56.94C79.5489 56.0884 79.8155 56.758 80.2002 57.1697L80.1918 57.1634C80.5212 57.69 79.8779 57.6851 79.7651 58.0991C79.5887 57.7533 79.433 57.3163 79.2632 56.94Z" fill="#CA0357" id="svg_116" />
    <path fill-rule="evenodd" clip-rule="evenodd" d="M80.283 53.3054C79.7006 52.9719 80.0858 51.5341 80.5501 52.1399C79.9208 52.5673 81.3081 53.7083 80.283 53.3054Z" fill="#FDB43D" id="svg_117" />
    <path fill-rule="evenodd" clip-rule="evenodd" d="M79.4334 49.3511C79.3206 49.8988 77.9443 50.4127 78.0585 49.5639C78.5175 49.1671 78.8276 50.1937 78.9608 49.2308C79.0097 49.6888 79.1609 49.0353 79.4334 49.3511Z" fill="#CA0357" id="svg_118" />
    <path fill-rule="evenodd" clip-rule="evenodd" d="M80.919 59.0383C81.3983 59.0611 81.1706 59.2883 81.0019 59.413C80.2738 60.0452 79.5921 58.3286 80.919 59.0383Z" fill="#FDB43D" id="svg_119" />
    <path fill-rule="evenodd" clip-rule="evenodd" d="M71.4824 40.0784C71.1392 40.1251 70.7556 40.1059 70.773 40.5866C70.238 40.3421 71.0468 39.4177 71.4824 40.0784Z" fill="#CA0357" id="svg_120" />
    <path fill-rule="evenodd" clip-rule="evenodd" d="M79.7651 58.0991C79.9981 58.1836 80.231 58.268 80.5426 58.3811C80.1363 58.5151 79.7951 58.5885 79.7651 58.0991Z" fill="#CA0357" id="svg_121" />
    <path fill-rule="evenodd" clip-rule="evenodd" d="M69.6356 43.5426C69.4825 43.3239 69.1733 43.1514 69.5299 42.9851C69.5566 43.1683 69.6356 43.3686 69.6356 43.5426Z" fill="#CA0357" id="svg_122" />
    <path fill-rule="evenodd" clip-rule="evenodd" d="M70.3746 39.4009C70.4024 39.4911 70.327 39.4614 70.2622 39.4545C70.3002 39.4363 70.3374 39.4186 70.3746 39.4009Z" fill="#CA0357" id="svg_123" />
    <path fill-rule="evenodd" clip-rule="evenodd" d="M70.1125 39.5845C70.1669 39.7075 70.0078 39.6184 70.0741 39.5618C70.0742 39.5618 70.1125 39.5845 70.1125 39.5845Z" fill="#CA0357" id="svg_124" />
    <path fill-rule="evenodd" clip-rule="evenodd" d="M79.0415 56.8586L79.0619 56.8624C79.0537 56.8646 79.0417 56.8736 79.0415 56.8586Z" fill="#CA0357" id="svg_125" />
    <path fill-rule="evenodd" clip-rule="evenodd" d="M78.7488 56.8995L78.7799 56.9237C78.7783 56.9194 78.7319 56.9075 78.7488 56.8995Z" fill="#CA0357" id="svg_126" />
    <path fill-rule="evenodd" clip-rule="evenodd" d="M91.8027 63.0928C91.939 63.1249 92.1475 63.0764 91.9894 63.2519C91.9254 63.2053 91.8662 63.1129 91.8027 63.0928Z" fill="#FD7115" id="svg_127" />
    <path fill-rule="evenodd" clip-rule="evenodd" d="M91.9368 63.7892C91.9489 63.7394 91.9613 63.6897 91.9735 63.6399L91.9336 63.7865L91.9368 63.7892Z" fill="#FD7115" id="svg_128" />
    <path fill-rule="evenodd" clip-rule="evenodd" d="M70.1033 129.563C70.0176 129.627 69.932 129.691 69.8462 129.754C69.9317 129.691 70.0175 129.627 70.1033 129.563Z" fill="#FD7115" id="svg_129" />
    <path fill-rule="evenodd" clip-rule="evenodd" d="M90.5752 124.888C89.6308 127.488 90.8825 131.258 89.0608 133.337C87.839 133.653 80.198 137.776 81.0512 134.346C81.6589 132.522 89.4121 121.757 90.5752 124.888Z" fill="#FD7115" id="svg_130" />
    <path fill-rule="evenodd" clip-rule="evenodd" d="M76.2112 132.258C76.1914 132.234 76.2013 132.246 76.2112 132.258C76.2052 132.339 76.1115 132.247 76.2112 132.258Z" fill="#FD7115" id="svg_131" />
    <path fill-rule="evenodd" clip-rule="evenodd" d="M28.0076 110.881C27.9967 110.873 27.986 110.865 27.9751 110.857C27.9859 110.863 27.9968 110.89 28.0076 110.881Z" fill="#FDB43D" id="svg_132" />
    <path fill-rule="evenodd" clip-rule="evenodd" d="M44.499 83.3535C44.5153 83.3625 44.5313 83.3714 44.5475 83.3804C44.5311 83.3722 44.516 83.3594 44.499 83.3535Z" fill="#F3292A" id="svg_133" />
    <path fill-rule="evenodd" clip-rule="evenodd" d="M69.4225 98.0452C73.824 95.9645 71.6098 102.384 68.3936 101.428C68.656 100.25 69.483 99.338 69.4225 98.0452Z" fill="#FD7115" id="svg_134" />
    <path fill-rule="evenodd" clip-rule="evenodd" d="M69.4227 98.0453C69.4828 99.3389 68.6566 100.249 68.3937 101.429C67.5388 101.288 68.8744 98.3553 69.4227 98.0453Z" fill="#F3292A" id="svg_135" />
    <path fill-rule="evenodd" clip-rule="evenodd" d="M65.3014 108.608C65.2382 108.719 65.1752 108.83 65.1123 108.94C65.1756 108.83 65.2383 108.719 65.3014 108.608Z" fill="#FD7115" id="svg_136" />
    <path fill-rule="evenodd" clip-rule="evenodd" d="M31.3082 93.247C31.281 93.2385 31.256 93.2335 31.2579 93.1992C31.2745 93.2122 31.2899 93.2611 31.3082 93.247Z" fill="#FDB43D" id="svg_137" />
    <path fill-rule="evenodd" clip-rule="evenodd" d="M45.7783 37.185C45.5423 37.4111 46.0332 37.5822 46.1859 37.7267C46.5615 37.5166 45.9532 37.3536 45.7783 37.185ZM45.7405 35.958C46.1469 36.6695 45.9943 35.4779 46.3802 35.9121C46.5722 36.1006 47.87 36.3332 47.1482 36.6465C46.7071 36.7458 46.9212 36.7267 47.2188 37.0164C46.0627 37.2623 46.6112 38.3586 46.8691 39.1284C46.3391 39.3556 45.593 39.1863 46.106 39.8387C45.9338 40.0689 45.2525 40.9325 45.3301 40.2C45.9862 39.6163 45.1292 39.2731 45.1162 38.8004C44.3815 39.1258 44.6369 38.3764 44.4142 38.147C44.207 37.5537 46.1924 37.7432 45.5793 37.1038C45.4991 36.9402 45 36.6289 45.7055 36.7112C45.863 36.6261 45.4673 36.1802 45.7405 35.958Z" fill="#0E0E0E" id="svg_138" class="" />
    <path fill-rule="evenodd" clip-rule="evenodd" d="M39.4312 60.4861C39.3668 60.633 39.2876 60.7829 39.4526 60.841C39.7213 60.7579 39.6589 60.7343 39.4312 60.4861ZM37.3936 61.8541C37.6799 61.4371 38.3453 61.6071 38.7261 61.3573C38.7165 61.3707 38.707 61.3841 38.6975 61.3974C38.9071 59.4172 42.3109 60.4546 39.7917 61.7163C40.1803 62.0914 39.5305 62.3784 39.7683 62.8313C38.0102 61.8847 39.1087 63.0126 37.7944 62.6075C37.7088 62.4316 37.9778 61.7938 37.3936 61.8541Z" fill="#0E0E0E" id="svg_139" />
    <path fill-rule="evenodd" clip-rule="evenodd" d="M40.8388 61.0235C40.332 59.61 42.1472 59.2567 42.424 60.6009C41.9232 60.9733 41.2129 62.0589 40.8388 61.0235Z" fill="#CA0357" id="svg_140" />
    <path fill-rule="evenodd" clip-rule="evenodd" d="M40.1985 58.1794C40.8911 58.3717 41.2137 57.8716 42.5006 58.1438C42.1655 58.3837 41.8389 58.4893 41.9384 58.9708C41.9221 59.5416 41.5184 58.9048 41.2089 58.922C40.7941 59.7404 40.1023 58.7534 40.1985 58.1794Z" fill="#CA0357" id="svg_141" />
    <path fill-rule="evenodd" clip-rule="evenodd" d="M39.0334 60.8883C38.7969 61.5455 37.5179 61.9187 37.1494 61.2932C37.3488 60.4352 38.6271 60.026 39.0334 60.8883Z" fill="#CA0357" id="svg_142" />
    <path fill-rule="evenodd" clip-rule="evenodd" d="M35.0753 63.2636C36.2099 62.949 36.1709 63.9691 35.3467 64.404C34.6249 64.5242 34.8726 63.6731 35.0753 63.2636Z" fill="#0E0E0E" id="svg_143" />
    <path fill-rule="evenodd" clip-rule="evenodd" d="M43.1417 48.3335C43.4328 49.1855 42.596 47.7808 42.5754 48.5428C42.4861 48.501 42.3665 48.4814 42.3159 48.4118C42.347 47.3593 44.1153 47.6703 43.1417 48.3335Z" fill="#CA0357" id="svg_144" />
    <path fill-rule="evenodd" clip-rule="evenodd" d="M48.5371 48.7858C48.1365 49.3178 47.8656 50.2194 47.2632 49.4647C47.2848 48.935 48.1982 48.9795 48.5371 48.7858Z" fill="#FDB43D" id="svg_145" />
    <path fill-rule="evenodd" clip-rule="evenodd" d="M43.2788 46.3794C44.0341 45.9047 43.8348 46.7284 44.0776 46.8693C43.683 47.8716 43.3141 47.06 43.2788 46.3794Z" fill="#FDB43D" id="svg_146" />
    <path fill-rule="evenodd" clip-rule="evenodd" d="M41.1747 45.7942C41.4788 45.8674 41.0275 46.1997 40.9663 46.3876C41.0358 46.1898 41.1053 45.992 41.1747 45.7942Z" fill="#0E0E0E" id="svg_147" />
    <path fill-rule="evenodd" clip-rule="evenodd" d="M43.3399 48.2756C43.3247 47.9052 43.3686 47.7931 43.7464 47.9214C43.6109 48.0393 43.4754 48.1575 43.3399 48.2756Z" fill="#FDB43D" id="svg_148" />
    <path fill-rule="evenodd" clip-rule="evenodd" d="M44.7632 48.0012C44.5425 48.121 44.4943 47.7279 44.3608 47.6006C44.5732 47.4343 44.6184 47.852 44.7632 48.0012Z" fill="#CA0357" id="svg_149" />
    <path fill-rule="evenodd" clip-rule="evenodd" d="M38.9934 60.7134C38.7585 60.5389 38.9355 60.3847 39.0537 60.1908C39.0563 60.3818 39.2728 60.6832 38.9934 60.7134Z" fill="#FDB43D" id="svg_150" />
    <path fill-rule="evenodd" clip-rule="evenodd" d="M34.3218 64.7416C34.4273 64.6265 34.47 64.6188 34.5781 64.712C34.4849 64.8232 34.4567 64.881 34.3218 64.7416Z" fill="#0E0E0E" id="svg_151" />
    <path fill-rule="evenodd" clip-rule="evenodd" d="M45.7286 35.948C45.7894 35.8162 45.6307 35.8735 45.7405 35.9582C45.7404 35.958 45.7286 35.948 45.7286 35.948Z" fill="#0E0E0E" id="svg_152" />
    <path fill-rule="evenodd" clip-rule="evenodd" d="M47.6372 34.5203C47.6289 34.5436 47.5957 34.5701 47.6432 34.569L47.6372 34.5203Z" fill="#CA0357" id="svg_153" />
    <path fill-rule="evenodd" clip-rule="evenodd" d="M47.9845 49.8493C47.972 49.8414 47.9593 49.8333 47.9468 49.8253C47.9593 49.8333 47.972 49.8414 47.9845 49.8493Z" fill="#FDB43D" id="svg_154" />
    <path fill-rule="evenodd" clip-rule="evenodd" d="M52.0746 31.7574C52.0719 31.7067 52.0691 31.656 52.0664 31.6052C52.1121 31.6627 52.1492 31.7109 52.0746 31.7574Z" fill="#0E0E0E" id="svg_155" />
    <path fill-rule="evenodd" clip-rule="evenodd" d="M74.3636 36.8494C74.2372 36.8726 74.1215 36.8567 74.2545 36.9887C74.4205 37.0908 74.3765 36.9841 74.3636 36.8494ZM75.2553 35.6349C75.8542 36.5104 75.009 37.7033 76.0614 38.5482C76.2948 39.6223 74.4486 38.1562 74.5598 37.7327C75.0572 37.0769 73.9847 37.399 74.1032 36.9835C74.1156 36.9398 73.8878 36.8171 73.7621 36.748C72.9277 36.7496 72.8852 35.7757 73.7187 35.8594C73.887 35.8072 73.9969 35.2655 73.7334 35.2007C73.0748 35.0626 72.8802 36.0585 72.5661 35.4107C72.3967 35.1843 72.1711 33.9811 72.5094 34.5225C72.6542 34.7156 72.2552 34.988 72.6414 35.1669C73.4591 35.6071 72.7759 33.8724 73.4607 34.1076C73.4977 34.7487 74.2362 34.4636 74.4488 34.8621C74.5825 34.5015 74.9423 34.3905 75.2438 34.2057C75.0102 34.7499 75.4562 35.3732 75.2553 35.6349Z" fill="#0E0E0E" id="svg_156" />
    <path fill-rule="evenodd" clip-rule="evenodd" d="M79.433 49.3511C78.5999 49.1221 79.1211 48.8614 79.7336 48.7949C80.5085 48.8607 79.0262 47.6695 79.7725 47.8271C79.7121 47.6769 81.0299 45.469 80.826 47.1237C80.3079 47.6474 81.7392 47.8807 80.9556 48.5726C80.5707 49.0184 81.1674 50.1376 80.2148 50.0644C80.3657 49.5937 79.7443 49.4989 79.433 49.3511Z" fill="#FDB43D" id="svg_157" />
    <path fill-rule="evenodd" clip-rule="evenodd" d="M85.9855 62.9721C85.9541 62.9153 85.9024 62.9405 85.8505 62.9478C86.1813 62.9153 86.1769 62.7982 85.8954 62.7363C85.3295 62.1916 86.4205 61.6825 86.6286 62.3927C86.6613 62.9063 87.5686 62.8387 87.1013 63.3522C88.025 63.939 86.1753 64.6735 86.2713 63.8075C86.7014 63.0047 85.9975 63.6338 85.9855 62.9721Z" fill="#0E0E0E" id="svg_158" />
    <path fill-rule="evenodd" clip-rule="evenodd" d="M77.7393 40.8074C78.1517 41.3261 78.1823 41.6556 77.5307 41.1582C77.3567 40.925 77.38 40.9074 77.059 40.9656C76.8162 40.7516 76.7279 40.1505 76.5698 39.798C76.6958 38.8213 78.1204 40.5287 77.7393 40.8074Z" fill="#0E0E0E" id="svg_159" />
    <path fill-rule="evenodd" clip-rule="evenodd" d="M78.9971 45.2376C77.178 45.056 79.0168 45.8351 77.696 46.0372C77.4453 44.9111 78.4006 45.5961 77.6562 44.298C77.9379 43.8646 78.6561 44.3515 78.6447 44.6949C78.3499 44.9502 78.3473 44.9472 78.9971 45.2376Z" fill="#FDB43D" id="svg_160" />
    <path fill-rule="evenodd" clip-rule="evenodd" d="M79.5655 47.822C78.9967 48.1567 80.7418 48.9624 79.5334 48.6133C78.6392 48.6443 78.4668 47.7294 78.2129 47.2235C78.5627 46.9967 79.0903 46.9831 79.1136 47.6444C79.1192 47.7151 79.4081 47.7634 79.5655 47.822Z" fill="#0E0E0E" id="svg_161" />
    <path fill-rule="evenodd" clip-rule="evenodd" d="M76.3553 44.6333C76.3853 45.4496 75.1563 45.0766 75.6379 44.3551C75.3218 43 76.2963 43.6088 76.3553 44.6333Z" fill="#0E0E0E" id="svg_162" />
    <path fill-rule="evenodd" clip-rule="evenodd" d="M82.0305 47.8594C83.0911 47.8161 82.0742 48.0337 82.6441 48.4227C83.2299 48.4994 82.5212 49.2413 82.1603 49.2761C81.8562 48.2712 80.9665 49.1017 82.0362 47.8534C82.0362 47.8535 82.0305 47.8594 82.0305 47.8594Z" fill="#FDB43D" id="svg_163" />
    <path fill-rule="evenodd" clip-rule="evenodd" d="M80.5219 50.3323C80.3301 50.968 79.7484 51.4018 79.1299 51.3206C79.8007 51.242 78.114 50.8807 79.1886 50.8278C79.3095 50.8219 79.5214 50.6167 79.5197 50.5065C79.6233 49.6242 80.1774 50.6966 80.5219 50.3323Z" fill="#CA0357" id="svg_164" />
    <path fill-rule="evenodd" clip-rule="evenodd" d="M81.081 47.8858C80.9626 47.3546 82.2262 46.5032 82.6155 47.2857C82.6846 47.3953 82.6753 47.6431 82.4841 47.6004C82.0989 47.2867 82.1476 47.7175 82.0301 47.8596C81.7489 47.8518 81.3892 47.8814 81.081 47.8858Z" fill="#CA0357" id="svg_165" />
    <path fill-rule="evenodd" clip-rule="evenodd" d="M82.3755 58.968C81.6145 59.5503 82.4414 59.9434 82.0674 60.6352C81.1425 60.9014 81.9541 57.8004 82.3755 58.968Z" fill="#0E0E0E" id="svg_166" />
    <path fill-rule="evenodd" clip-rule="evenodd" d="M78.2116 47.188C78.1977 47.2768 77.8557 47.1272 77.8528 47.0867C77.6963 46.2634 76.518 47.6117 76.9762 45.8601C77.1998 47.3069 78.7027 45.8114 78.2116 47.188Z" fill="#FDB43D" id="svg_167" />
    <path fill-rule="evenodd" clip-rule="evenodd" d="M74.5093 47.7552C74.3407 47.3167 74.3142 46.3278 74.6634 46.028C75.3756 46.1846 74.6088 47.2844 74.5093 47.7552Z" fill="#0E0E0E" id="svg_168" />
    <path fill-rule="evenodd" clip-rule="evenodd" d="M73.9683 33.3074C74.3183 32.4747 73.8323 33.1672 73.3594 32.9902C73.5335 32.5146 74.1392 32.7609 74.5371 32.668C74.454 32.971 74.0511 33.8904 73.9683 33.3074Z" fill="#CA0357" id="svg_169" />
    <path fill-rule="evenodd" clip-rule="evenodd" d="M70.4748 24.5051C70.2676 24.2736 69.8711 24.1122 70.3357 24.0433C70.24 23.4335 72.0512 23.4031 70.4748 24.5051Z" fill="#FDB43D" id="svg_170" />
    <path fill-rule="evenodd" clip-rule="evenodd" d="M84.9247 64.9679C85.6787 65.1476 84.4753 65.6297 84.1509 65.2325C84.4173 64.3555 84.6158 64.8255 84.9247 64.9679Z" fill="#0E0E0E" id="svg_171" />
    <path fill-rule="evenodd" clip-rule="evenodd" d="M70.4766 28.423C70.7388 28.019 71.2152 28.1274 71.6021 27.9215C71.2048 28.0396 70.837 28.871 70.4766 28.423Z" fill="#CA0357" id="svg_172" />
    <path fill-rule="evenodd" clip-rule="evenodd" d="M72.362 28.0654C71.9587 29.0878 71.481 28.3416 72.367 28.0607L72.362 28.0654Z" fill="#CA0357" id="svg_173" />
    <path fill-rule="evenodd" clip-rule="evenodd" d="M77.3069 44.2186C77.3165 44.2194 77.3322 44.2171 77.3345 44.2216C77.3744 44.2843 77.2684 44.2776 77.3069 44.2186Z" fill="#FDB43D" id="svg_174" />
    <path fill-rule="evenodd" clip-rule="evenodd" d="M78.1493 49.5023C78.1167 49.5247 78.0839 49.5471 78.0513 49.5695C78.0945 49.4966 78.1342 49.3562 78.1493 49.5023Z" fill="#0E0E0E" id="svg_175" />
    <path fill-rule="evenodd" clip-rule="evenodd" d="M72.3673 28.0607L72.3821 28.0522C72.3813 28.0519 72.3506 28.0752 72.3673 28.0607Z" fill="#CA0357" id="svg_176" />
    <path fill-rule="evenodd" clip-rule="evenodd" d="M80.2001 57.1696C80.2158 57.166 80.2313 57.1625 80.247 57.1588C80.2317 57.1631 80.1838 57.1581 80.2001 57.1696Z" fill="#CA0357" id="svg_177" />
    <path fill-rule="evenodd" clip-rule="evenodd" d="M70.7732 40.5866C70.7635 40.1795 71.0362 40.1109 71.357 40.0999C71.1626 40.2621 70.9679 40.4243 70.7732 40.5866Z" fill="#0E0E0E" id="svg_178" />
    <path fill-rule="evenodd" clip-rule="evenodd" d="M39.4312 60.4861C39.6588 60.7342 39.7212 60.758 39.4524 60.841C39.2875 60.7826 39.3668 60.6332 39.4312 60.4861Z" fill="#FDB43D" id="svg_179" />
    <path fill-rule="evenodd" clip-rule="evenodd" d="M38.6973 61.3974C38.7067 61.384 38.7163 61.3706 38.7258 61.3572C38.7169 61.3713 38.7081 61.3854 38.6992 61.3994L38.6973 61.3974Z" fill="#CA0357" id="svg_180" />
    <path fill-rule="evenodd" clip-rule="evenodd" d="M43.1413 48.3334C43.1019 48.2721 43.008 48.2126 43.1082 48.1738C43.1149 48.2274 43.1562 48.2858 43.1413 48.3334Z" fill="#FDB43D" id="svg_181" />
  </g>
</svg>