<svg width="166" height="158" viewBox="0 0 166 158" fill="none" xmlns="http://www.w3.org/2000/svg">
<path d="M165.645 83.1671C165.645 128.909 128.138 158 82.397 158C36.6553 158 0 128.909 0 83.1671C0 37.4254 37.0808 0.344635 82.8225 0.344635C128.564 0.344635 165.645 37.4254 165.645 83.1671Z" fill="#FFEBC3"/>
<mask id="mask0_164_8877" style="mask-type:alpha" maskUnits="userSpaceOnUse" x="0" y="0" width="166" height="158">
<path d="M165.645 83.1671C165.645 128.909 128.138 158 82.397 158C36.6553 158 0 128.909 0 83.1671C0 37.4254 37.0808 0.344635 82.8225 0.344635C128.564 0.344635 165.645 37.4254 165.645 83.1671Z" fill="#F7E3E2"/>
</mask>
<g mask="url(#mask0_164_8877)">
<path d="M22.24 75.547C22.781 77.9359 23.8417 82.5522 27.8714 88.1226C30.7769 92.1394 36.3029 98.0796 41.7126 105.843C45.6143 111.441 47.8766 114.744 49.1215 116.579C50.0053 117.884 50.6175 119.336 50.9226 120.858L41.5638 148.977L63.8123 150.923C63.8123 150.923 72.1945 121.633 72.2021 109.349L72.2032 109.338C72.2021 107.914 72.2161 106.396 72.2517 104.773C72.4101 97.257 74.5948 91.333 52.868 91.1271C52.7775 91.126 52.6934 91.0624 52.5964 91.0279C51.7493 90.6991 50.4559 90.1084 48.5492 88.5721C48.228 88.3134 47.8907 88.0309 47.5371 87.7183C45.416 85.8446 43.4037 84.3666 41.511 83.199C31.6327 77.0897 21.7484 73.3757 22.24 75.547Z" fill="#FFB27D"/>
<path d="M20.6943 61.2885C21.0199 57.7557 23.6494 46.643 23.6494 46.643C23.6494 46.643 26.2228 47.2338 27.1661 48.8832C29.9248 53.7076 29.0231 63.2182 28.8774 63.2743C28.8727 63.2754 33.3648 71.9106 34.1279 77.4659C34.1279 77.4659 46.0411 83.9321 48.5503 88.5721C48.7022 88.8546 48.824 89.1327 48.9124 89.4001C49.253 90.4425 49.3985 91.8699 49.378 93.4557C49.294 99.0768 47.0736 106.679 43.755 106.094C42.9359 105.947 23.7691 84.5143 22.9753 80.74C22.7902 79.8484 20.5205 63.173 20.6943 61.2885Z" fill="#FFB27D"/>
<path d="M51.6512 85.3358C51.6512 85.3358 52.2181 90.7897 46.5736 86.0063L46.1166 92.2742L53.9793 96.4614L56.648 91.8624L51.6512 85.3358Z" fill="#FFB27D"/>
<path d="M24.2047 52.1325C24.3121 51.9266 24.3855 51.6991 24.421 51.4587C24.421 51.4587 24.7213 49.3058 24.9366 47.7264C25.0786 46.6861 24.3809 45.842 23.9838 45.6846C23.7325 45.5854 22.1911 49.6228 22.1312 53.424C23.0358 53.4391 23.8156 52.8796 24.2047 52.1325Z" fill="#FFC69F"/>
<path d="M34.1279 77.4659C36.6996 78.309 52.3657 88.9646 53.2129 89.2923C55.1724 91.7675 55.5022 95.4319 54.5451 95.8404C53.2539 96.3946 50.3761 95.2831 48.4565 93.5194C45.8826 91.1584 45.1357 88.0471 44.3683 86.3158C44.0212 85.5363 41.7416 84.4022 40.8783 83.2638C38.6073 80.27 34.4221 77.6966 34.1279 77.4659Z" fill="#F6A56E"/>
<path d="M64.1044 87.645C64.1044 87.645 43.7098 71.2185 41.455 67.0486C41.455 67.0486 37.8669 68.3466 39.2982 73.7951C40.7307 79.2447 50.7598 89.0281 51.3591 92.8876C53.6096 107.388 61.8442 111.851 61.8442 111.851C61.8442 111.851 84.1972 103.867 64.1044 87.645Z" fill="#FFB27D"/>
<path d="M42.7667 73.1181C42.5792 72.9715 42.4132 72.7914 42.2774 72.5855C42.2774 72.5855 41.0702 70.7356 40.1886 69.3761C39.6076 68.4803 39.7919 67.317 40.6294 66.6303C40.8353 66.4621 40.9592 66.3791 40.9592 66.3791C41.9486 67.234 44.5063 68.8285 46.2093 72.2772C45.2705 72.9499 43.4457 73.6517 42.7667 73.1181Z" fill="#FFC69F"/>
<path d="M71.5585 127.89C71.5585 127.89 71.4605 130.601 71.2955 134.896C71.2912 135.009 71.288 135.123 71.2826 135.238C71.0573 141.112 70.7146 149.781 70.3266 158.52C57.4013 158.513 44.6172 158.502 32.454 158.487C36.0431 151.314 42.1479 139.662 45.8503 132.633C47.6071 129.295 48.8229 126.999 48.9695 126.723C48.9792 126.704 48.9846 126.695 48.9846 126.695C49.1904 126.397 49.4189 126.126 49.669 125.884C50.0117 125.546 50.3933 125.259 50.8083 125.017C54.2304 123.007 59.9137 123.962 64.4675 125.29C66.5661 125.901 68.4231 126.591 69.7111 127.106C70.5853 127.457 71.1975 127.726 71.44 127.836C71.5187 127.872 71.5585 127.89 71.5585 127.89Z" fill="#077F7F"/>
<path d="M71.2892 135.237C71.2892 135.237 62.2883 137.669 57.0878 137.748L55.1682 134.172L53.49 137.196C53.49 137.196 46.9185 135.199 45.5798 133.248L50.1584 125.004L71.4897 125.431L71.2892 135.237Z" fill="#004949"/>
<path d="M70.9152 120.87C70.9152 120.87 73.6884 127.313 74.2759 134.95C74.2759 134.95 63.4329 136.154 58.2691 135.517L56.0089 126.557L52.7183 134.342C52.7183 134.342 46.745 133.567 44.6691 131.956C44.6691 131.956 48.5352 125.332 50.97 120.944C50.97 120.944 61.0197 123.974 70.9152 120.87Z" fill="#F3F8FF"/>
<path d="M64.3565 133.218C64.6249 132.723 64.419 132.115 63.8952 131.86C63.3714 131.604 62.7301 131.798 62.4617 132.293C62.1933 132.788 62.3992 133.396 62.923 133.651C63.4458 133.907 64.0882 133.713 64.3565 133.218Z" fill="#004949"/>
<path d="M135.986 75.5472C135.446 77.9361 134.385 82.5524 130.356 88.1227C127.45 92.1395 121.924 98.0797 116.514 105.843C112.612 111.441 110.35 114.744 109.105 116.579C108.221 117.884 107.609 119.336 107.304 120.858L116.663 148.977L94.415 150.923C94.415 150.923 86.0337 121.633 86.0245 109.349L86.0232 109.338C86.0245 107.914 86.0114 106.396 85.9746 104.773C85.8169 97.2572 83.632 91.3331 105.358 91.1273C105.449 91.1262 105.533 91.0625 105.63 91.0281C106.478 90.6993 107.771 90.1085 109.678 88.5723C109.999 88.3136 110.337 88.0312 110.69 87.7185C112.811 85.8448 114.823 84.3667 116.715 83.1992C126.595 77.0898 136.479 73.3759 135.986 75.5472Z" fill="#FFB27D"/>
<path d="M137.534 61.2883C137.207 57.7553 134.578 46.643 134.578 46.643C134.578 46.643 132.004 47.2343 131.062 48.8837C128.302 53.7075 129.204 63.2186 129.349 63.2747C129.354 63.275 124.863 71.9107 124.099 77.4659C124.099 77.4659 112.186 83.9322 109.677 88.5721C109.525 88.8545 109.404 89.1327 109.315 89.4001C108.974 90.4426 108.829 91.8699 108.85 93.4558C108.933 99.0767 111.153 106.679 114.473 106.094C115.292 105.947 134.459 84.5143 135.252 80.7401C135.437 79.8484 137.707 63.1734 137.534 61.2883Z" fill="#FFB27D"/>
<path d="M106.577 85.3355C106.577 85.3355 106.01 90.7894 111.655 86.0061L112.111 92.274L104.248 96.4612L101.579 91.8622L106.577 85.3355Z" fill="#FFB27D"/>
<path d="M134.024 52.1327C133.915 51.9262 133.843 51.699 133.806 51.4589C133.806 51.4589 133.506 49.3061 133.292 47.7268C133.149 46.6855 133.847 45.8418 134.244 45.6845C134.496 45.585 136.037 49.6221 136.096 53.4244C135.192 53.4391 134.412 52.88 134.024 52.1327Z" fill="#FFC69F"/>
<path d="M124.1 77.4656C121.529 78.3087 105.861 88.9642 105.015 89.2919C103.055 91.7673 102.726 95.4316 103.683 95.8402C104.974 96.3943 107.852 95.2828 109.771 93.5191C112.345 91.1581 113.092 88.0468 113.86 86.3154C114.206 85.536 116.487 84.4019 117.35 83.2634C119.62 80.2696 123.805 77.6963 124.1 77.4656Z" fill="#F6A56E"/>
<path d="M94.122 87.6453C94.122 87.6453 114.517 71.2189 116.772 67.049C116.772 67.049 120.36 68.3469 118.928 73.7955C117.496 79.2451 107.466 89.0284 106.867 92.8879C104.617 107.388 96.3831 111.851 96.3831 111.851C96.3831 111.851 74.0298 103.867 94.122 87.6453Z" fill="#FFB27D"/>
<path d="M115.462 73.1178C115.649 72.9711 115.814 72.7911 115.95 72.5852C115.95 72.5852 117.158 70.7352 118.04 69.3757C118.62 68.4799 118.436 67.3166 117.599 66.6299C117.393 66.4617 117.269 66.3787 117.269 66.3787C116.279 67.2336 113.57 68.9715 111.867 72.4202C112.686 72.7813 114.782 73.6514 115.462 73.1178Z" fill="#FFC69F"/>
<path d="M125.804 158.547C113.742 158.546 100.943 158.542 87.9006 158.536C87.5148 149.792 87.1703 141.115 86.9456 135.238C86.9393 135.123 86.9368 135.008 86.9318 134.896C86.7671 130.601 86.6697 127.89 86.6697 127.89C86.6697 127.89 86.7109 127.872 86.7883 127.836C87.0305 127.726 87.6422 127.457 88.5173 127.106C89.8044 126.591 91.662 125.901 93.7605 125.29C98.3147 123.961 103.997 123.006 107.419 125.017C107.836 125.258 108.216 125.546 108.559 125.884C108.809 126.126 109.037 126.397 109.243 126.694C109.243 126.694 109.249 126.704 109.258 126.722C109.405 126.998 110.621 129.295 112.378 132.632C116.089 139.681 122.219 151.38 125.804 158.547Z" fill="#077F7F"/>
<path d="M86.9373 135.237C86.9373 135.237 95.9389 137.669 101.14 137.748L103.059 134.172L104.737 137.196C104.737 137.196 111.309 135.2 112.647 133.248L108.069 125.004L86.7377 125.431L86.9373 135.237Z" fill="#004949"/>
<path d="M87.3129 120.87C87.3129 120.87 84.5393 127.313 83.9515 134.95C83.9515 134.95 94.796 136.153 99.9584 135.517L102.219 126.556L105.509 134.342C105.509 134.342 111.483 133.567 113.559 131.955C113.559 131.955 109.693 125.332 107.258 120.944C107.258 120.944 97.2083 123.973 87.3129 120.87Z" fill="#F3F8FF"/>
<path d="M93.8707 133.218C93.6023 132.723 93.8081 132.115 94.332 131.86C94.8558 131.604 95.4971 131.798 95.7655 132.293C96.0338 132.788 95.828 133.396 95.3042 133.651C94.7814 133.907 94.139 133.713 93.8707 133.218Z" fill="#004949"/>
<path d="M119.292 148.12C120.016 148.413 122.609 148.176 122.693 147.969C122.777 147.761 121.081 145.786 120.357 145.492C119.63 145.197 118.805 145.548 118.51 146.273C118.216 146.999 118.566 147.826 119.292 148.12Z" fill="#A8D29F"/>
<path d="M125.83 149.358C125.423 150.026 125.239 152.623 125.43 152.74C125.621 152.856 127.844 151.502 128.251 150.834C128.659 150.164 128.446 149.292 127.778 148.885C127.111 148.477 126.237 148.688 125.83 149.358Z" fill="#A8D29F"/>
<path d="M122.337 154.441C123.082 154.679 125.649 154.245 125.717 154.031C125.785 153.819 123.944 151.977 123.198 151.739C122.452 151.501 121.654 151.913 121.417 152.659C121.179 153.405 121.591 154.202 122.337 154.441Z" fill="#A8D29F"/>
<path d="M126.113 156.955C126.11 156.895 125.823 151.017 122.605 147.981L122.673 147.909C125.92 150.973 126.209 156.891 126.212 156.95L126.113 156.955Z" fill="#A8D29F"/>
<path d="M136.854 148.246C136.403 148.547 134.609 148.744 134.523 148.615C134.438 148.486 135.315 146.909 135.768 146.61C136.219 146.309 136.829 146.433 137.128 146.885C137.429 147.336 137.307 147.946 136.854 148.246Z" fill="#A8D29F"/>
<path d="M132.587 149.991C132.955 150.389 133.439 152.127 133.327 152.233C133.213 152.338 131.516 151.726 131.147 151.329C130.778 150.931 130.801 150.309 131.199 149.941C131.595 149.571 132.217 149.595 132.587 149.991Z" fill="#A8D29F"/>
<path d="M135.661 152.959C135.187 153.225 133.385 153.285 133.309 153.149C133.234 153.014 134.229 151.509 134.702 151.244C135.175 150.98 135.774 151.149 136.039 151.623C136.303 152.096 136.134 152.694 135.661 152.959Z" fill="#A8D29F"/>
<path d="M133.444 155.189C133.438 155.149 132.819 151.117 134.585 148.612L134.528 148.572C132.747 151.101 133.37 155.159 133.376 155.2L133.444 155.189Z" fill="#A8D29F"/>
<path d="M130.26 156.612L130.054 156.578C129.248 146.143 126.062 138.654 126.018 138.552L126.204 138.471C126.249 138.575 129.457 146.113 130.26 156.612Z" fill="#A8D29F"/>
<path d="M123.855 137.502C124.248 137.948 126.088 138.663 126.214 138.551C126.342 138.439 125.86 136.524 125.467 136.079C125.074 135.634 124.395 135.592 123.95 135.984C123.506 136.378 123.462 137.057 123.855 137.502Z" fill="#CCDBFD"/>
<path d="M126.676 135.95C126.321 136.426 125.999 138.374 126.135 138.476C126.27 138.577 128.045 137.711 128.399 137.235C128.754 136.759 128.656 136.085 128.18 135.731C127.704 135.375 127.03 135.474 126.676 135.95Z" fill="#CCDBFD"/>
<path d="M128.792 138.022C128.219 137.865 126.289 138.277 126.243 138.441C126.2 138.605 127.654 139.94 128.227 140.096C128.799 140.252 129.39 139.915 129.546 139.341C129.703 138.769 129.366 138.178 128.792 138.022Z" fill="#CCDBFD"/>
<path d="M127.487 140.604C127.429 140.013 126.359 138.354 126.191 138.37C126.021 138.386 125.29 140.22 125.346 140.811C125.404 141.403 125.929 141.835 126.52 141.778C127.112 141.721 127.543 141.196 127.487 140.604Z" fill="#CCDBFD"/>
<path d="M124.56 140.477C125.085 140.2 126.217 138.583 126.138 138.433C126.059 138.284 124.087 138.296 123.56 138.572C123.035 138.849 122.832 139.499 123.107 140.025C123.384 140.551 124.033 140.753 124.56 140.477Z" fill="#CCDBFD"/>
<path d="M125.788 138.378C125.818 138.185 126 138.053 126.193 138.084C126.386 138.115 126.517 138.296 126.487 138.49C126.456 138.683 126.274 138.814 126.081 138.783C125.889 138.753 125.757 138.571 125.788 138.378Z" fill="#163560"/>
<path d="M130.201 145.941C129.617 146.66 128.987 149.675 129.191 149.842C129.397 150.008 132.219 148.776 132.803 148.057C133.387 147.339 133.279 146.283 132.561 145.699C131.841 145.114 130.787 145.223 130.201 145.941Z" fill="#A8D29F"/>
<path d="M118.638 157.679L118.499 157.676C117.048 150.822 114.277 146.132 114.238 146.069L114.355 145.998C114.394 146.063 117.185 150.783 118.638 157.679Z" fill="#A8D29F"/>
<path d="M112.713 145.561C113.012 145.822 114.296 146.135 114.37 146.05C114.444 145.965 113.958 144.736 113.657 144.475C113.356 144.214 112.903 144.245 112.642 144.545C112.382 144.846 112.412 145.3 112.713 145.561Z" fill="#CCDBFD"/>
<path d="M114.446 144.283C114.254 144.63 114.211 145.952 114.31 146.007C114.409 146.062 115.51 145.332 115.704 144.985C115.897 144.638 115.774 144.199 115.426 144.006C115.079 143.812 114.641 143.936 114.446 144.283Z" fill="#CCDBFD"/>
<path d="M116.033 145.472C115.639 145.419 114.393 145.863 114.378 145.975C114.363 146.087 115.445 146.846 115.84 146.899C116.233 146.952 116.596 146.677 116.649 146.282C116.702 145.888 116.426 145.526 116.033 145.472Z" fill="#CCDBFD"/>
<path d="M115.394 147.301C115.304 146.914 114.448 145.907 114.337 145.932C114.227 145.957 113.902 147.238 113.992 147.626C114.082 148.013 114.467 148.254 114.856 148.164C115.242 148.075 115.483 147.688 115.394 147.301Z" fill="#CCDBFD"/>
<path d="M113.439 147.473C113.763 147.245 114.372 146.072 114.308 145.979C114.242 145.886 112.934 146.069 112.609 146.298C112.283 146.527 112.207 146.976 112.435 147.301C112.665 147.625 113.114 147.703 113.439 147.473Z" fill="#CCDBFD"/>
<path d="M114.07 145.973C114.074 145.842 114.182 145.739 114.315 145.742C114.444 145.745 114.548 145.854 114.545 145.985C114.541 146.116 114.431 146.219 114.302 146.215C114.171 146.212 114.067 146.103 114.07 145.973Z" fill="#163560"/>
<path d="M117.663 150.604C117.338 151.132 117.184 153.188 117.336 153.281C117.486 153.373 119.251 152.308 119.575 151.78C119.899 151.252 119.735 150.561 119.207 150.236C118.679 149.912 117.988 150.076 117.663 150.604Z" fill="#A8D29F"/>
<path d="M140.774 156.772L140.956 156.745C141.673 147.449 144.512 140.781 144.552 140.69L144.385 140.618C144.346 140.709 141.487 147.424 140.774 156.772Z" fill="#A8D29F"/>
<path d="M146.475 139.754C146.125 140.151 144.488 140.788 144.375 140.689C144.26 140.589 144.69 138.883 145.04 138.487C145.39 138.091 145.994 138.053 146.391 138.402C146.788 138.753 146.825 139.357 146.475 139.754Z" fill="#CCDBFD"/>
<path d="M143.965 138.372C144.281 138.796 144.569 140.531 144.448 140.621C144.326 140.711 142.746 139.941 142.431 139.516C142.115 139.092 142.202 138.493 142.626 138.176C143.049 137.86 143.65 137.947 143.965 138.372Z" fill="#CCDBFD"/>
<path d="M142.081 140.217C142.592 140.078 144.31 140.445 144.35 140.591C144.39 140.736 143.094 141.925 142.585 142.064C142.074 142.203 141.548 141.903 141.409 141.393C141.27 140.882 141.57 140.356 142.081 140.217Z" fill="#CCDBFD"/>
<path d="M143.241 142.517C143.292 141.99 144.245 140.513 144.395 140.527C144.544 140.542 145.198 142.175 145.147 142.702C145.096 143.228 144.628 143.614 144.101 143.562C143.576 143.511 143.191 143.043 143.241 142.517Z" fill="#CCDBFD"/>
<path d="M145.849 142.404C145.381 142.158 144.373 140.717 144.442 140.583C144.512 140.45 146.27 140.463 146.74 140.708C147.208 140.954 147.387 141.533 147.141 142.001C146.896 142.469 146.317 142.65 145.849 142.404Z" fill="#CCDBFD"/>
<path d="M144.754 140.534C144.729 140.362 144.566 140.245 144.394 140.273C144.222 140.3 144.105 140.461 144.132 140.633C144.159 140.805 144.322 140.923 144.492 140.895C144.666 140.868 144.782 140.706 144.754 140.534Z" fill="#163560"/>
<path d="M140.349 149.76C140.87 150.399 141.431 153.083 141.249 153.232C141.066 153.381 138.552 152.283 138.032 151.643C137.513 151.004 137.608 150.063 138.248 149.543C138.889 149.022 139.829 149.119 140.349 149.76Z" fill="#A8D29F"/>
<path d="M111.295 158.397C111.295 158.397 112.326 155.687 116.069 155.517C119.811 155.346 122.387 157.558 125.479 156.538C128.571 155.517 133.689 153.212 138.531 154.747C143.373 156.282 144.188 158.397 144.188 158.397H111.295Z" fill="#A8D29F"/>
<path d="M40.1056 158.193H46.5693C46.9153 157.899 46.33 157.232 45.7178 157.187C45.4516 157.167 45.1153 157.222 44.7305 157.304C44.6422 156.122 44.1334 150.81 42.2192 151.023C40.0668 151.263 42.2192 153.363 42.8282 154.607C43.2787 155.527 43.754 156.848 43.9717 157.471C43.7971 157.51 43.6161 157.547 43.4307 157.581C43.1461 156.705 42.0845 153.757 40.734 153.929C39.1496 154.13 39.7865 155.312 40.9096 156.012C41.7342 156.529 42.7463 157.262 43.227 157.617C42.8195 157.682 42.3938 157.728 41.9627 157.718C40.8558 157.691 40.3147 158.018 40.1056 158.193Z" fill="#A8D29F"/>
<path d="M45.7598 157.513L45.9236 157.487C46.5681 149.147 49.115 143.162 49.1506 143.081L49.0008 143.016C48.9652 143.098 46.4011 149.123 45.7598 157.513Z" fill="#A8D29F"/>
<path d="M50.8773 142.241C50.5636 142.597 49.0935 143.17 48.9922 143.08C48.8909 142.991 49.2756 141.46 49.5893 141.104C49.904 140.748 50.4462 140.715 50.8018 141.029C51.1575 141.342 51.192 141.886 50.8773 142.241Z" fill="#CCDBFD"/>
<path d="M48.6246 141.002C48.9081 141.382 49.1657 142.939 49.0568 143.02C48.9479 143.101 47.5306 142.408 47.2471 142.028C46.9637 141.647 47.0413 141.109 47.4218 140.826C47.8022 140.542 48.3411 140.621 48.6246 141.002Z" fill="#CCDBFD"/>
<path d="M46.9336 142.656C47.3906 142.531 48.934 142.861 48.9696 142.992C49.0052 143.123 47.8433 144.189 47.3852 144.314C46.9271 144.439 46.455 144.17 46.33 143.712C46.2061 143.254 46.4755 142.781 46.9336 142.656Z" fill="#CCDBFD"/>
<path d="M47.9758 144.721C48.0211 144.249 48.8769 142.923 49.0116 142.936C49.1463 142.949 49.7316 144.414 49.6863 144.886C49.64 145.358 49.2207 145.704 48.7486 145.659C48.2754 145.614 47.9305 145.193 47.9758 144.721Z" fill="#CCDBFD"/>
<path d="M50.3158 144.62C49.8954 144.399 48.9911 143.106 49.0536 142.986C49.1172 142.866 50.6941 142.877 51.1144 143.097C51.5348 143.318 51.6965 143.838 51.4755 144.257C51.2556 144.678 50.7361 144.839 50.3158 144.62Z" fill="#CCDBFD"/>
<path d="M49.3339 142.941C49.3091 142.787 49.1636 142.682 49.0094 142.706C48.8553 142.731 48.7497 142.876 48.7745 143.03C48.7993 143.185 48.9437 143.29 49.0989 143.265C49.253 143.241 49.3576 143.095 49.3339 142.941Z" fill="#233862"/>
<path d="M46.4119 146.865C46.8193 147.366 47.2602 149.473 47.1168 149.589C46.9735 149.706 45.0021 148.846 44.5936 148.343C44.1862 147.841 44.2616 147.103 44.7639 146.695C45.2651 146.286 46.0034 146.363 46.4119 146.865Z" fill="#A8D29F"/>
<path d="M48.5288 150.986C47.8045 151.338 46.2039 153.486 46.3041 153.693C46.4054 153.9 49.0828 153.96 49.8071 153.607C50.5303 153.254 50.831 152.382 50.4785 151.657C50.125 150.933 49.252 150.632 48.5288 150.986Z" fill="#A8D29F"/>
</g>
</svg>
